<ttFont>
    <TTGlyph name="A" xMin="104" yMin="0" xMax="969" yMax="720">
      <contour>
        <pt x="969" y="70" on="1"/>
        <pt x="969" y="48" on="0"/>
        <pt x="957" y="21" on="0"/>
        <pt x="937" y="6" on="0"/>
        <pt x="912" y="0" on="0"/>
        <pt x="899" y="0" on="1"/>
        <pt x="586" y="0" on="1"/>
        <pt x="575" y="0" on="0"/>
        <pt x="553" y="5" on="0"/>
        <pt x="536" y="18" on="0"/>
        <pt x="526" y="41" on="0"/>
        <pt x="526" y="60" on="1"/>
        <pt x="526" y="299" on="1"/>
        <pt x="222" y="299" on="1"/>
        <pt x="208" y="247" on="0"/>
        <pt x="194" y="129" on="0"/>
        <pt x="194" y="60" on="1"/>
        <pt x="194" y="22" on="0"/>
        <pt x="161" y="0" on="0"/>
        <pt x="139" y="0" on="1"/>
        <pt x="104" y="0" on="1"/>
        <pt x="104" y="60" on="1"/>
        <pt x="104" y="190" on="0"/>
        <pt x="149" y="389" on="0"/>
        <pt x="226" y="536" on="0"/>
        <pt x="328" y="634" on="0"/>
        <pt x="442" y="694" on="0"/>
        <pt x="561" y="720" on="0"/>
        <pt x="616" y="720" on="1"/>
        <pt x="650" y="720" on="0"/>
        <pt x="670" y="686" on="0"/>
        <pt x="670" y="666" on="1"/>
        <pt x="670" y="640" on="1"/>
        <pt x="616" y="640" on="1"/>
        <pt x="616" y="70" on="1"/>
      </contour>
      <contour>
        <pt x="526" y="630" on="1"/>
        <pt x="438" y="610" on="0"/>
        <pt x="292" y="485" on="0"/>
        <pt x="247" y="374" on="1"/>
        <pt x="526" y="374" on="1"/>
      </contour>
    </TTGlyph>
    <TTGlyph name="AE" xMin="104" yMin="0" xMax="1157" yMax="710">
      <contour>
        <pt x="104" y="60" on="1"/>
        <pt x="104" y="190" on="0"/>
        <pt x="149" y="387" on="0"/>
        <pt x="226" y="532" on="0"/>
        <pt x="328" y="628" on="0"/>
        <pt x="442" y="686" on="0"/>
        <pt x="561" y="710" on="0"/>
        <pt x="616" y="710" on="1"/>
        <pt x="645" y="710" on="0"/>
        <pt x="667" y="684" on="0"/>
        <pt x="669" y="667" on="1"/>
        <pt x="707" y="687" on="0"/>
        <pt x="805" y="710" on="0"/>
        <pt x="866" y="710" on="1"/>
        <pt x="888" y="710" on="1"/>
        <pt x="922" y="710" on="0"/>
        <pt x="942" y="676" on="0"/>
        <pt x="942" y="656" on="1"/>
        <pt x="942" y="630" on="1"/>
        <pt x="860" y="630" on="1"/>
        <pt x="782" y="630" on="0"/>
        <pt x="681" y="583" on="0"/>
        <pt x="623" y="510" on="0"/>
        <pt x="599" y="419" on="0"/>
        <pt x="596" y="374" on="1"/>
        <pt x="860" y="374" on="1"/>
        <pt x="860" y="352" on="0"/>
        <pt x="848" y="323" on="0"/>
        <pt x="828" y="306" on="0"/>
        <pt x="803" y="299" on="0"/>
        <pt x="790" y="299" on="1"/>
        <pt x="597" y="299" on="1"/>
        <pt x="600" y="264" on="0"/>
        <pt x="627" y="184" on="0"/>
        <pt x="686" y="115" on="0"/>
        <pt x="784" y="70" on="0"/>
        <pt x="860" y="70" on="1"/>
        <pt x="1157" y="70" on="1"/>
        <pt x="1157" y="48" on="0"/>
        <pt x="1145" y="21" on="0"/>
        <pt x="1125" y="6" on="0"/>
        <pt x="1100" y="0" on="0"/>
        <pt x="1087" y="0" on="1"/>
        <pt x="856" y="0" on="1"/>
        <pt x="760" y="0" on="0"/>
        <pt x="631" y="52" on="0"/>
        <pt x="550" y="137" on="0"/>
        <pt x="511" y="244" on="0"/>
        <pt x="507" y="299" on="1"/>
        <pt x="222" y="299" on="1"/>
        <pt x="208" y="248" on="0"/>
        <pt x="194" y="129" on="0"/>
        <pt x="194" y="60" on="1"/>
        <pt x="194" y="22" on="0"/>
        <pt x="161" y="0" on="0"/>
        <pt x="139" y="0" on="1"/>
        <pt x="104" y="0" on="1"/>
      </contour>
      <contour>
        <pt x="507" y="374" on="1"/>
        <pt x="512" y="449" on="0"/>
        <pt x="561" y="582" on="0"/>
        <pt x="615" y="630" on="1"/>
        <pt x="558" y="630" on="0"/>
        <pt x="450" y="600" on="0"/>
        <pt x="355" y="538" on="0"/>
        <pt x="276" y="441" on="0"/>
        <pt x="248" y="374" on="1"/>
      </contour>
    </TTGlyph>
    <TTGlyph name="Aacute" xMin="104" yMin="0" xMax="969" yMax="942">
      <contour>
        <pt x="969" y="70" on="1"/>
        <pt x="969" y="48" on="0"/>
        <pt x="957" y="21" on="0"/>
        <pt x="937" y="6" on="0"/>
        <pt x="912" y="0" on="0"/>
        <pt x="899" y="0" on="1"/>
        <pt x="586" y="0" on="1"/>
        <pt x="575" y="0" on="0"/>
        <pt x="553" y="5" on="0"/>
        <pt x="536" y="18" on="0"/>
        <pt x="526" y="41" on="0"/>
        <pt x="526" y="60" on="1"/>
        <pt x="526" y="299" on="1"/>
        <pt x="222" y="299" on="1"/>
        <pt x="208" y="247" on="0"/>
        <pt x="194" y="129" on="0"/>
        <pt x="194" y="60" on="1"/>
        <pt x="194" y="22" on="0"/>
        <pt x="161" y="0" on="0"/>
        <pt x="139" y="0" on="1"/>
        <pt x="104" y="0" on="1"/>
        <pt x="104" y="60" on="1"/>
        <pt x="104" y="190" on="0"/>
        <pt x="149" y="389" on="0"/>
        <pt x="226" y="536" on="0"/>
        <pt x="328" y="634" on="0"/>
        <pt x="442" y="694" on="0"/>
        <pt x="561" y="720" on="0"/>
        <pt x="616" y="720" on="1"/>
        <pt x="650" y="720" on="0"/>
        <pt x="670" y="686" on="0"/>
        <pt x="670" y="666" on="1"/>
        <pt x="670" y="640" on="1"/>
        <pt x="616" y="640" on="1"/>
        <pt x="616" y="70" on="1"/>
      </contour>
      <contour>
        <pt x="526" y="630" on="1"/>
        <pt x="438" y="610" on="0"/>
        <pt x="292" y="485" on="0"/>
        <pt x="247" y="374" on="1"/>
        <pt x="526" y="374" on="1"/>
      </contour>
      <contour>
        <pt x="322" y="811" on="1"/>
        <pt x="532" y="942" on="1"/>
        <pt x="545" y="922" on="1"/>
        <pt x="569" y="885" on="0"/>
        <pt x="569" y="865" on="1"/>
        <pt x="569" y="848" on="0"/>
        <pt x="525" y="819" on="0"/>
        <pt x="458" y="795" on="0"/>
        <pt x="379" y="776" on="0"/>
        <pt x="345" y="770" on="1"/>
      </contour>
    </TTGlyph>
    <TTGlyph name="Acircumflex" xMin="104" yMin="0" xMax="969" yMax="942">
      <contour>
        <pt x="969" y="70" on="1"/>
        <pt x="969" y="48" on="0"/>
        <pt x="957" y="21" on="0"/>
        <pt x="937" y="6" on="0"/>
        <pt x="912" y="0" on="0"/>
        <pt x="899" y="0" on="1"/>
        <pt x="586" y="0" on="1"/>
        <pt x="575" y="0" on="0"/>
        <pt x="553" y="5" on="0"/>
        <pt x="536" y="18" on="0"/>
        <pt x="526" y="41" on="0"/>
        <pt x="526" y="60" on="1"/>
        <pt x="526" y="299" on="1"/>
        <pt x="222" y="299" on="1"/>
        <pt x="208" y="247" on="0"/>
        <pt x="194" y="129" on="0"/>
        <pt x="194" y="60" on="1"/>
        <pt x="194" y="22" on="0"/>
        <pt x="161" y="0" on="0"/>
        <pt x="139" y="0" on="1"/>
        <pt x="104" y="0" on="1"/>
        <pt x="104" y="60" on="1"/>
        <pt x="104" y="190" on="0"/>
        <pt x="149" y="389" on="0"/>
        <pt x="226" y="536" on="0"/>
        <pt x="328" y="634" on="0"/>
        <pt x="442" y="694" on="0"/>
        <pt x="561" y="720" on="0"/>
        <pt x="616" y="720" on="1"/>
        <pt x="650" y="720" on="0"/>
        <pt x="670" y="686" on="0"/>
        <pt x="670" y="666" on="1"/>
        <pt x="670" y="640" on="1"/>
        <pt x="616" y="640" on="1"/>
        <pt x="616" y="70" on="1"/>
      </contour>
      <contour>
        <pt x="526" y="630" on="1"/>
        <pt x="438" y="610" on="0"/>
        <pt x="292" y="485" on="0"/>
        <pt x="247" y="374" on="1"/>
        <pt x="526" y="374" on="1"/>
      </contour>
      <contour>
        <pt x="597" y="771" on="1"/>
        <pt x="575" y="775" on="0"/>
        <pt x="532" y="793" on="0"/>
        <pt x="494" y="814" on="0"/>
        <pt x="464" y="836" on="0"/>
        <pt x="456" y="845" on="1"/>
        <pt x="438" y="824" on="0"/>
        <pt x="361" y="781" on="0"/>
        <pt x="315" y="771" on="1"/>
        <pt x="291" y="811" on="1"/>
        <pt x="436" y="942" on="1"/>
        <pt x="476" y="942" on="1"/>
        <pt x="621" y="811" on="1"/>
      </contour>
    </TTGlyph>
    <TTGlyph name="Adieresis" xMin="104" yMin="0" xMax="969" yMax="916">
      <contour>
        <pt x="969" y="70" on="1"/>
        <pt x="969" y="48" on="0"/>
        <pt x="957" y="21" on="0"/>
        <pt x="937" y="6" on="0"/>
        <pt x="912" y="0" on="0"/>
        <pt x="899" y="0" on="1"/>
        <pt x="586" y="0" on="1"/>
        <pt x="575" y="0" on="0"/>
        <pt x="553" y="5" on="0"/>
        <pt x="536" y="18" on="0"/>
        <pt x="526" y="41" on="0"/>
        <pt x="526" y="60" on="1"/>
        <pt x="526" y="299" on="1"/>
        <pt x="222" y="299" on="1"/>
        <pt x="208" y="247" on="0"/>
        <pt x="194" y="129" on="0"/>
        <pt x="194" y="60" on="1"/>
        <pt x="194" y="22" on="0"/>
        <pt x="161" y="0" on="0"/>
        <pt x="139" y="0" on="1"/>
        <pt x="104" y="0" on="1"/>
        <pt x="104" y="60" on="1"/>
        <pt x="104" y="190" on="0"/>
        <pt x="149" y="389" on="0"/>
        <pt x="226" y="536" on="0"/>
        <pt x="328" y="634" on="0"/>
        <pt x="442" y="694" on="0"/>
        <pt x="561" y="720" on="0"/>
        <pt x="616" y="720" on="1"/>
        <pt x="650" y="720" on="0"/>
        <pt x="670" y="686" on="0"/>
        <pt x="670" y="666" on="1"/>
        <pt x="670" y="640" on="1"/>
        <pt x="616" y="640" on="1"/>
        <pt x="616" y="70" on="1"/>
      </contour>
      <contour>
        <pt x="526" y="630" on="1"/>
        <pt x="438" y="610" on="0"/>
        <pt x="292" y="485" on="0"/>
        <pt x="247" y="374" on="1"/>
        <pt x="526" y="374" on="1"/>
      </contour>
      <contour>
        <pt x="289" y="854" on="1"/>
        <pt x="289" y="879" on="0"/>
        <pt x="319" y="916" on="0"/>
        <pt x="350" y="916" on="1"/>
        <pt x="380" y="916" on="0"/>
        <pt x="412" y="879" on="0"/>
        <pt x="412" y="854" on="1"/>
        <pt x="412" y="828" on="0"/>
        <pt x="380" y="793" on="0"/>
        <pt x="350" y="793" on="1"/>
        <pt x="319" y="793" on="0"/>
        <pt x="289" y="828" on="0"/>
      </contour>
      <contour>
        <pt x="511" y="854" on="1"/>
        <pt x="511" y="879" on="0"/>
        <pt x="541" y="916" on="0"/>
        <pt x="572" y="916" on="1"/>
        <pt x="602" y="916" on="0"/>
        <pt x="634" y="879" on="0"/>
        <pt x="634" y="854" on="1"/>
        <pt x="634" y="828" on="0"/>
        <pt x="602" y="793" on="0"/>
        <pt x="572" y="793" on="1"/>
        <pt x="541" y="793" on="0"/>
        <pt x="511" y="828" on="0"/>
      </contour>
    </TTGlyph>
    <TTGlyph name="Agrave" xMin="104" yMin="0" xMax="969" yMax="942">
      <contour>
        <pt x="969" y="70" on="1"/>
        <pt x="969" y="48" on="0"/>
        <pt x="957" y="21" on="0"/>
        <pt x="937" y="6" on="0"/>
        <pt x="912" y="0" on="0"/>
        <pt x="899" y="0" on="1"/>
        <pt x="586" y="0" on="1"/>
        <pt x="575" y="0" on="0"/>
        <pt x="553" y="5" on="0"/>
        <pt x="536" y="18" on="0"/>
        <pt x="526" y="41" on="0"/>
        <pt x="526" y="60" on="1"/>
        <pt x="526" y="299" on="1"/>
        <pt x="222" y="299" on="1"/>
        <pt x="208" y="247" on="0"/>
        <pt x="194" y="129" on="0"/>
        <pt x="194" y="60" on="1"/>
        <pt x="194" y="22" on="0"/>
        <pt x="161" y="0" on="0"/>
        <pt x="139" y="0" on="1"/>
        <pt x="104" y="0" on="1"/>
        <pt x="104" y="60" on="1"/>
        <pt x="104" y="190" on="0"/>
        <pt x="149" y="389" on="0"/>
        <pt x="226" y="536" on="0"/>
        <pt x="328" y="634" on="0"/>
        <pt x="442" y="694" on="0"/>
        <pt x="561" y="720" on="0"/>
        <pt x="616" y="720" on="1"/>
        <pt x="650" y="720" on="0"/>
        <pt x="670" y="686" on="0"/>
        <pt x="670" y="666" on="1"/>
        <pt x="670" y="640" on="1"/>
        <pt x="616" y="640" on="1"/>
        <pt x="616" y="70" on="1"/>
      </contour>
      <contour>
        <pt x="526" y="630" on="1"/>
        <pt x="438" y="610" on="0"/>
        <pt x="292" y="485" on="0"/>
        <pt x="247" y="374" on="1"/>
        <pt x="526" y="374" on="1"/>
      </contour>
      <contour>
        <pt x="527" y="770" on="1"/>
        <pt x="492" y="776" on="0"/>
        <pt x="414" y="795" on="0"/>
        <pt x="346" y="819" on="0"/>
        <pt x="302" y="848" on="0"/>
        <pt x="302" y="865" on="1"/>
        <pt x="302" y="884" on="0"/>
        <pt x="327" y="922" on="1"/>
        <pt x="340" y="942" on="1"/>
        <pt x="549" y="811" on="1"/>
      </contour>
    </TTGlyph>
    <TTGlyph name="Aring" xMin="104" yMin="0" xMax="969" yMax="994">
      <contour>
        <pt x="969" y="70" on="1"/>
        <pt x="969" y="48" on="0"/>
        <pt x="957" y="21" on="0"/>
        <pt x="937" y="6" on="0"/>
        <pt x="912" y="0" on="0"/>
        <pt x="899" y="0" on="1"/>
        <pt x="586" y="0" on="1"/>
        <pt x="575" y="0" on="0"/>
        <pt x="553" y="5" on="0"/>
        <pt x="536" y="18" on="0"/>
        <pt x="526" y="41" on="0"/>
        <pt x="526" y="60" on="1"/>
        <pt x="526" y="299" on="1"/>
        <pt x="222" y="299" on="1"/>
        <pt x="208" y="247" on="0"/>
        <pt x="194" y="129" on="0"/>
        <pt x="194" y="60" on="1"/>
        <pt x="194" y="22" on="0"/>
        <pt x="161" y="0" on="0"/>
        <pt x="139" y="0" on="1"/>
        <pt x="104" y="0" on="1"/>
        <pt x="104" y="60" on="1"/>
        <pt x="104" y="190" on="0"/>
        <pt x="149" y="389" on="0"/>
        <pt x="226" y="536" on="0"/>
        <pt x="328" y="634" on="0"/>
        <pt x="442" y="694" on="0"/>
        <pt x="561" y="720" on="0"/>
        <pt x="616" y="720" on="1"/>
        <pt x="650" y="720" on="0"/>
        <pt x="670" y="686" on="0"/>
        <pt x="670" y="666" on="1"/>
        <pt x="670" y="640" on="1"/>
        <pt x="616" y="640" on="1"/>
        <pt x="616" y="70" on="1"/>
      </contour>
      <contour>
        <pt x="526" y="630" on="1"/>
        <pt x="438" y="610" on="0"/>
        <pt x="292" y="485" on="0"/>
        <pt x="247" y="374" on="1"/>
        <pt x="526" y="374" on="1"/>
      </contour>
      <contour>
        <pt x="426" y="761" on="1"/>
        <pt x="365" y="761" on="0"/>
        <pt x="307" y="827" on="0"/>
        <pt x="307" y="877" on="1"/>
        <pt x="307" y="928" on="0"/>
        <pt x="365" y="994" on="0"/>
        <pt x="426" y="994" on="1"/>
        <pt x="487" y="994" on="0"/>
        <pt x="545" y="928" on="0"/>
        <pt x="545" y="877" on="1"/>
        <pt x="545" y="827" on="0"/>
        <pt x="487" y="761" on="0"/>
      </contour>
      <contour>
        <pt x="426" y="825" on="1"/>
        <pt x="454" y="825" on="0"/>
        <pt x="480" y="854" on="0"/>
        <pt x="480" y="877" on="1"/>
        <pt x="480" y="900" on="0"/>
        <pt x="454" y="930" on="0"/>
        <pt x="426" y="930" on="1"/>
        <pt x="398" y="930" on="0"/>
        <pt x="372" y="900" on="0"/>
        <pt x="372" y="877" on="1"/>
        <pt x="372" y="854" on="0"/>
        <pt x="398" y="825" on="0"/>
      </contour>
    </TTGlyph>
    <TTGlyph name="Atilde" xMin="104" yMin="0" xMax="969" yMax="913">
      <contour>
        <pt x="969" y="70" on="1"/>
        <pt x="969" y="48" on="0"/>
        <pt x="957" y="21" on="0"/>
        <pt x="937" y="6" on="0"/>
        <pt x="912" y="0" on="0"/>
        <pt x="899" y="0" on="1"/>
        <pt x="586" y="0" on="1"/>
        <pt x="575" y="0" on="0"/>
        <pt x="553" y="5" on="0"/>
        <pt x="536" y="18" on="0"/>
        <pt x="526" y="41" on="0"/>
        <pt x="526" y="60" on="1"/>
        <pt x="526" y="299" on="1"/>
        <pt x="222" y="299" on="1"/>
        <pt x="208" y="247" on="0"/>
        <pt x="194" y="129" on="0"/>
        <pt x="194" y="60" on="1"/>
        <pt x="194" y="22" on="0"/>
        <pt x="161" y="0" on="0"/>
        <pt x="139" y="0" on="1"/>
        <pt x="104" y="0" on="1"/>
        <pt x="104" y="60" on="1"/>
        <pt x="104" y="190" on="0"/>
        <pt x="149" y="389" on="0"/>
        <pt x="226" y="536" on="0"/>
        <pt x="328" y="634" on="0"/>
        <pt x="442" y="694" on="0"/>
        <pt x="561" y="720" on="0"/>
        <pt x="616" y="720" on="1"/>
        <pt x="650" y="720" on="0"/>
        <pt x="670" y="686" on="0"/>
        <pt x="670" y="666" on="1"/>
        <pt x="670" y="640" on="1"/>
        <pt x="616" y="640" on="1"/>
        <pt x="616" y="70" on="1"/>
      </contour>
      <contour>
        <pt x="526" y="630" on="1"/>
        <pt x="438" y="610" on="0"/>
        <pt x="292" y="485" on="0"/>
        <pt x="247" y="374" on="1"/>
        <pt x="526" y="374" on="1"/>
      </contour>
      <contour>
        <pt x="357" y="885" on="1"/>
        <pt x="366" y="877" on="0"/>
        <pt x="385" y="866" on="0"/>
        <pt x="399" y="866" on="1"/>
        <pt x="417" y="866" on="0"/>
        <pt x="459" y="884" on="1"/>
        <pt x="493" y="899" on="1"/>
        <pt x="524" y="913" on="0"/>
        <pt x="555" y="913" on="1"/>
        <pt x="593" y="913" on="0"/>
        <pt x="643" y="870" on="0"/>
        <pt x="643" y="837" on="1"/>
        <pt x="643" y="827" on="0"/>
        <pt x="636" y="802" on="0"/>
        <pt x="622" y="786" on="1"/>
        <pt x="596" y="811" on="1"/>
        <pt x="587" y="819" on="0"/>
        <pt x="568" y="830" on="0"/>
        <pt x="554" y="830" on="1"/>
        <pt x="536" y="830" on="0"/>
        <pt x="494" y="812" on="1"/>
        <pt x="460" y="797" on="1"/>
        <pt x="429" y="783" on="0"/>
        <pt x="398" y="783" on="1"/>
        <pt x="360" y="783" on="0"/>
        <pt x="310" y="826" on="0"/>
        <pt x="310" y="859" on="1"/>
        <pt x="310" y="869" on="0"/>
        <pt x="317" y="894" on="0"/>
        <pt x="331" y="910" on="1"/>
      </contour>
    </TTGlyph>
    <TTGlyph name="B" xMin="90" yMin="0" xMax="923" yMax="710">
      <contour>
        <pt x="179" y="70" on="1"/>
        <pt x="262" y="70" on="0"/>
        <pt x="391" y="102" on="0"/>
        <pt x="487" y="153" on="0"/>
        <pt x="553" y="218" on="0"/>
        <pt x="593" y="284" on="0"/>
        <pt x="611" y="345" on="0"/>
        <pt x="611" y="367" on="1"/>
        <pt x="489" y="367" on="1"/>
        <pt x="469" y="356" on="0"/>
        <pt x="415" y="343" on="0"/>
        <pt x="390" y="343" on="1"/>
        <pt x="373" y="343" on="0"/>
        <pt x="339" y="353" on="0"/>
        <pt x="311" y="375" on="0"/>
        <pt x="294" y="411" on="0"/>
        <pt x="294" y="437" on="1"/>
        <pt x="427" y="437" on="1"/>
        <pt x="465" y="437" on="0"/>
        <pt x="519" y="470" on="0"/>
        <pt x="554" y="516" on="0"/>
        <pt x="570" y="565" on="0"/>
        <pt x="570" y="581" on="1"/>
        <pt x="570" y="612" on="0"/>
        <pt x="526" y="630" on="0"/>
        <pt x="468" y="630" on="1"/>
        <pt x="250" y="630" on="1"/>
        <pt x="250" y="180" on="1"/>
        <pt x="250" y="161" on="0"/>
        <pt x="239" y="138" on="0"/>
        <pt x="222" y="125" on="0"/>
        <pt x="200" y="120" on="0"/>
        <pt x="189" y="120" on="1"/>
        <pt x="160" y="120" on="1"/>
        <pt x="160" y="630" on="1"/>
        <pt x="90" y="630" on="1"/>
        <pt x="90" y="650" on="1"/>
        <pt x="90" y="669" on="0"/>
        <pt x="99" y="692" on="0"/>
        <pt x="113" y="705" on="0"/>
        <pt x="130" y="710" on="0"/>
        <pt x="139" y="710" on="1"/>
        <pt x="468" y="710" on="1"/>
        <pt x="522" y="710" on="0"/>
        <pt x="596" y="700" on="0"/>
        <pt x="641" y="672" on="0"/>
        <pt x="660" y="621" on="0"/>
        <pt x="660" y="581" on="1"/>
        <pt x="660" y="552" on="0"/>
        <pt x="623" y="470" on="0"/>
        <pt x="583" y="437" on="1"/>
        <pt x="601" y="437" on="1"/>
        <pt x="620" y="437" on="0"/>
        <pt x="653" y="432" on="0"/>
        <pt x="677" y="415" on="0"/>
        <pt x="691" y="383" on="0"/>
        <pt x="691" y="357" on="1"/>
        <pt x="691" y="322" on="0"/>
        <pt x="666" y="245" on="0"/>
        <pt x="614" y="168" on="0"/>
        <pt x="535" y="98" on="0"/>
        <pt x="482" y="70" on="1"/>
        <pt x="923" y="70" on="1"/>
        <pt x="923" y="48" on="0"/>
        <pt x="911" y="21" on="0"/>
        <pt x="891" y="6" on="0"/>
        <pt x="866" y="0" on="0"/>
        <pt x="853" y="0" on="1"/>
        <pt x="166" y="0" on="1"/>
        <pt x="155" y="0" on="0"/>
        <pt x="133" y="5" on="0"/>
        <pt x="116" y="18" on="0"/>
        <pt x="106" y="41" on="0"/>
        <pt x="106" y="60" on="1"/>
        <pt x="106" y="70" on="1"/>
      </contour>
    </TTGlyph>
    <TTGlyph name="C" xMin="85" yMin="0" xMax="745" yMax="720">
      <contour>
        <pt x="745" y="70" on="1"/>
        <pt x="745" y="48" on="0"/>
        <pt x="733" y="21" on="0"/>
        <pt x="713" y="6" on="0"/>
        <pt x="688" y="0" on="0"/>
        <pt x="675" y="0" on="1"/>
        <pt x="175" y="0" on="1"/>
        <pt x="156" y="0" on="0"/>
        <pt x="123" y="5" on="0"/>
        <pt x="99" y="22" on="0"/>
        <pt x="85" y="54" on="0"/>
        <pt x="85" y="80" on="1"/>
        <pt x="85" y="257" on="0"/>
        <pt x="163" y="502" on="0"/>
        <pt x="289" y="653" on="0"/>
        <pt x="449" y="720" on="0"/>
        <pt x="532" y="720" on="1"/>
        <pt x="566" y="720" on="0"/>
        <pt x="586" y="686" on="0"/>
        <pt x="586" y="666" on="1"/>
        <pt x="586" y="640" on="1"/>
        <pt x="532" y="640" on="1"/>
        <pt x="446" y="640" on="0"/>
        <pt x="313" y="563" on="0"/>
        <pt x="222" y="417" on="0"/>
        <pt x="175" y="205" on="0"/>
        <pt x="175" y="70" on="1"/>
      </contour>
    </TTGlyph>
    <TTGlyph name="Ccedilla" xMin="85" yMin="-310" xMax="745" yMax="720">
      <contour>
        <pt x="745" y="70" on="1"/>
        <pt x="745" y="48" on="0"/>
        <pt x="733" y="21" on="0"/>
        <pt x="713" y="6" on="0"/>
        <pt x="688" y="0" on="0"/>
        <pt x="675" y="0" on="1"/>
        <pt x="362" y="0" on="1"/>
        <pt x="344" y="-93" on="1"/>
        <pt x="433" y="-93" on="1"/>
        <pt x="459" y="-93" on="0"/>
        <pt x="484" y="-129" on="0"/>
        <pt x="484" y="-149" on="1"/>
        <pt x="484" y="-225" on="0"/>
        <pt x="389" y="-310" on="0"/>
        <pt x="301" y="-310" on="1"/>
        <pt x="288" y="-310" on="0"/>
        <pt x="272" y="-305" on="0"/>
        <pt x="263" y="-291" on="0"/>
        <pt x="260" y="-264" on="0"/>
        <pt x="260" y="-243" on="1"/>
        <pt x="281" y="-243" on="1"/>
        <pt x="349" y="-243" on="0"/>
        <pt x="403" y="-208" on="0"/>
        <pt x="403" y="-160" on="1"/>
        <pt x="308" y="-160" on="1"/>
        <pt x="291" y="-160" on="0"/>
        <pt x="278" y="-147" on="0"/>
        <pt x="278" y="-134" on="1"/>
        <pt x="278" y="-132" on="0"/>
        <pt x="279" y="-124" on="0"/>
        <pt x="283" y="-98" on="0"/>
        <pt x="293" y="-46" on="0"/>
        <pt x="302" y="0" on="1"/>
        <pt x="175" y="0" on="1"/>
        <pt x="156" y="0" on="0"/>
        <pt x="123" y="5" on="0"/>
        <pt x="99" y="22" on="0"/>
        <pt x="85" y="54" on="0"/>
        <pt x="85" y="80" on="1"/>
        <pt x="85" y="257" on="0"/>
        <pt x="163" y="502" on="0"/>
        <pt x="289" y="653" on="0"/>
        <pt x="449" y="720" on="0"/>
        <pt x="532" y="720" on="1"/>
        <pt x="566" y="720" on="0"/>
        <pt x="586" y="686" on="0"/>
        <pt x="586" y="666" on="1"/>
        <pt x="586" y="640" on="1"/>
        <pt x="532" y="640" on="1"/>
        <pt x="446" y="640" on="0"/>
        <pt x="313" y="563" on="0"/>
        <pt x="222" y="417" on="0"/>
        <pt x="175" y="205" on="0"/>
        <pt x="175" y="70" on="1"/>
      </contour>
    </TTGlyph>
    <TTGlyph name="D" xMin="90" yMin="0" xMax="903" yMax="720">
      <contour>
        <pt x="671" y="219" on="1"/>
        <pt x="671" y="177" on="0"/>
        <pt x="639" y="97" on="0"/>
        <pt x="594" y="70" on="1"/>
        <pt x="903" y="70" on="1"/>
        <pt x="903" y="48" on="0"/>
        <pt x="891" y="21" on="0"/>
        <pt x="871" y="6" on="0"/>
        <pt x="846" y="0" on="0"/>
        <pt x="833" y="0" on="1"/>
        <pt x="150" y="0" on="1"/>
        <pt x="139" y="0" on="0"/>
        <pt x="117" y="5" on="0"/>
        <pt x="100" y="18" on="0"/>
        <pt x="90" y="41" on="0"/>
        <pt x="90" y="60" on="1"/>
        <pt x="90" y="70" on="1"/>
        <pt x="419" y="70" on="1"/>
        <pt x="465" y="70" on="0"/>
        <pt x="527" y="99" on="0"/>
        <pt x="565" y="143" on="0"/>
        <pt x="581" y="195" on="0"/>
        <pt x="581" y="219" on="1"/>
        <pt x="581" y="277" on="0"/>
        <pt x="547" y="403" on="0"/>
        <pt x="469" y="516" on="0"/>
        <pt x="342" y="604" on="0"/>
        <pt x="250" y="625" on="1"/>
        <pt x="250" y="180" on="1"/>
        <pt x="250" y="161" on="0"/>
        <pt x="239" y="138" on="0"/>
        <pt x="222" y="125" on="0"/>
        <pt x="200" y="120" on="0"/>
        <pt x="189" y="120" on="1"/>
        <pt x="160" y="120" on="1"/>
        <pt x="160" y="638" on="1"/>
        <pt x="146" y="639" on="0"/>
        <pt x="120" y="640" on="0"/>
        <pt x="106" y="640" on="1"/>
        <pt x="106" y="660" on="1"/>
        <pt x="106" y="697" on="0"/>
        <pt x="143" y="720" on="0"/>
        <pt x="166" y="720" on="1"/>
        <pt x="263" y="720" on="0"/>
        <pt x="445" y="645" on="0"/>
        <pt x="586" y="511" on="0"/>
        <pt x="671" y="327" on="0"/>
      </contour>
    </TTGlyph>
    <TTGlyph name="Delta" xMin="90" yMin="0" xMax="652" yMax="710">
      <contour>
        <pt x="90" y="0" on="1"/>
        <pt x="294" y="650" on="1"/>
        <pt x="300" y="670" on="0"/>
        <pt x="314" y="694" on="0"/>
        <pt x="332" y="706" on="0"/>
        <pt x="355" y="710" on="0"/>
        <pt x="371" y="710" on="1"/>
        <pt x="387" y="710" on="0"/>
        <pt x="410" y="706" on="0"/>
        <pt x="428" y="694" on="0"/>
        <pt x="442" y="670" on="0"/>
        <pt x="448" y="650" on="1"/>
        <pt x="652" y="0" on="1"/>
      </contour>
      <contour>
        <pt x="183" y="57" on="1"/>
        <pt x="559" y="57" on="1"/>
        <pt x="371" y="650" on="1"/>
      </contour>
    </TTGlyph>
    <TTGlyph name="E" xMin="153" yMin="0" xMax="883" yMax="720">
      <contour>
        <pt x="883" y="70" on="1"/>
        <pt x="883" y="48" on="0"/>
        <pt x="871" y="21" on="0"/>
        <pt x="851" y="6" on="0"/>
        <pt x="826" y="0" on="0"/>
        <pt x="813" y="0" on="1"/>
        <pt x="243" y="0" on="1"/>
        <pt x="224" y="0" on="0"/>
        <pt x="191" y="5" on="0"/>
        <pt x="167" y="22" on="0"/>
        <pt x="153" y="54" on="0"/>
        <pt x="153" y="80" on="1"/>
        <pt x="153" y="102" on="0"/>
        <pt x="166" y="157" on="0"/>
        <pt x="192" y="215" on="0"/>
        <pt x="230" y="273" on="0"/>
        <pt x="256" y="299" on="1"/>
        <pt x="238" y="299" on="0"/>
        <pt x="208" y="306" on="0"/>
        <pt x="186" y="323" on="0"/>
        <pt x="173" y="354" on="0"/>
        <pt x="173" y="379" on="1"/>
        <pt x="173" y="415" on="0"/>
        <pt x="206" y="494" on="0"/>
        <pt x="267" y="570" on="0"/>
        <pt x="353" y="638" on="0"/>
        <pt x="459" y="690" on="0"/>
        <pt x="582" y="720" on="0"/>
        <pt x="650" y="720" on="1"/>
        <pt x="684" y="720" on="0"/>
        <pt x="704" y="686" on="0"/>
        <pt x="704" y="666" on="1"/>
        <pt x="704" y="640" on="1"/>
        <pt x="650" y="640" on="1"/>
        <pt x="545" y="640" on="0"/>
        <pt x="395" y="582" on="0"/>
        <pt x="299" y="498" on="0"/>
        <pt x="253" y="407" on="0"/>
        <pt x="253" y="374" on="1"/>
        <pt x="360" y="374" on="1"/>
        <pt x="389" y="388" on="0"/>
        <pt x="456" y="403" on="0"/>
        <pt x="494" y="403" on="1"/>
        <pt x="511" y="403" on="0"/>
        <pt x="545" y="393" on="0"/>
        <pt x="573" y="369" on="0"/>
        <pt x="590" y="329" on="0"/>
        <pt x="590" y="299" on="1"/>
        <pt x="388" y="299" on="1"/>
        <pt x="344" y="276" on="0"/>
        <pt x="284" y="216" on="0"/>
        <pt x="248" y="153" on="0"/>
        <pt x="233" y="93" on="0"/>
        <pt x="233" y="70" on="1"/>
      </contour>
    </TTGlyph>
    <TTGlyph name="Eacute" xMin="153" yMin="0" xMax="883" yMax="942">
      <contour>
        <pt x="883" y="70" on="1"/>
        <pt x="883" y="48" on="0"/>
        <pt x="871" y="21" on="0"/>
        <pt x="851" y="6" on="0"/>
        <pt x="826" y="0" on="0"/>
        <pt x="813" y="0" on="1"/>
        <pt x="243" y="0" on="1"/>
        <pt x="224" y="0" on="0"/>
        <pt x="191" y="5" on="0"/>
        <pt x="167" y="22" on="0"/>
        <pt x="153" y="54" on="0"/>
        <pt x="153" y="80" on="1"/>
        <pt x="153" y="102" on="0"/>
        <pt x="166" y="157" on="0"/>
        <pt x="192" y="215" on="0"/>
        <pt x="230" y="273" on="0"/>
        <pt x="256" y="299" on="1"/>
        <pt x="238" y="299" on="0"/>
        <pt x="208" y="306" on="0"/>
        <pt x="186" y="323" on="0"/>
        <pt x="173" y="354" on="0"/>
        <pt x="173" y="379" on="1"/>
        <pt x="173" y="415" on="0"/>
        <pt x="206" y="494" on="0"/>
        <pt x="267" y="570" on="0"/>
        <pt x="353" y="638" on="0"/>
        <pt x="459" y="690" on="0"/>
        <pt x="582" y="720" on="0"/>
        <pt x="650" y="720" on="1"/>
        <pt x="684" y="720" on="0"/>
        <pt x="704" y="686" on="0"/>
        <pt x="704" y="666" on="1"/>
        <pt x="704" y="640" on="1"/>
        <pt x="650" y="640" on="1"/>
        <pt x="545" y="640" on="0"/>
        <pt x="395" y="582" on="0"/>
        <pt x="299" y="498" on="0"/>
        <pt x="253" y="407" on="0"/>
        <pt x="253" y="374" on="1"/>
        <pt x="360" y="374" on="1"/>
        <pt x="389" y="388" on="0"/>
        <pt x="456" y="403" on="0"/>
        <pt x="494" y="403" on="1"/>
        <pt x="511" y="403" on="0"/>
        <pt x="545" y="393" on="0"/>
        <pt x="573" y="369" on="0"/>
        <pt x="590" y="329" on="0"/>
        <pt x="590" y="299" on="1"/>
        <pt x="388" y="299" on="1"/>
        <pt x="344" y="276" on="0"/>
        <pt x="284" y="216" on="0"/>
        <pt x="248" y="153" on="0"/>
        <pt x="233" y="93" on="0"/>
        <pt x="233" y="70" on="1"/>
      </contour>
      <contour>
        <pt x="355" y="811" on="1"/>
        <pt x="565" y="942" on="1"/>
        <pt x="578" y="922" on="1"/>
        <pt x="602" y="885" on="0"/>
        <pt x="602" y="865" on="1"/>
        <pt x="602" y="848" on="0"/>
        <pt x="558" y="819" on="0"/>
        <pt x="491" y="795" on="0"/>
        <pt x="412" y="776" on="0"/>
        <pt x="378" y="770" on="1"/>
      </contour>
    </TTGlyph>
    <TTGlyph name="Ecircumflex" xMin="153" yMin="0" xMax="883" yMax="942">
      <contour>
        <pt x="883" y="70" on="1"/>
        <pt x="883" y="48" on="0"/>
        <pt x="871" y="21" on="0"/>
        <pt x="851" y="6" on="0"/>
        <pt x="826" y="0" on="0"/>
        <pt x="813" y="0" on="1"/>
        <pt x="243" y="0" on="1"/>
        <pt x="224" y="0" on="0"/>
        <pt x="191" y="5" on="0"/>
        <pt x="167" y="22" on="0"/>
        <pt x="153" y="54" on="0"/>
        <pt x="153" y="80" on="1"/>
        <pt x="153" y="102" on="0"/>
        <pt x="166" y="157" on="0"/>
        <pt x="192" y="215" on="0"/>
        <pt x="230" y="273" on="0"/>
        <pt x="256" y="299" on="1"/>
        <pt x="238" y="299" on="0"/>
        <pt x="208" y="306" on="0"/>
        <pt x="186" y="323" on="0"/>
        <pt x="173" y="354" on="0"/>
        <pt x="173" y="379" on="1"/>
        <pt x="173" y="415" on="0"/>
        <pt x="206" y="494" on="0"/>
        <pt x="267" y="570" on="0"/>
        <pt x="353" y="638" on="0"/>
        <pt x="459" y="690" on="0"/>
        <pt x="582" y="720" on="0"/>
        <pt x="650" y="720" on="1"/>
        <pt x="684" y="720" on="0"/>
        <pt x="704" y="686" on="0"/>
        <pt x="704" y="666" on="1"/>
        <pt x="704" y="640" on="1"/>
        <pt x="650" y="640" on="1"/>
        <pt x="545" y="640" on="0"/>
        <pt x="395" y="582" on="0"/>
        <pt x="299" y="498" on="0"/>
        <pt x="253" y="407" on="0"/>
        <pt x="253" y="374" on="1"/>
        <pt x="360" y="374" on="1"/>
        <pt x="389" y="388" on="0"/>
        <pt x="456" y="403" on="0"/>
        <pt x="494" y="403" on="1"/>
        <pt x="511" y="403" on="0"/>
        <pt x="545" y="393" on="0"/>
        <pt x="573" y="369" on="0"/>
        <pt x="590" y="329" on="0"/>
        <pt x="590" y="299" on="1"/>
        <pt x="388" y="299" on="1"/>
        <pt x="344" y="276" on="0"/>
        <pt x="284" y="216" on="0"/>
        <pt x="248" y="153" on="0"/>
        <pt x="233" y="93" on="0"/>
        <pt x="233" y="70" on="1"/>
      </contour>
      <contour>
        <pt x="591" y="771" on="1"/>
        <pt x="569" y="775" on="0"/>
        <pt x="526" y="793" on="0"/>
        <pt x="488" y="814" on="0"/>
        <pt x="458" y="836" on="0"/>
        <pt x="450" y="845" on="1"/>
        <pt x="432" y="824" on="0"/>
        <pt x="355" y="781" on="0"/>
        <pt x="309" y="771" on="1"/>
        <pt x="285" y="811" on="1"/>
        <pt x="430" y="942" on="1"/>
        <pt x="470" y="942" on="1"/>
        <pt x="615" y="811" on="1"/>
      </contour>
    </TTGlyph>
    <TTGlyph name="Edieresis" xMin="153" yMin="0" xMax="883" yMax="916">
      <contour>
        <pt x="883" y="70" on="1"/>
        <pt x="883" y="48" on="0"/>
        <pt x="871" y="21" on="0"/>
        <pt x="851" y="6" on="0"/>
        <pt x="826" y="0" on="0"/>
        <pt x="813" y="0" on="1"/>
        <pt x="243" y="0" on="1"/>
        <pt x="224" y="0" on="0"/>
        <pt x="191" y="5" on="0"/>
        <pt x="167" y="22" on="0"/>
        <pt x="153" y="54" on="0"/>
        <pt x="153" y="80" on="1"/>
        <pt x="153" y="102" on="0"/>
        <pt x="166" y="157" on="0"/>
        <pt x="192" y="215" on="0"/>
        <pt x="230" y="273" on="0"/>
        <pt x="256" y="299" on="1"/>
        <pt x="238" y="299" on="0"/>
        <pt x="208" y="306" on="0"/>
        <pt x="186" y="323" on="0"/>
        <pt x="173" y="354" on="0"/>
        <pt x="173" y="379" on="1"/>
        <pt x="173" y="415" on="0"/>
        <pt x="206" y="494" on="0"/>
        <pt x="267" y="570" on="0"/>
        <pt x="353" y="638" on="0"/>
        <pt x="459" y="690" on="0"/>
        <pt x="582" y="720" on="0"/>
        <pt x="650" y="720" on="1"/>
        <pt x="684" y="720" on="0"/>
        <pt x="704" y="686" on="0"/>
        <pt x="704" y="666" on="1"/>
        <pt x="704" y="640" on="1"/>
        <pt x="650" y="640" on="1"/>
        <pt x="545" y="640" on="0"/>
        <pt x="395" y="582" on="0"/>
        <pt x="299" y="498" on="0"/>
        <pt x="253" y="407" on="0"/>
        <pt x="253" y="374" on="1"/>
        <pt x="360" y="374" on="1"/>
        <pt x="389" y="388" on="0"/>
        <pt x="456" y="403" on="0"/>
        <pt x="494" y="403" on="1"/>
        <pt x="511" y="403" on="0"/>
        <pt x="545" y="393" on="0"/>
        <pt x="573" y="369" on="0"/>
        <pt x="590" y="329" on="0"/>
        <pt x="590" y="299" on="1"/>
        <pt x="388" y="299" on="1"/>
        <pt x="344" y="276" on="0"/>
        <pt x="284" y="216" on="0"/>
        <pt x="248" y="153" on="0"/>
        <pt x="233" y="93" on="0"/>
        <pt x="233" y="70" on="1"/>
      </contour>
      <contour>
        <pt x="276" y="854" on="1"/>
        <pt x="276" y="879" on="0"/>
        <pt x="306" y="916" on="0"/>
        <pt x="337" y="916" on="1"/>
        <pt x="367" y="916" on="0"/>
        <pt x="399" y="879" on="0"/>
        <pt x="399" y="854" on="1"/>
        <pt x="399" y="828" on="0"/>
        <pt x="367" y="793" on="0"/>
        <pt x="337" y="793" on="1"/>
        <pt x="306" y="793" on="0"/>
        <pt x="276" y="828" on="0"/>
      </contour>
      <contour>
        <pt x="498" y="854" on="1"/>
        <pt x="498" y="879" on="0"/>
        <pt x="528" y="916" on="0"/>
        <pt x="559" y="916" on="1"/>
        <pt x="589" y="916" on="0"/>
        <pt x="621" y="879" on="0"/>
        <pt x="621" y="854" on="1"/>
        <pt x="621" y="828" on="0"/>
        <pt x="589" y="793" on="0"/>
        <pt x="559" y="793" on="1"/>
        <pt x="528" y="793" on="0"/>
        <pt x="498" y="828" on="0"/>
      </contour>
    </TTGlyph>
    <TTGlyph name="Egrave" xMin="153" yMin="0" xMax="883" yMax="942">
      <contour>
        <pt x="883" y="70" on="1"/>
        <pt x="883" y="48" on="0"/>
        <pt x="871" y="21" on="0"/>
        <pt x="851" y="6" on="0"/>
        <pt x="826" y="0" on="0"/>
        <pt x="813" y="0" on="1"/>
        <pt x="243" y="0" on="1"/>
        <pt x="224" y="0" on="0"/>
        <pt x="191" y="5" on="0"/>
        <pt x="167" y="22" on="0"/>
        <pt x="153" y="54" on="0"/>
        <pt x="153" y="80" on="1"/>
        <pt x="153" y="102" on="0"/>
        <pt x="166" y="157" on="0"/>
        <pt x="192" y="215" on="0"/>
        <pt x="230" y="273" on="0"/>
        <pt x="256" y="299" on="1"/>
        <pt x="238" y="299" on="0"/>
        <pt x="208" y="306" on="0"/>
        <pt x="186" y="323" on="0"/>
        <pt x="173" y="354" on="0"/>
        <pt x="173" y="379" on="1"/>
        <pt x="173" y="415" on="0"/>
        <pt x="206" y="494" on="0"/>
        <pt x="267" y="570" on="0"/>
        <pt x="353" y="638" on="0"/>
        <pt x="459" y="690" on="0"/>
        <pt x="582" y="720" on="0"/>
        <pt x="650" y="720" on="1"/>
        <pt x="684" y="720" on="0"/>
        <pt x="704" y="686" on="0"/>
        <pt x="704" y="666" on="1"/>
        <pt x="704" y="640" on="1"/>
        <pt x="650" y="640" on="1"/>
        <pt x="545" y="640" on="0"/>
        <pt x="395" y="582" on="0"/>
        <pt x="299" y="498" on="0"/>
        <pt x="253" y="407" on="0"/>
        <pt x="253" y="374" on="1"/>
        <pt x="360" y="374" on="1"/>
        <pt x="389" y="388" on="0"/>
        <pt x="456" y="403" on="0"/>
        <pt x="494" y="403" on="1"/>
        <pt x="511" y="403" on="0"/>
        <pt x="545" y="393" on="0"/>
        <pt x="573" y="369" on="0"/>
        <pt x="590" y="329" on="0"/>
        <pt x="590" y="299" on="1"/>
        <pt x="388" y="299" on="1"/>
        <pt x="344" y="276" on="0"/>
        <pt x="284" y="216" on="0"/>
        <pt x="248" y="153" on="0"/>
        <pt x="233" y="93" on="0"/>
        <pt x="233" y="70" on="1"/>
      </contour>
      <contour>
        <pt x="579" y="770" on="1"/>
        <pt x="544" y="776" on="0"/>
        <pt x="466" y="795" on="0"/>
        <pt x="398" y="819" on="0"/>
        <pt x="354" y="848" on="0"/>
        <pt x="354" y="865" on="1"/>
        <pt x="354" y="884" on="0"/>
        <pt x="379" y="922" on="1"/>
        <pt x="392" y="942" on="1"/>
        <pt x="601" y="811" on="1"/>
      </contour>
    </TTGlyph>
    <TTGlyph name="Eth" xMin="65" yMin="0" xMax="903" yMax="720">
      <contour>
        <pt x="671" y="219" on="1"/>
        <pt x="671" y="177" on="0"/>
        <pt x="639" y="97" on="0"/>
        <pt x="594" y="70" on="1"/>
        <pt x="903" y="70" on="1"/>
        <pt x="903" y="48" on="0"/>
        <pt x="891" y="21" on="0"/>
        <pt x="871" y="6" on="0"/>
        <pt x="846" y="0" on="0"/>
        <pt x="833" y="0" on="1"/>
        <pt x="150" y="0" on="1"/>
        <pt x="139" y="0" on="0"/>
        <pt x="117" y="5" on="0"/>
        <pt x="100" y="18" on="0"/>
        <pt x="90" y="41" on="0"/>
        <pt x="90" y="60" on="1"/>
        <pt x="90" y="70" on="1"/>
        <pt x="419" y="70" on="1"/>
        <pt x="465" y="70" on="0"/>
        <pt x="527" y="99" on="0"/>
        <pt x="565" y="143" on="0"/>
        <pt x="581" y="195" on="0"/>
        <pt x="581" y="219" on="1"/>
        <pt x="581" y="277" on="0"/>
        <pt x="547" y="403" on="0"/>
        <pt x="469" y="516" on="0"/>
        <pt x="342" y="604" on="0"/>
        <pt x="250" y="625" on="1"/>
        <pt x="250" y="390" on="1"/>
        <pt x="433" y="390" on="1"/>
        <pt x="433" y="356" on="0"/>
        <pt x="412" y="320" on="0"/>
        <pt x="379" y="320" on="1"/>
        <pt x="250" y="320" on="1"/>
        <pt x="250" y="180" on="1"/>
        <pt x="250" y="161" on="0"/>
        <pt x="239" y="138" on="0"/>
        <pt x="222" y="125" on="0"/>
        <pt x="200" y="120" on="0"/>
        <pt x="189" y="120" on="1"/>
        <pt x="160" y="120" on="1"/>
        <pt x="160" y="320" on="1"/>
        <pt x="65" y="320" on="1"/>
        <pt x="65" y="354" on="0"/>
        <pt x="85" y="390" on="0"/>
        <pt x="119" y="390" on="1"/>
        <pt x="160" y="390" on="1"/>
        <pt x="160" y="638" on="1"/>
        <pt x="146" y="639" on="0"/>
        <pt x="120" y="640" on="0"/>
        <pt x="106" y="640" on="1"/>
        <pt x="106" y="660" on="1"/>
        <pt x="106" y="697" on="0"/>
        <pt x="143" y="720" on="0"/>
        <pt x="166" y="720" on="1"/>
        <pt x="263" y="720" on="0"/>
        <pt x="445" y="645" on="0"/>
        <pt x="586" y="511" on="0"/>
        <pt x="671" y="327" on="0"/>
      </contour>
    </TTGlyph>
    <TTGlyph name="Euro" xMin="75" yMin="0" xMax="544" yMax="710">
      <contour>
        <pt x="233" y="240" on="1"/>
        <pt x="242" y="208" on="0"/>
        <pt x="278" y="150" on="0"/>
        <pt x="337" y="106" on="0"/>
        <pt x="424" y="80" on="0"/>
        <pt x="484" y="80" on="1"/>
        <pt x="544" y="80" on="1"/>
        <pt x="544" y="54" on="1"/>
        <pt x="544" y="34" on="0"/>
        <pt x="524" y="0" on="0"/>
        <pt x="490" y="0" on="1"/>
        <pt x="408" y="0" on="0"/>
        <pt x="288" y="37" on="0"/>
        <pt x="204" y="102" on="0"/>
        <pt x="154" y="189" on="0"/>
        <pt x="142" y="240" on="1"/>
        <pt x="75" y="240" on="1"/>
        <pt x="75" y="274" on="0"/>
        <pt x="95" y="310" on="0"/>
        <pt x="129" y="310" on="1"/>
        <pt x="131" y="310" on="1"/>
        <pt x="130" y="321" on="0"/>
        <pt x="130" y="342" on="0"/>
        <pt x="130" y="353" on="1"/>
        <pt x="130" y="365" on="0"/>
        <pt x="130" y="388" on="0"/>
        <pt x="132" y="400" on="1"/>
        <pt x="75" y="400" on="1"/>
        <pt x="75" y="434" on="0"/>
        <pt x="95" y="470" on="0"/>
        <pt x="129" y="470" on="1"/>
        <pt x="143" y="470" on="1"/>
        <pt x="155" y="520" on="0"/>
        <pt x="206" y="608" on="0"/>
        <pt x="289" y="673" on="0"/>
        <pt x="409" y="710" on="0"/>
        <pt x="490" y="710" on="1"/>
        <pt x="524" y="710" on="0"/>
        <pt x="544" y="676" on="0"/>
        <pt x="544" y="656" on="1"/>
        <pt x="544" y="630" on="1"/>
        <pt x="484" y="630" on="1"/>
        <pt x="424" y="630" on="0"/>
        <pt x="338" y="604" on="0"/>
        <pt x="279" y="560" on="0"/>
        <pt x="243" y="502" on="0"/>
        <pt x="234" y="470" on="1"/>
        <pt x="443" y="470" on="1"/>
        <pt x="443" y="436" on="0"/>
        <pt x="422" y="400" on="0"/>
        <pt x="389" y="400" on="1"/>
        <pt x="221" y="400" on="1"/>
        <pt x="219" y="388" on="0"/>
        <pt x="219" y="364" on="0"/>
        <pt x="219" y="353" on="1"/>
        <pt x="219" y="342" on="0"/>
        <pt x="219" y="321" on="0"/>
        <pt x="220" y="310" on="1"/>
        <pt x="443" y="310" on="1"/>
        <pt x="443" y="276" on="0"/>
        <pt x="422" y="240" on="0"/>
        <pt x="389" y="240" on="1"/>
      </contour>
    </TTGlyph>
    <TTGlyph name="F" xMin="-43" yMin="-310" xMax="757" yMax="720">
      <contour>
        <pt x="190" y="299" on="1"/>
        <pt x="60" y="299" on="1"/>
        <pt x="60" y="339" on="0"/>
        <pt x="104" y="374" on="0"/>
        <pt x="130" y="374" on="1"/>
        <pt x="190" y="374" on="1"/>
        <pt x="190" y="413" on="0"/>
        <pt x="202" y="495" on="0"/>
        <pt x="232" y="571" on="0"/>
        <pt x="282" y="640" on="0"/>
        <pt x="358" y="690" on="0"/>
        <pt x="462" y="720" on="0"/>
        <pt x="531" y="720" on="1"/>
        <pt x="548" y="720" on="0"/>
        <pt x="577" y="697" on="0"/>
        <pt x="577" y="660" on="1"/>
        <pt x="577" y="640" on="1"/>
        <pt x="525" y="640" on="1"/>
        <pt x="467" y="640" on="0"/>
        <pt x="386" y="613" on="0"/>
        <pt x="332" y="568" on="0"/>
        <pt x="300" y="512" on="0"/>
        <pt x="284" y="453" on="0"/>
        <pt x="280" y="396" on="0"/>
        <pt x="280" y="374" on="1"/>
        <pt x="757" y="374" on="1"/>
        <pt x="757" y="352" on="0"/>
        <pt x="745" y="323" on="0"/>
        <pt x="725" y="306" on="0"/>
        <pt x="700" y="299" on="0"/>
        <pt x="687" y="299" on="1"/>
        <pt x="280" y="299" on="1"/>
        <pt x="280" y="0" on="1"/>
        <pt x="280" y="-85" on="0"/>
        <pt x="250" y="-203" on="0"/>
        <pt x="185" y="-277" on="0"/>
        <pt x="84" y="-310" on="0"/>
        <pt x="13" y="-310" on="1"/>
        <pt x="-19" y="-310" on="0"/>
        <pt x="-43" y="-278" on="0"/>
        <pt x="-43" y="-241" on="1"/>
        <pt x="-43" y="-230" on="1"/>
        <pt x="13" y="-230" on="1"/>
        <pt x="58" y="-230" on="0"/>
        <pt x="125" y="-217" on="0"/>
        <pt x="168" y="-169" on="0"/>
        <pt x="190" y="-77" on="0"/>
        <pt x="190" y="2" on="1"/>
      </contour>
    </TTGlyph>
    <TTGlyph name="G" xMin="85" yMin="-310" xMax="905" yMax="720">
      <contour>
        <pt x="495" y="70" on="1"/>
        <pt x="495" y="320" on="1"/>
        <pt x="495" y="328" on="0"/>
        <pt x="507" y="340" on="0"/>
        <pt x="515" y="340" on="1"/>
        <pt x="564" y="340" on="1"/>
        <pt x="572" y="340" on="0"/>
        <pt x="584" y="328" on="0"/>
        <pt x="585" y="320" on="1"/>
        <pt x="585" y="70" on="1"/>
        <pt x="905" y="70" on="1"/>
        <pt x="905" y="48" on="0"/>
        <pt x="893" y="21" on="0"/>
        <pt x="873" y="6" on="0"/>
        <pt x="848" y="0" on="0"/>
        <pt x="835" y="0" on="1"/>
        <pt x="584" y="0" on="1"/>
        <pt x="582" y="-92" on="0"/>
        <pt x="549" y="-212" on="0"/>
        <pt x="485" y="-282" on="0"/>
        <pt x="386" y="-310" on="0"/>
        <pt x="318" y="-310" on="1"/>
        <pt x="286" y="-310" on="0"/>
        <pt x="262" y="-278" on="0"/>
        <pt x="262" y="-241" on="1"/>
        <pt x="262" y="-230" on="1"/>
        <pt x="318" y="-230" on="1"/>
        <pt x="363" y="-230" on="0"/>
        <pt x="428" y="-217" on="0"/>
        <pt x="471" y="-169" on="0"/>
        <pt x="492" y="-78" on="0"/>
        <pt x="494" y="0" on="1"/>
        <pt x="175" y="0" on="1"/>
        <pt x="156" y="0" on="0"/>
        <pt x="123" y="5" on="0"/>
        <pt x="99" y="22" on="0"/>
        <pt x="85" y="54" on="0"/>
        <pt x="85" y="80" on="1"/>
        <pt x="85" y="257" on="0"/>
        <pt x="163" y="502" on="0"/>
        <pt x="289" y="653" on="0"/>
        <pt x="449" y="720" on="0"/>
        <pt x="532" y="720" on="1"/>
        <pt x="566" y="720" on="0"/>
        <pt x="586" y="686" on="0"/>
        <pt x="586" y="666" on="1"/>
        <pt x="586" y="640" on="1"/>
        <pt x="532" y="640" on="1"/>
        <pt x="446" y="640" on="0"/>
        <pt x="313" y="563" on="0"/>
        <pt x="222" y="417" on="0"/>
        <pt x="175" y="205" on="0"/>
        <pt x="175" y="70" on="1"/>
      </contour>
    </TTGlyph>
    <TTGlyph name="H" xMin="160" yMin="0" xMax="997" yMax="710">
      <contour>
        <pt x="677" y="70" on="1"/>
        <pt x="997" y="70" on="1"/>
        <pt x="997" y="48" on="0"/>
        <pt x="985" y="21" on="0"/>
        <pt x="965" y="6" on="0"/>
        <pt x="940" y="0" on="0"/>
        <pt x="927" y="0" on="1"/>
        <pt x="647" y="0" on="1"/>
        <pt x="636" y="0" on="0"/>
        <pt x="614" y="5" on="0"/>
        <pt x="597" y="18" on="0"/>
        <pt x="587" y="41" on="0"/>
        <pt x="587" y="60" on="1"/>
        <pt x="587" y="299" on="1"/>
        <pt x="250" y="299" on="1"/>
        <pt x="250" y="0" on="1"/>
        <pt x="221" y="0" on="1"/>
        <pt x="210" y="0" on="0"/>
        <pt x="188" y="5" on="0"/>
        <pt x="171" y="18" on="0"/>
        <pt x="160" y="41" on="0"/>
        <pt x="160" y="60" on="1"/>
        <pt x="160" y="690" on="1"/>
        <pt x="160" y="698" on="0"/>
        <pt x="172" y="710" on="0"/>
        <pt x="180" y="710" on="1"/>
        <pt x="229" y="710" on="1"/>
        <pt x="237" y="710" on="0"/>
        <pt x="250" y="698" on="0"/>
        <pt x="250" y="690" on="1"/>
        <pt x="250" y="374" on="1"/>
        <pt x="587" y="374" on="1"/>
        <pt x="587" y="690" on="1"/>
        <pt x="587" y="698" on="0"/>
        <pt x="599" y="710" on="0"/>
        <pt x="607" y="710" on="1"/>
        <pt x="656" y="710" on="1"/>
        <pt x="664" y="710" on="0"/>
        <pt x="676" y="698" on="0"/>
        <pt x="677" y="690" on="1"/>
      </contour>
    </TTGlyph>
    <TTGlyph name="I" xMin="90" yMin="0" xMax="630" yMax="710">
      <contour>
        <pt x="190" y="70" on="1"/>
        <pt x="190" y="630" on="1"/>
        <pt x="144" y="630" on="1"/>
        <pt x="110" y="630" on="0"/>
        <pt x="90" y="664" on="0"/>
        <pt x="90" y="684" on="1"/>
        <pt x="90" y="710" on="1"/>
        <pt x="320" y="710" on="1"/>
        <pt x="339" y="710" on="0"/>
        <pt x="362" y="699" on="0"/>
        <pt x="375" y="682" on="0"/>
        <pt x="380" y="660" on="0"/>
        <pt x="380" y="649" on="1"/>
        <pt x="380" y="630" on="1"/>
        <pt x="280" y="630" on="1"/>
        <pt x="280" y="70" on="1"/>
        <pt x="630" y="70" on="1"/>
        <pt x="630" y="48" on="0"/>
        <pt x="618" y="21" on="0"/>
        <pt x="598" y="6" on="0"/>
        <pt x="573" y="0" on="0"/>
        <pt x="560" y="0" on="1"/>
        <pt x="160" y="0" on="1"/>
        <pt x="147" y="0" on="0"/>
        <pt x="122" y="6" on="0"/>
        <pt x="102" y="21" on="0"/>
        <pt x="90" y="48" on="0"/>
        <pt x="90" y="70" on="1"/>
      </contour>
    </TTGlyph>
    <TTGlyph name="Iacute" xMin="90" yMin="0" xMax="630" yMax="942">
      <contour>
        <pt x="190" y="70" on="1"/>
        <pt x="190" y="630" on="1"/>
        <pt x="144" y="630" on="1"/>
        <pt x="110" y="630" on="0"/>
        <pt x="90" y="664" on="0"/>
        <pt x="90" y="684" on="1"/>
        <pt x="90" y="710" on="1"/>
        <pt x="320" y="710" on="1"/>
        <pt x="339" y="710" on="0"/>
        <pt x="362" y="699" on="0"/>
        <pt x="375" y="682" on="0"/>
        <pt x="380" y="660" on="0"/>
        <pt x="380" y="649" on="1"/>
        <pt x="380" y="630" on="1"/>
        <pt x="280" y="630" on="1"/>
        <pt x="280" y="70" on="1"/>
        <pt x="630" y="70" on="1"/>
        <pt x="630" y="48" on="0"/>
        <pt x="618" y="21" on="0"/>
        <pt x="598" y="6" on="0"/>
        <pt x="573" y="0" on="0"/>
        <pt x="560" y="0" on="1"/>
        <pt x="160" y="0" on="1"/>
        <pt x="147" y="0" on="0"/>
        <pt x="122" y="6" on="0"/>
        <pt x="102" y="21" on="0"/>
        <pt x="90" y="48" on="0"/>
        <pt x="90" y="70" on="1"/>
      </contour>
      <contour>
        <pt x="113" y="811" on="1"/>
        <pt x="323" y="942" on="1"/>
        <pt x="336" y="922" on="1"/>
        <pt x="360" y="885" on="0"/>
        <pt x="360" y="865" on="1"/>
        <pt x="360" y="848" on="0"/>
        <pt x="316" y="819" on="0"/>
        <pt x="249" y="795" on="0"/>
        <pt x="170" y="776" on="0"/>
        <pt x="136" y="770" on="1"/>
      </contour>
    </TTGlyph>
    <TTGlyph name="Icircumflex" xMin="70" yMin="0" xMax="630" yMax="942">
      <contour>
        <pt x="190" y="70" on="1"/>
        <pt x="190" y="630" on="1"/>
        <pt x="144" y="630" on="1"/>
        <pt x="110" y="630" on="0"/>
        <pt x="90" y="664" on="0"/>
        <pt x="90" y="684" on="1"/>
        <pt x="90" y="710" on="1"/>
        <pt x="320" y="710" on="1"/>
        <pt x="339" y="710" on="0"/>
        <pt x="362" y="699" on="0"/>
        <pt x="375" y="682" on="0"/>
        <pt x="380" y="660" on="0"/>
        <pt x="380" y="649" on="1"/>
        <pt x="380" y="630" on="1"/>
        <pt x="280" y="630" on="1"/>
        <pt x="280" y="70" on="1"/>
        <pt x="630" y="70" on="1"/>
        <pt x="630" y="48" on="0"/>
        <pt x="618" y="21" on="0"/>
        <pt x="598" y="6" on="0"/>
        <pt x="573" y="0" on="0"/>
        <pt x="560" y="0" on="1"/>
        <pt x="160" y="0" on="1"/>
        <pt x="147" y="0" on="0"/>
        <pt x="122" y="6" on="0"/>
        <pt x="102" y="21" on="0"/>
        <pt x="90" y="48" on="0"/>
        <pt x="90" y="70" on="1"/>
      </contour>
      <contour>
        <pt x="376" y="771" on="1"/>
        <pt x="354" y="775" on="0"/>
        <pt x="311" y="793" on="0"/>
        <pt x="273" y="814" on="0"/>
        <pt x="243" y="836" on="0"/>
        <pt x="235" y="845" on="1"/>
        <pt x="217" y="824" on="0"/>
        <pt x="140" y="781" on="0"/>
        <pt x="94" y="771" on="1"/>
        <pt x="70" y="811" on="1"/>
        <pt x="215" y="942" on="1"/>
        <pt x="255" y="942" on="1"/>
        <pt x="400" y="811" on="1"/>
      </contour>
    </TTGlyph>
    <TTGlyph name="Idieresis" xMin="63" yMin="0" xMax="630" yMax="916">
      <contour>
        <pt x="190" y="70" on="1"/>
        <pt x="190" y="630" on="1"/>
        <pt x="144" y="630" on="1"/>
        <pt x="110" y="630" on="0"/>
        <pt x="90" y="664" on="0"/>
        <pt x="90" y="684" on="1"/>
        <pt x="90" y="710" on="1"/>
        <pt x="320" y="710" on="1"/>
        <pt x="339" y="710" on="0"/>
        <pt x="362" y="699" on="0"/>
        <pt x="375" y="682" on="0"/>
        <pt x="380" y="660" on="0"/>
        <pt x="380" y="649" on="1"/>
        <pt x="380" y="630" on="1"/>
        <pt x="280" y="630" on="1"/>
        <pt x="280" y="70" on="1"/>
        <pt x="630" y="70" on="1"/>
        <pt x="630" y="48" on="0"/>
        <pt x="618" y="21" on="0"/>
        <pt x="598" y="6" on="0"/>
        <pt x="573" y="0" on="0"/>
        <pt x="560" y="0" on="1"/>
        <pt x="160" y="0" on="1"/>
        <pt x="147" y="0" on="0"/>
        <pt x="122" y="6" on="0"/>
        <pt x="102" y="21" on="0"/>
        <pt x="90" y="48" on="0"/>
        <pt x="90" y="70" on="1"/>
      </contour>
      <contour>
        <pt x="63" y="854" on="1"/>
        <pt x="63" y="879" on="0"/>
        <pt x="93" y="916" on="0"/>
        <pt x="124" y="916" on="1"/>
        <pt x="154" y="916" on="0"/>
        <pt x="186" y="879" on="0"/>
        <pt x="186" y="854" on="1"/>
        <pt x="186" y="828" on="0"/>
        <pt x="154" y="793" on="0"/>
        <pt x="124" y="793" on="1"/>
        <pt x="93" y="793" on="0"/>
        <pt x="63" y="828" on="0"/>
      </contour>
      <contour>
        <pt x="285" y="854" on="1"/>
        <pt x="285" y="879" on="0"/>
        <pt x="315" y="916" on="0"/>
        <pt x="346" y="916" on="1"/>
        <pt x="376" y="916" on="0"/>
        <pt x="408" y="879" on="0"/>
        <pt x="408" y="854" on="1"/>
        <pt x="408" y="828" on="0"/>
        <pt x="376" y="793" on="0"/>
        <pt x="346" y="793" on="1"/>
        <pt x="315" y="793" on="0"/>
        <pt x="285" y="828" on="0"/>
      </contour>
    </TTGlyph>
    <TTGlyph name="Igrave" xMin="90" yMin="0" xMax="630" yMax="942">
      <contour>
        <pt x="190" y="70" on="1"/>
        <pt x="190" y="630" on="1"/>
        <pt x="144" y="630" on="1"/>
        <pt x="110" y="630" on="0"/>
        <pt x="90" y="664" on="0"/>
        <pt x="90" y="684" on="1"/>
        <pt x="90" y="710" on="1"/>
        <pt x="320" y="710" on="1"/>
        <pt x="339" y="710" on="0"/>
        <pt x="362" y="699" on="0"/>
        <pt x="375" y="682" on="0"/>
        <pt x="380" y="660" on="0"/>
        <pt x="380" y="649" on="1"/>
        <pt x="380" y="630" on="1"/>
        <pt x="280" y="630" on="1"/>
        <pt x="280" y="70" on="1"/>
        <pt x="630" y="70" on="1"/>
        <pt x="630" y="48" on="0"/>
        <pt x="618" y="21" on="0"/>
        <pt x="598" y="6" on="0"/>
        <pt x="573" y="0" on="0"/>
        <pt x="560" y="0" on="1"/>
        <pt x="160" y="0" on="1"/>
        <pt x="147" y="0" on="0"/>
        <pt x="122" y="6" on="0"/>
        <pt x="102" y="21" on="0"/>
        <pt x="90" y="48" on="0"/>
        <pt x="90" y="70" on="1"/>
      </contour>
      <contour>
        <pt x="336" y="770" on="1"/>
        <pt x="301" y="776" on="0"/>
        <pt x="223" y="795" on="0"/>
        <pt x="155" y="819" on="0"/>
        <pt x="111" y="848" on="0"/>
        <pt x="111" y="865" on="1"/>
        <pt x="111" y="884" on="0"/>
        <pt x="136" y="922" on="1"/>
        <pt x="149" y="942" on="1"/>
        <pt x="358" y="811" on="1"/>
      </contour>
    </TTGlyph>
    <TTGlyph name="J" xMin="0" yMin="0" xMax="695" yMax="775">
      <contour>
        <pt x="53" y="0" on="1"/>
        <pt x="20" y="0" on="0"/>
        <pt x="0" y="34" on="0"/>
        <pt x="0" y="54" on="1"/>
        <pt x="0" y="70" on="1"/>
        <pt x="110" y="70" on="1"/>
        <pt x="157" y="70" on="0"/>
        <pt x="224" y="88" on="0"/>
        <pt x="267" y="145" on="0"/>
        <pt x="287" y="251" on="0"/>
        <pt x="287" y="340" on="1"/>
        <pt x="287" y="630" on="1"/>
        <pt x="67" y="630" on="1"/>
        <pt x="33" y="630" on="0"/>
        <pt x="13" y="664" on="0"/>
        <pt x="13" y="684" on="1"/>
        <pt x="13" y="710" on="1"/>
        <pt x="281" y="710" on="1"/>
        <pt x="283" y="737" on="0"/>
        <pt x="319" y="775" on="0"/>
        <pt x="353" y="775" on="1"/>
        <pt x="389" y="775" on="0"/>
        <pt x="426" y="732" on="0"/>
        <pt x="426" y="702" on="1"/>
        <pt x="426" y="677" on="0"/>
        <pt x="401" y="640" on="0"/>
        <pt x="377" y="633" on="1"/>
        <pt x="377" y="340" on="1"/>
        <pt x="377" y="238" on="0"/>
        <pt x="347" y="108" on="0"/>
        <pt x="315" y="70" on="1"/>
        <pt x="695" y="70" on="1"/>
        <pt x="695" y="48" on="0"/>
        <pt x="683" y="21" on="0"/>
        <pt x="663" y="6" on="0"/>
        <pt x="638" y="0" on="0"/>
        <pt x="625" y="0" on="1"/>
      </contour>
    </TTGlyph>
    <TTGlyph name="K" xMin="139" yMin="0" xMax="830" yMax="720">
      <contour>
        <pt x="220" y="0" on="1"/>
        <pt x="178" y="0" on="0"/>
        <pt x="139" y="43" on="0"/>
        <pt x="139" y="91" on="1"/>
        <pt x="139" y="118" on="0"/>
        <pt x="150" y="168" on="0"/>
        <pt x="160" y="191" on="1"/>
        <pt x="160" y="690" on="1"/>
        <pt x="160" y="698" on="0"/>
        <pt x="172" y="710" on="0"/>
        <pt x="180" y="710" on="1"/>
        <pt x="230" y="710" on="1"/>
        <pt x="238" y="710" on="0"/>
        <pt x="250" y="698" on="0"/>
        <pt x="250" y="690" on="1"/>
        <pt x="250" y="343" on="1"/>
        <pt x="274" y="424" on="0"/>
        <pt x="347" y="562" on="0"/>
        <pt x="438" y="663" on="0"/>
        <pt x="544" y="720" on="0"/>
        <pt x="603" y="720" on="1"/>
        <pt x="637" y="720" on="0"/>
        <pt x="657" y="686" on="0"/>
        <pt x="657" y="666" on="1"/>
        <pt x="657" y="640" on="1"/>
        <pt x="603" y="640" on="1"/>
        <pt x="564" y="640" on="0"/>
        <pt x="492" y="604" on="0"/>
        <pt x="427" y="541" on="0"/>
        <pt x="369" y="454" on="0"/>
        <pt x="345" y="404" on="1"/>
        <pt x="409" y="307" on="1"/>
        <pt x="448" y="248" on="0"/>
        <pt x="512" y="159" on="0"/>
        <pt x="574" y="100" on="0"/>
        <pt x="642" y="70" on="0"/>
        <pt x="687" y="70" on="1"/>
        <pt x="830" y="70" on="1"/>
        <pt x="830" y="48" on="0"/>
        <pt x="816" y="21" on="0"/>
        <pt x="793" y="6" on="0"/>
        <pt x="766" y="0" on="0"/>
        <pt x="753" y="0" on="1"/>
        <pt x="682" y="0" on="1"/>
        <pt x="617" y="0" on="0"/>
        <pt x="522" y="41" on="0"/>
        <pt x="447" y="109" on="0"/>
        <pt x="386" y="198" on="0"/>
        <pt x="356" y="245" on="1"/>
        <pt x="309" y="317" on="1"/>
        <pt x="281" y="238" on="0"/>
        <pt x="250" y="74" on="0"/>
        <pt x="250" y="0" on="1"/>
      </contour>
    </TTGlyph>
    <TTGlyph name="L" xMin="60" yMin="0" xMax="700" yMax="720">
      <contour>
        <pt x="443" y="720" on="1"/>
        <pt x="477" y="720" on="0"/>
        <pt x="497" y="686" on="0"/>
        <pt x="497" y="666" on="1"/>
        <pt x="497" y="640" on="1"/>
        <pt x="427" y="640" on="1"/>
        <pt x="380" y="640" on="0"/>
        <pt x="313" y="625" on="0"/>
        <pt x="270" y="572" on="0"/>
        <pt x="250" y="468" on="0"/>
        <pt x="250" y="380" on="1"/>
        <pt x="250" y="70" on="1"/>
        <pt x="700" y="70" on="1"/>
        <pt x="700" y="48" on="0"/>
        <pt x="688" y="21" on="0"/>
        <pt x="668" y="6" on="0"/>
        <pt x="643" y="0" on="0"/>
        <pt x="630" y="0" on="1"/>
        <pt x="130" y="0" on="1"/>
        <pt x="117" y="0" on="0"/>
        <pt x="92" y="6" on="0"/>
        <pt x="72" y="21" on="0"/>
        <pt x="60" y="48" on="0"/>
        <pt x="60" y="70" on="1"/>
        <pt x="160" y="70" on="1"/>
        <pt x="160" y="380" on="1"/>
        <pt x="160" y="482" on="0"/>
        <pt x="190" y="613" on="0"/>
        <pt x="255" y="690" on="0"/>
        <pt x="356" y="720" on="0"/>
        <pt x="427" y="720" on="1"/>
      </contour>
    </TTGlyph>
    <TTGlyph name="Lslash" xMin="47" yMin="0" xMax="700" yMax="720">
      <contour>
        <pt x="160" y="350" on="1"/>
        <pt x="160" y="380" on="1"/>
        <pt x="160" y="482" on="0"/>
        <pt x="190" y="613" on="0"/>
        <pt x="255" y="690" on="0"/>
        <pt x="356" y="720" on="0"/>
        <pt x="427" y="720" on="1"/>
        <pt x="443" y="720" on="1"/>
        <pt x="477" y="720" on="0"/>
        <pt x="497" y="686" on="0"/>
        <pt x="497" y="666" on="1"/>
        <pt x="497" y="640" on="1"/>
        <pt x="427" y="640" on="1"/>
        <pt x="381" y="640" on="0"/>
        <pt x="315" y="626" on="0"/>
        <pt x="272" y="576" on="0"/>
        <pt x="251" y="479" on="0"/>
        <pt x="250" y="396" on="1"/>
        <pt x="283" y="413" on="1"/>
        <pt x="303" y="423" on="0"/>
        <pt x="314" y="423" on="1"/>
        <pt x="327" y="423" on="0"/>
        <pt x="349" y="402" on="0"/>
        <pt x="363" y="375" on="1"/>
        <pt x="250" y="317" on="1"/>
        <pt x="250" y="70" on="1"/>
        <pt x="700" y="70" on="1"/>
        <pt x="700" y="48" on="0"/>
        <pt x="688" y="21" on="0"/>
        <pt x="668" y="6" on="0"/>
        <pt x="643" y="0" on="0"/>
        <pt x="630" y="0" on="1"/>
        <pt x="130" y="0" on="1"/>
        <pt x="117" y="0" on="0"/>
        <pt x="92" y="6" on="0"/>
        <pt x="72" y="21" on="0"/>
        <pt x="60" y="48" on="0"/>
        <pt x="60" y="70" on="1"/>
        <pt x="160" y="70" on="1"/>
        <pt x="160" y="272" on="1"/>
        <pt x="127" y="255" on="1"/>
        <pt x="107" y="245" on="0"/>
        <pt x="95" y="245" on="1"/>
        <pt x="82" y="245" on="0"/>
        <pt x="61" y="266" on="0"/>
        <pt x="47" y="293" on="1"/>
      </contour>
    </TTGlyph>
    <TTGlyph name="M" xMin="139" yMin="0" xMax="1383" yMax="720">
      <contour>
        <pt x="214" y="0" on="1"/>
        <pt x="139" y="0" on="0"/>
        <pt x="139" y="91" on="1"/>
        <pt x="139" y="118" on="0"/>
        <pt x="150" y="168" on="0"/>
        <pt x="160" y="191" on="1"/>
        <pt x="160" y="690" on="1"/>
        <pt x="160" y="698" on="0"/>
        <pt x="172" y="710" on="0"/>
        <pt x="180" y="710" on="1"/>
        <pt x="230" y="710" on="1"/>
        <pt x="238" y="710" on="0"/>
        <pt x="250" y="698" on="0"/>
        <pt x="250" y="690" on="1"/>
        <pt x="250" y="371" on="1"/>
        <pt x="281" y="441" on="0"/>
        <pt x="359" y="568" on="0"/>
        <pt x="444" y="664" on="0"/>
        <pt x="529" y="720" on="0"/>
        <pt x="567" y="720" on="1"/>
        <pt x="593" y="720" on="0"/>
        <pt x="628" y="706" on="0"/>
        <pt x="649" y="682" on="0"/>
        <pt x="657" y="649" on="0"/>
        <pt x="657" y="630" on="1"/>
        <pt x="657" y="371" on="1"/>
        <pt x="688" y="441" on="0"/>
        <pt x="766" y="568" on="0"/>
        <pt x="851" y="664" on="0"/>
        <pt x="936" y="720" on="0"/>
        <pt x="974" y="720" on="1"/>
        <pt x="1000" y="720" on="0"/>
        <pt x="1035" y="706" on="0"/>
        <pt x="1056" y="682" on="0"/>
        <pt x="1064" y="649" on="0"/>
        <pt x="1064" y="630" on="1"/>
        <pt x="1064" y="70" on="1"/>
        <pt x="1383" y="70" on="1"/>
        <pt x="1383" y="48" on="0"/>
        <pt x="1371" y="21" on="0"/>
        <pt x="1351" y="6" on="0"/>
        <pt x="1326" y="0" on="0"/>
        <pt x="1313" y="0" on="1"/>
        <pt x="1033" y="0" on="1"/>
        <pt x="1021" y="0" on="0"/>
        <pt x="1000" y="5" on="0"/>
        <pt x="984" y="18" on="0"/>
        <pt x="974" y="41" on="0"/>
        <pt x="974" y="60" on="1"/>
        <pt x="974" y="640" on="1"/>
        <pt x="952" y="640" on="0"/>
        <pt x="888" y="593" on="0"/>
        <pt x="817" y="512" on="0"/>
        <pt x="748" y="401" on="0"/>
        <pt x="692" y="272" on="0"/>
        <pt x="657" y="133" on="0"/>
        <pt x="657" y="63" on="1"/>
        <pt x="657" y="0" on="1"/>
        <pt x="627" y="0" on="1"/>
        <pt x="585" y="0" on="0"/>
        <pt x="546" y="43" on="0"/>
        <pt x="546" y="91" on="1"/>
        <pt x="546" y="118" on="0"/>
        <pt x="557" y="168" on="0"/>
        <pt x="567" y="191" on="1"/>
        <pt x="567" y="640" on="1"/>
        <pt x="545" y="640" on="0"/>
        <pt x="481" y="593" on="0"/>
        <pt x="410" y="512" on="0"/>
        <pt x="341" y="401" on="0"/>
        <pt x="285" y="272" on="0"/>
        <pt x="250" y="133" on="0"/>
        <pt x="250" y="63" on="1"/>
        <pt x="250" y="0" on="1"/>
      </contour>
    </TTGlyph>
    <TTGlyph name="N" xMin="139" yMin="0" xMax="997" yMax="720">
      <contour>
        <pt x="220" y="0" on="1"/>
        <pt x="178" y="0" on="0"/>
        <pt x="139" y="43" on="0"/>
        <pt x="139" y="91" on="1"/>
        <pt x="139" y="118" on="0"/>
        <pt x="150" y="168" on="0"/>
        <pt x="160" y="191" on="1"/>
        <pt x="160" y="690" on="1"/>
        <pt x="160" y="698" on="0"/>
        <pt x="172" y="710" on="0"/>
        <pt x="180" y="710" on="1"/>
        <pt x="230" y="710" on="1"/>
        <pt x="238" y="710" on="0"/>
        <pt x="250" y="698" on="0"/>
        <pt x="250" y="690" on="1"/>
        <pt x="250" y="363" on="1"/>
        <pt x="282" y="435" on="0"/>
        <pt x="364" y="564" on="0"/>
        <pt x="454" y="662" on="0"/>
        <pt x="546" y="720" on="0"/>
        <pt x="587" y="720" on="1"/>
        <pt x="613" y="720" on="0"/>
        <pt x="648" y="706" on="0"/>
        <pt x="669" y="682" on="0"/>
        <pt x="677" y="649" on="0"/>
        <pt x="677" y="630" on="1"/>
        <pt x="677" y="70" on="1"/>
        <pt x="997" y="70" on="1"/>
        <pt x="997" y="48" on="0"/>
        <pt x="985" y="21" on="0"/>
        <pt x="965" y="6" on="0"/>
        <pt x="940" y="0" on="0"/>
        <pt x="927" y="0" on="1"/>
        <pt x="647" y="0" on="1"/>
        <pt x="636" y="0" on="0"/>
        <pt x="614" y="5" on="0"/>
        <pt x="597" y="18" on="0"/>
        <pt x="587" y="41" on="0"/>
        <pt x="587" y="60" on="1"/>
        <pt x="587" y="640" on="1"/>
        <pt x="563" y="640" on="0"/>
        <pt x="495" y="593" on="0"/>
        <pt x="420" y="512" on="0"/>
        <pt x="346" y="401" on="0"/>
        <pt x="287" y="272" on="0"/>
        <pt x="250" y="133" on="0"/>
        <pt x="250" y="63" on="1"/>
        <pt x="250" y="0" on="1"/>
      </contour>
    </TTGlyph>
    <TTGlyph name="Ntilde" xMin="139" yMin="0" xMax="997" yMax="913">
      <contour>
        <pt x="220" y="0" on="1"/>
        <pt x="178" y="0" on="0"/>
        <pt x="139" y="43" on="0"/>
        <pt x="139" y="91" on="1"/>
        <pt x="139" y="118" on="0"/>
        <pt x="150" y="168" on="0"/>
        <pt x="160" y="191" on="1"/>
        <pt x="160" y="690" on="1"/>
        <pt x="160" y="698" on="0"/>
        <pt x="172" y="710" on="0"/>
        <pt x="180" y="710" on="1"/>
        <pt x="230" y="710" on="1"/>
        <pt x="238" y="710" on="0"/>
        <pt x="250" y="698" on="0"/>
        <pt x="250" y="690" on="1"/>
        <pt x="250" y="363" on="1"/>
        <pt x="282" y="435" on="0"/>
        <pt x="364" y="564" on="0"/>
        <pt x="454" y="662" on="0"/>
        <pt x="546" y="720" on="0"/>
        <pt x="587" y="720" on="1"/>
        <pt x="613" y="720" on="0"/>
        <pt x="648" y="706" on="0"/>
        <pt x="669" y="682" on="0"/>
        <pt x="677" y="649" on="0"/>
        <pt x="677" y="630" on="1"/>
        <pt x="677" y="70" on="1"/>
        <pt x="997" y="70" on="1"/>
        <pt x="997" y="48" on="0"/>
        <pt x="985" y="21" on="0"/>
        <pt x="965" y="6" on="0"/>
        <pt x="940" y="0" on="0"/>
        <pt x="927" y="0" on="1"/>
        <pt x="647" y="0" on="1"/>
        <pt x="636" y="0" on="0"/>
        <pt x="614" y="5" on="0"/>
        <pt x="597" y="18" on="0"/>
        <pt x="587" y="41" on="0"/>
        <pt x="587" y="60" on="1"/>
        <pt x="587" y="640" on="1"/>
        <pt x="563" y="640" on="0"/>
        <pt x="495" y="593" on="0"/>
        <pt x="420" y="512" on="0"/>
        <pt x="346" y="401" on="0"/>
        <pt x="287" y="272" on="0"/>
        <pt x="250" y="133" on="0"/>
        <pt x="250" y="63" on="1"/>
        <pt x="250" y="0" on="1"/>
      </contour>
      <contour>
        <pt x="328" y="885" on="1"/>
        <pt x="337" y="877" on="0"/>
        <pt x="356" y="866" on="0"/>
        <pt x="370" y="866" on="1"/>
        <pt x="388" y="866" on="0"/>
        <pt x="430" y="884" on="1"/>
        <pt x="464" y="899" on="1"/>
        <pt x="495" y="913" on="0"/>
        <pt x="526" y="913" on="1"/>
        <pt x="564" y="913" on="0"/>
        <pt x="614" y="870" on="0"/>
        <pt x="614" y="837" on="1"/>
        <pt x="614" y="827" on="0"/>
        <pt x="607" y="802" on="0"/>
        <pt x="593" y="786" on="1"/>
        <pt x="567" y="811" on="1"/>
        <pt x="558" y="819" on="0"/>
        <pt x="539" y="830" on="0"/>
        <pt x="525" y="830" on="1"/>
        <pt x="507" y="830" on="0"/>
        <pt x="465" y="812" on="1"/>
        <pt x="431" y="797" on="1"/>
        <pt x="400" y="783" on="0"/>
        <pt x="369" y="783" on="1"/>
        <pt x="331" y="783" on="0"/>
        <pt x="281" y="826" on="0"/>
        <pt x="281" y="859" on="1"/>
        <pt x="281" y="869" on="0"/>
        <pt x="288" y="894" on="0"/>
        <pt x="302" y="910" on="1"/>
      </contour>
    </TTGlyph>
    <TTGlyph name="O" xMin="115" yMin="0" xMax="951" yMax="720">
      <contour>
        <pt x="670" y="437" on="1"/>
        <pt x="670" y="295" on="0"/>
        <pt x="584" y="118" on="0"/>
        <pt x="495" y="70" on="1"/>
        <pt x="951" y="70" on="1"/>
        <pt x="951" y="48" on="0"/>
        <pt x="939" y="21" on="0"/>
        <pt x="919" y="6" on="0"/>
        <pt x="894" y="0" on="0"/>
        <pt x="881" y="0" on="1"/>
        <pt x="194" y="0" on="1"/>
        <pt x="169" y="0" on="0"/>
        <pt x="138" y="13" on="0"/>
        <pt x="121" y="36" on="0"/>
        <pt x="115" y="67" on="0"/>
        <pt x="115" y="84" on="1"/>
        <pt x="115" y="282" on="1"/>
        <pt x="115" y="397" on="0"/>
        <pt x="173" y="563" on="0"/>
        <pt x="290" y="669" on="0"/>
        <pt x="469" y="720" on="0"/>
        <pt x="591" y="720" on="1"/>
        <pt x="616" y="720" on="0"/>
        <pt x="647" y="707" on="0"/>
        <pt x="664" y="684" on="0"/>
        <pt x="670" y="653" on="0"/>
        <pt x="670" y="636" on="1"/>
      </contour>
      <contour>
        <pt x="205" y="70" on="1"/>
        <pt x="305" y="70" on="0"/>
        <pt x="447" y="113" on="0"/>
        <pt x="538" y="202" on="0"/>
        <pt x="580" y="341" on="0"/>
        <pt x="580" y="437" on="1"/>
        <pt x="580" y="640" on="1"/>
        <pt x="480" y="640" on="0"/>
        <pt x="338" y="600" on="0"/>
        <pt x="247" y="514" on="0"/>
        <pt x="205" y="378" on="0"/>
        <pt x="205" y="282" on="1"/>
      </contour>
    </TTGlyph>
    <TTGlyph name="OE" xMin="115" yMin="0" xMax="1211" yMax="720">
      <contour>
        <pt x="670" y="623" on="1"/>
        <pt x="709" y="663" on="0"/>
        <pt x="830" y="710" on="0"/>
        <pt x="920" y="710" on="1"/>
        <pt x="942" y="710" on="1"/>
        <pt x="976" y="710" on="0"/>
        <pt x="996" y="676" on="0"/>
        <pt x="996" y="656" on="1"/>
        <pt x="996" y="630" on="1"/>
        <pt x="914" y="630" on="1"/>
        <pt x="836" y="630" on="0"/>
        <pt x="741" y="583" on="0"/>
        <pt x="689" y="510" on="0"/>
        <pt x="670" y="419" on="0"/>
        <pt x="669" y="374" on="1"/>
        <pt x="914" y="374" on="1"/>
        <pt x="914" y="352" on="0"/>
        <pt x="902" y="323" on="0"/>
        <pt x="882" y="306" on="0"/>
        <pt x="857" y="299" on="0"/>
        <pt x="844" y="299" on="1"/>
        <pt x="670" y="299" on="1"/>
        <pt x="672" y="264" on="0"/>
        <pt x="692" y="184" on="0"/>
        <pt x="745" y="115" on="0"/>
        <pt x="838" y="70" on="0"/>
        <pt x="914" y="70" on="1"/>
        <pt x="1211" y="70" on="1"/>
        <pt x="1211" y="48" on="0"/>
        <pt x="1199" y="21" on="0"/>
        <pt x="1179" y="6" on="0"/>
        <pt x="1154" y="0" on="0"/>
        <pt x="1141" y="0" on="1"/>
        <pt x="910" y="0" on="1"/>
        <pt x="843" y="0" on="0"/>
        <pt x="743" y="26" on="0"/>
        <pt x="670" y="72" on="0"/>
        <pt x="622" y="133" on="0"/>
        <pt x="608" y="169" on="1"/>
        <pt x="554" y="81" on="0"/>
        <pt x="349" y="0" on="0"/>
        <pt x="194" y="0" on="1"/>
        <pt x="169" y="0" on="0"/>
        <pt x="138" y="13" on="0"/>
        <pt x="121" y="36" on="0"/>
        <pt x="115" y="67" on="0"/>
        <pt x="115" y="84" on="1"/>
        <pt x="115" y="282" on="1"/>
        <pt x="115" y="397" on="0"/>
        <pt x="173" y="563" on="0"/>
        <pt x="290" y="669" on="0"/>
        <pt x="469" y="720" on="0"/>
        <pt x="591" y="720" on="1"/>
        <pt x="616" y="720" on="0"/>
        <pt x="647" y="707" on="0"/>
        <pt x="664" y="684" on="0"/>
        <pt x="670" y="653" on="0"/>
        <pt x="670" y="636" on="1"/>
      </contour>
      <contour>
        <pt x="580" y="640" on="1"/>
        <pt x="480" y="640" on="0"/>
        <pt x="338" y="600" on="0"/>
        <pt x="247" y="514" on="0"/>
        <pt x="205" y="378" on="0"/>
        <pt x="205" y="282" on="1"/>
        <pt x="205" y="80" on="1"/>
        <pt x="305" y="80" on="0"/>
        <pt x="447" y="120" on="0"/>
        <pt x="538" y="206" on="0"/>
        <pt x="580" y="342" on="0"/>
        <pt x="580" y="438" on="1"/>
      </contour>
    </TTGlyph>
    <TTGlyph name="Oacute" xMin="135" yMin="0" xMax="971" yMax="942">
      <contour>
        <pt x="690" y="437" on="1"/>
        <pt x="690" y="295" on="0"/>
        <pt x="604" y="118" on="0"/>
        <pt x="515" y="70" on="1"/>
        <pt x="971" y="70" on="1"/>
        <pt x="971" y="48" on="0"/>
        <pt x="959" y="21" on="0"/>
        <pt x="939" y="6" on="0"/>
        <pt x="914" y="0" on="0"/>
        <pt x="901" y="0" on="1"/>
        <pt x="214" y="0" on="1"/>
        <pt x="189" y="0" on="0"/>
        <pt x="158" y="13" on="0"/>
        <pt x="141" y="36" on="0"/>
        <pt x="135" y="67" on="0"/>
        <pt x="135" y="84" on="1"/>
        <pt x="135" y="282" on="1"/>
        <pt x="135" y="397" on="0"/>
        <pt x="193" y="563" on="0"/>
        <pt x="310" y="669" on="0"/>
        <pt x="489" y="720" on="0"/>
        <pt x="611" y="720" on="1"/>
        <pt x="636" y="720" on="0"/>
        <pt x="667" y="707" on="0"/>
        <pt x="684" y="684" on="0"/>
        <pt x="690" y="653" on="0"/>
        <pt x="690" y="636" on="1"/>
      </contour>
      <contour>
        <pt x="225" y="70" on="1"/>
        <pt x="325" y="70" on="0"/>
        <pt x="467" y="113" on="0"/>
        <pt x="558" y="202" on="0"/>
        <pt x="600" y="341" on="0"/>
        <pt x="600" y="437" on="1"/>
        <pt x="600" y="640" on="1"/>
        <pt x="500" y="640" on="0"/>
        <pt x="358" y="600" on="0"/>
        <pt x="267" y="514" on="0"/>
        <pt x="225" y="378" on="0"/>
        <pt x="225" y="282" on="1"/>
      </contour>
      <contour>
        <pt x="322" y="811" on="1"/>
        <pt x="532" y="942" on="1"/>
        <pt x="545" y="922" on="1"/>
        <pt x="569" y="885" on="0"/>
        <pt x="569" y="865" on="1"/>
        <pt x="569" y="848" on="0"/>
        <pt x="525" y="819" on="0"/>
        <pt x="458" y="795" on="0"/>
        <pt x="379" y="776" on="0"/>
        <pt x="345" y="770" on="1"/>
      </contour>
    </TTGlyph>
    <TTGlyph name="Ocircumflex" xMin="115" yMin="0" xMax="951" yMax="942">
      <contour>
        <pt x="670" y="437" on="1"/>
        <pt x="670" y="295" on="0"/>
        <pt x="584" y="118" on="0"/>
        <pt x="495" y="70" on="1"/>
        <pt x="951" y="70" on="1"/>
        <pt x="951" y="48" on="0"/>
        <pt x="939" y="21" on="0"/>
        <pt x="919" y="6" on="0"/>
        <pt x="894" y="0" on="0"/>
        <pt x="881" y="0" on="1"/>
        <pt x="194" y="0" on="1"/>
        <pt x="169" y="0" on="0"/>
        <pt x="138" y="13" on="0"/>
        <pt x="121" y="36" on="0"/>
        <pt x="115" y="67" on="0"/>
        <pt x="115" y="84" on="1"/>
        <pt x="115" y="282" on="1"/>
        <pt x="115" y="397" on="0"/>
        <pt x="173" y="563" on="0"/>
        <pt x="290" y="669" on="0"/>
        <pt x="469" y="720" on="0"/>
        <pt x="591" y="720" on="1"/>
        <pt x="616" y="720" on="0"/>
        <pt x="647" y="707" on="0"/>
        <pt x="664" y="684" on="0"/>
        <pt x="670" y="653" on="0"/>
        <pt x="670" y="636" on="1"/>
      </contour>
      <contour>
        <pt x="205" y="70" on="1"/>
        <pt x="305" y="70" on="0"/>
        <pt x="447" y="113" on="0"/>
        <pt x="538" y="202" on="0"/>
        <pt x="580" y="341" on="0"/>
        <pt x="580" y="437" on="1"/>
        <pt x="580" y="640" on="1"/>
        <pt x="480" y="640" on="0"/>
        <pt x="338" y="600" on="0"/>
        <pt x="247" y="514" on="0"/>
        <pt x="205" y="378" on="0"/>
        <pt x="205" y="282" on="1"/>
      </contour>
      <contour>
        <pt x="536" y="771" on="1"/>
        <pt x="514" y="775" on="0"/>
        <pt x="471" y="793" on="0"/>
        <pt x="433" y="814" on="0"/>
        <pt x="403" y="836" on="0"/>
        <pt x="395" y="845" on="1"/>
        <pt x="377" y="824" on="0"/>
        <pt x="300" y="781" on="0"/>
        <pt x="254" y="771" on="1"/>
        <pt x="230" y="811" on="1"/>
        <pt x="375" y="942" on="1"/>
        <pt x="415" y="942" on="1"/>
        <pt x="560" y="811" on="1"/>
      </contour>
    </TTGlyph>
    <TTGlyph name="Odieresis" xMin="135" yMin="0" xMax="971" yMax="916">
      <contour>
        <pt x="690" y="437" on="1"/>
        <pt x="690" y="295" on="0"/>
        <pt x="604" y="118" on="0"/>
        <pt x="515" y="70" on="1"/>
        <pt x="971" y="70" on="1"/>
        <pt x="971" y="48" on="0"/>
        <pt x="959" y="21" on="0"/>
        <pt x="939" y="6" on="0"/>
        <pt x="914" y="0" on="0"/>
        <pt x="901" y="0" on="1"/>
        <pt x="214" y="0" on="1"/>
        <pt x="189" y="0" on="0"/>
        <pt x="158" y="13" on="0"/>
        <pt x="141" y="36" on="0"/>
        <pt x="135" y="67" on="0"/>
        <pt x="135" y="84" on="1"/>
        <pt x="135" y="282" on="1"/>
        <pt x="135" y="397" on="0"/>
        <pt x="193" y="563" on="0"/>
        <pt x="310" y="669" on="0"/>
        <pt x="489" y="720" on="0"/>
        <pt x="611" y="720" on="1"/>
        <pt x="636" y="720" on="0"/>
        <pt x="667" y="707" on="0"/>
        <pt x="684" y="684" on="0"/>
        <pt x="690" y="653" on="0"/>
        <pt x="690" y="636" on="1"/>
      </contour>
      <contour>
        <pt x="225" y="70" on="1"/>
        <pt x="325" y="70" on="0"/>
        <pt x="467" y="113" on="0"/>
        <pt x="558" y="202" on="0"/>
        <pt x="600" y="341" on="0"/>
        <pt x="600" y="437" on="1"/>
        <pt x="600" y="640" on="1"/>
        <pt x="500" y="640" on="0"/>
        <pt x="358" y="600" on="0"/>
        <pt x="267" y="514" on="0"/>
        <pt x="225" y="378" on="0"/>
        <pt x="225" y="282" on="1"/>
      </contour>
      <contour>
        <pt x="273" y="854" on="1"/>
        <pt x="273" y="879" on="0"/>
        <pt x="303" y="916" on="0"/>
        <pt x="334" y="916" on="1"/>
        <pt x="364" y="916" on="0"/>
        <pt x="396" y="879" on="0"/>
        <pt x="396" y="854" on="1"/>
        <pt x="396" y="828" on="0"/>
        <pt x="364" y="793" on="0"/>
        <pt x="334" y="793" on="1"/>
        <pt x="303" y="793" on="0"/>
        <pt x="273" y="828" on="0"/>
      </contour>
      <contour>
        <pt x="495" y="854" on="1"/>
        <pt x="495" y="879" on="0"/>
        <pt x="525" y="916" on="0"/>
        <pt x="556" y="916" on="1"/>
        <pt x="586" y="916" on="0"/>
        <pt x="618" y="879" on="0"/>
        <pt x="618" y="854" on="1"/>
        <pt x="618" y="828" on="0"/>
        <pt x="586" y="793" on="0"/>
        <pt x="556" y="793" on="1"/>
        <pt x="525" y="793" on="0"/>
        <pt x="495" y="828" on="0"/>
      </contour>
    </TTGlyph>
    <TTGlyph name="Ograve" xMin="115" yMin="0" xMax="951" yMax="942">
      <contour>
        <pt x="670" y="437" on="1"/>
        <pt x="670" y="295" on="0"/>
        <pt x="584" y="118" on="0"/>
        <pt x="495" y="70" on="1"/>
        <pt x="951" y="70" on="1"/>
        <pt x="951" y="48" on="0"/>
        <pt x="939" y="21" on="0"/>
        <pt x="919" y="6" on="0"/>
        <pt x="894" y="0" on="0"/>
        <pt x="881" y="0" on="1"/>
        <pt x="194" y="0" on="1"/>
        <pt x="169" y="0" on="0"/>
        <pt x="138" y="13" on="0"/>
        <pt x="121" y="36" on="0"/>
        <pt x="115" y="67" on="0"/>
        <pt x="115" y="84" on="1"/>
        <pt x="115" y="282" on="1"/>
        <pt x="115" y="397" on="0"/>
        <pt x="173" y="563" on="0"/>
        <pt x="290" y="669" on="0"/>
        <pt x="469" y="720" on="0"/>
        <pt x="591" y="720" on="1"/>
        <pt x="616" y="720" on="0"/>
        <pt x="647" y="707" on="0"/>
        <pt x="664" y="684" on="0"/>
        <pt x="670" y="653" on="0"/>
        <pt x="670" y="636" on="1"/>
      </contour>
      <contour>
        <pt x="205" y="70" on="1"/>
        <pt x="305" y="70" on="0"/>
        <pt x="447" y="113" on="0"/>
        <pt x="538" y="202" on="0"/>
        <pt x="580" y="341" on="0"/>
        <pt x="580" y="437" on="1"/>
        <pt x="580" y="640" on="1"/>
        <pt x="480" y="640" on="0"/>
        <pt x="338" y="600" on="0"/>
        <pt x="247" y="514" on="0"/>
        <pt x="205" y="378" on="0"/>
        <pt x="205" y="282" on="1"/>
      </contour>
      <contour>
        <pt x="511" y="770" on="1"/>
        <pt x="476" y="776" on="0"/>
        <pt x="398" y="795" on="0"/>
        <pt x="330" y="819" on="0"/>
        <pt x="286" y="848" on="0"/>
        <pt x="286" y="865" on="1"/>
        <pt x="286" y="884" on="0"/>
        <pt x="311" y="922" on="1"/>
        <pt x="324" y="942" on="1"/>
        <pt x="533" y="811" on="1"/>
      </contour>
    </TTGlyph>
    <TTGlyph name="Omega" xMin="50" yMin="0" xMax="778" yMax="710">
      <contour>
        <pt x="414" y="630" on="1"/>
        <pt x="350" y="630" on="0"/>
        <pt x="260" y="592" on="0"/>
        <pt x="203" y="507" on="0"/>
        <pt x="176" y="370" on="0"/>
        <pt x="176" y="270" on="1"/>
        <pt x="283" y="270" on="1"/>
        <pt x="306" y="270" on="0"/>
        <pt x="344" y="252" on="0"/>
        <pt x="344" y="223" on="1"/>
        <pt x="344" y="219" on="1"/>
        <pt x="344" y="170" on="0"/>
        <pt x="330" y="90" on="0"/>
        <pt x="289" y="32" on="0"/>
        <pt x="215" y="0" on="0"/>
        <pt x="155" y="0" on="1"/>
        <pt x="109" y="0" on="1"/>
        <pt x="81" y="0" on="0"/>
        <pt x="50" y="32" on="0"/>
        <pt x="50" y="70" on="1"/>
        <pt x="50" y="80" on="1"/>
        <pt x="152" y="80" on="1"/>
        <pt x="186" y="80" on="0"/>
        <pt x="227" y="93" on="0"/>
        <pt x="248" y="122" on="0"/>
        <pt x="254" y="168" on="0"/>
        <pt x="254" y="200" on="1"/>
        <pt x="176" y="200" on="1"/>
        <pt x="148" y="200" on="0"/>
        <pt x="113" y="211" on="0"/>
        <pt x="93" y="232" on="0"/>
        <pt x="86" y="261" on="0"/>
        <pt x="86" y="280" on="1"/>
        <pt x="86" y="393" on="0"/>
        <pt x="131" y="555" on="0"/>
        <pt x="215" y="660" on="0"/>
        <pt x="337" y="710" on="0"/>
        <pt x="414" y="710" on="1"/>
        <pt x="491" y="710" on="0"/>
        <pt x="613" y="660" on="0"/>
        <pt x="697" y="555" on="0"/>
        <pt x="742" y="393" on="0"/>
        <pt x="742" y="280" on="1"/>
        <pt x="742" y="261" on="0"/>
        <pt x="735" y="232" on="0"/>
        <pt x="715" y="211" on="0"/>
        <pt x="680" y="200" on="0"/>
        <pt x="652" y="200" on="1"/>
        <pt x="574" y="200" on="1"/>
        <pt x="574" y="168" on="0"/>
        <pt x="580" y="122" on="0"/>
        <pt x="601" y="93" on="0"/>
        <pt x="642" y="80" on="0"/>
        <pt x="676" y="80" on="1"/>
        <pt x="778" y="80" on="1"/>
        <pt x="778" y="70" on="1"/>
        <pt x="778" y="32" on="0"/>
        <pt x="747" y="0" on="0"/>
        <pt x="719" y="0" on="1"/>
        <pt x="673" y="0" on="1"/>
        <pt x="613" y="0" on="0"/>
        <pt x="539" y="32" on="0"/>
        <pt x="498" y="90" on="0"/>
        <pt x="484" y="170" on="0"/>
        <pt x="484" y="219" on="1"/>
        <pt x="484" y="223" on="1"/>
        <pt x="484" y="252" on="0"/>
        <pt x="522" y="270" on="0"/>
        <pt x="545" y="270" on="1"/>
        <pt x="652" y="270" on="1"/>
        <pt x="652" y="370" on="0"/>
        <pt x="625" y="507" on="0"/>
        <pt x="568" y="592" on="0"/>
        <pt x="478" y="630" on="0"/>
      </contour>
    </TTGlyph>
    <TTGlyph name="Oslash" xMin="115" yMin="-100" xMax="951" yMax="810">
      <contour>
        <pt x="522" y="718" on="1"/>
        <pt x="539" y="719" on="0"/>
        <pt x="573" y="720" on="0"/>
        <pt x="591" y="720" on="1"/>
        <pt x="616" y="720" on="0"/>
        <pt x="647" y="707" on="0"/>
        <pt x="664" y="684" on="0"/>
        <pt x="670" y="653" on="0"/>
        <pt x="670" y="636" on="1"/>
        <pt x="670" y="437" on="1"/>
        <pt x="670" y="295" on="0"/>
        <pt x="584" y="118" on="0"/>
        <pt x="495" y="70" on="1"/>
        <pt x="951" y="70" on="1"/>
        <pt x="951" y="48" on="0"/>
        <pt x="939" y="21" on="0"/>
        <pt x="919" y="6" on="0"/>
        <pt x="894" y="0" on="0"/>
        <pt x="881" y="0" on="1"/>
        <pt x="330" y="0" on="1"/>
        <pt x="320" y="-40" on="1"/>
        <pt x="315" y="-58" on="0"/>
        <pt x="304" y="-82" on="0"/>
        <pt x="286" y="-95" on="0"/>
        <pt x="261" y="-100" on="0"/>
        <pt x="243" y="-100" on="1"/>
        <pt x="234" y="-100" on="1"/>
        <pt x="260" y="0" on="1"/>
        <pt x="194" y="0" on="1"/>
        <pt x="169" y="0" on="0"/>
        <pt x="138" y="13" on="0"/>
        <pt x="121" y="36" on="0"/>
        <pt x="115" y="67" on="0"/>
        <pt x="115" y="84" on="1"/>
        <pt x="115" y="282" on="1"/>
        <pt x="115" y="475" on="0"/>
        <pt x="280" y="683" on="0"/>
        <pt x="450" y="710" on="1"/>
        <pt x="461" y="750" on="1"/>
        <pt x="467" y="771" on="0"/>
        <pt x="480" y="795" on="0"/>
        <pt x="498" y="807" on="0"/>
        <pt x="522" y="810" on="0"/>
        <pt x="538" y="810" on="1"/>
        <pt x="547" y="810" on="1"/>
      </contour>
      <contour>
        <pt x="580" y="640" on="1"/>
        <pt x="559" y="640" on="0"/>
        <pt x="519" y="638" on="0"/>
        <pt x="500" y="636" on="1"/>
        <pt x="353" y="85" on="1"/>
        <pt x="472" y="113" on="0"/>
        <pt x="580" y="285" on="0"/>
        <pt x="580" y="437" on="1"/>
      </contour>
      <contour>
        <pt x="205" y="70" on="1"/>
        <pt x="244" y="70" on="0"/>
        <pt x="280" y="73" on="1"/>
        <pt x="427" y="625" on="1"/>
        <pt x="310" y="597" on="0"/>
        <pt x="205" y="432" on="0"/>
        <pt x="205" y="282" on="1"/>
      </contour>
    </TTGlyph>
    <TTGlyph name="Otilde" xMin="115" yMin="0" xMax="951" yMax="913">
      <contour>
        <pt x="670" y="437" on="1"/>
        <pt x="670" y="295" on="0"/>
        <pt x="584" y="118" on="0"/>
        <pt x="495" y="70" on="1"/>
        <pt x="951" y="70" on="1"/>
        <pt x="951" y="48" on="0"/>
        <pt x="939" y="21" on="0"/>
        <pt x="919" y="6" on="0"/>
        <pt x="894" y="0" on="0"/>
        <pt x="881" y="0" on="1"/>
        <pt x="194" y="0" on="1"/>
        <pt x="169" y="0" on="0"/>
        <pt x="138" y="13" on="0"/>
        <pt x="121" y="36" on="0"/>
        <pt x="115" y="67" on="0"/>
        <pt x="115" y="84" on="1"/>
        <pt x="115" y="282" on="1"/>
        <pt x="115" y="397" on="0"/>
        <pt x="173" y="563" on="0"/>
        <pt x="290" y="669" on="0"/>
        <pt x="469" y="720" on="0"/>
        <pt x="591" y="720" on="1"/>
        <pt x="616" y="720" on="0"/>
        <pt x="647" y="707" on="0"/>
        <pt x="664" y="684" on="0"/>
        <pt x="670" y="653" on="0"/>
        <pt x="670" y="636" on="1"/>
      </contour>
      <contour>
        <pt x="205" y="70" on="1"/>
        <pt x="305" y="70" on="0"/>
        <pt x="447" y="113" on="0"/>
        <pt x="538" y="202" on="0"/>
        <pt x="580" y="341" on="0"/>
        <pt x="580" y="437" on="1"/>
        <pt x="580" y="640" on="1"/>
        <pt x="480" y="640" on="0"/>
        <pt x="338" y="600" on="0"/>
        <pt x="247" y="514" on="0"/>
        <pt x="205" y="378" on="0"/>
        <pt x="205" y="282" on="1"/>
      </contour>
      <contour>
        <pt x="301" y="885" on="1"/>
        <pt x="310" y="877" on="0"/>
        <pt x="329" y="866" on="0"/>
        <pt x="343" y="866" on="1"/>
        <pt x="361" y="866" on="0"/>
        <pt x="403" y="884" on="1"/>
        <pt x="437" y="899" on="1"/>
        <pt x="468" y="913" on="0"/>
        <pt x="499" y="913" on="1"/>
        <pt x="537" y="913" on="0"/>
        <pt x="587" y="870" on="0"/>
        <pt x="587" y="837" on="1"/>
        <pt x="587" y="827" on="0"/>
        <pt x="580" y="802" on="0"/>
        <pt x="566" y="786" on="1"/>
        <pt x="540" y="811" on="1"/>
        <pt x="531" y="819" on="0"/>
        <pt x="512" y="830" on="0"/>
        <pt x="498" y="830" on="1"/>
        <pt x="480" y="830" on="0"/>
        <pt x="438" y="812" on="1"/>
        <pt x="404" y="797" on="1"/>
        <pt x="373" y="783" on="0"/>
        <pt x="342" y="783" on="1"/>
        <pt x="304" y="783" on="0"/>
        <pt x="254" y="826" on="0"/>
        <pt x="254" y="859" on="1"/>
        <pt x="254" y="869" on="0"/>
        <pt x="261" y="894" on="0"/>
        <pt x="275" y="910" on="1"/>
      </contour>
    </TTGlyph>
    <TTGlyph name="P" xMin="100" yMin="0" xMax="807" yMax="710">
      <contour>
        <pt x="161" y="200" on="1"/>
        <pt x="152" y="200" on="0"/>
        <pt x="136" y="205" on="0"/>
        <pt x="124" y="218" on="0"/>
        <pt x="116" y="241" on="0"/>
        <pt x="116" y="260" on="1"/>
        <pt x="116" y="280" on="1"/>
        <pt x="130" y="280" on="0"/>
        <pt x="156" y="280" on="0"/>
        <pt x="170" y="282" on="1"/>
        <pt x="170" y="580" on="1"/>
        <pt x="199" y="580" on="1"/>
        <pt x="210" y="580" on="0"/>
        <pt x="232" y="575" on="0"/>
        <pt x="249" y="562" on="0"/>
        <pt x="260" y="539" on="0"/>
        <pt x="260" y="520" on="1"/>
        <pt x="260" y="296" on="1"/>
        <pt x="326" y="312" on="0"/>
        <pt x="420" y="368" on="0"/>
        <pt x="482" y="434" on="0"/>
        <pt x="511" y="503" on="0"/>
        <pt x="511" y="532" on="1"/>
        <pt x="511" y="553" on="0"/>
        <pt x="495" y="589" on="0"/>
        <pt x="457" y="615" on="0"/>
        <pt x="395" y="630" on="0"/>
        <pt x="349" y="630" on="1"/>
        <pt x="100" y="630" on="1"/>
        <pt x="100" y="650" on="1"/>
        <pt x="100" y="669" on="0"/>
        <pt x="109" y="692" on="0"/>
        <pt x="123" y="705" on="0"/>
        <pt x="140" y="710" on="0"/>
        <pt x="149" y="710" on="1"/>
        <pt x="349" y="710" on="1"/>
        <pt x="433" y="710" on="0"/>
        <pt x="533" y="669" on="0"/>
        <pt x="585" y="612" on="0"/>
        <pt x="601" y="552" on="0"/>
        <pt x="601" y="532" on="1"/>
        <pt x="601" y="478" on="0"/>
        <pt x="542" y="376" on="0"/>
        <pt x="446" y="291" on="0"/>
        <pt x="323" y="227" on="0"/>
        <pt x="260" y="212" on="1"/>
        <pt x="260" y="70" on="1"/>
        <pt x="807" y="70" on="1"/>
        <pt x="807" y="48" on="0"/>
        <pt x="795" y="21" on="0"/>
        <pt x="775" y="6" on="0"/>
        <pt x="750" y="0" on="0"/>
        <pt x="737" y="0" on="1"/>
        <pt x="231" y="0" on="1"/>
        <pt x="220" y="0" on="0"/>
        <pt x="198" y="5" on="0"/>
        <pt x="181" y="18" on="0"/>
        <pt x="170" y="41" on="0"/>
        <pt x="170" y="60" on="1"/>
        <pt x="170" y="200" on="1"/>
      </contour>
    </TTGlyph>
    <TTGlyph name="Q" xMin="115" yMin="-20" xMax="951" yMax="720">
      <contour>
        <pt x="205" y="282" on="1"/>
        <pt x="205" y="263" on="0"/>
        <pt x="194" y="240" on="0"/>
        <pt x="177" y="227" on="0"/>
        <pt x="155" y="222" on="0"/>
        <pt x="144" y="222" on="1"/>
        <pt x="115" y="222" on="1"/>
        <pt x="115" y="282" on="1"/>
        <pt x="115" y="397" on="0"/>
        <pt x="173" y="563" on="0"/>
        <pt x="290" y="669" on="0"/>
        <pt x="469" y="720" on="0"/>
        <pt x="591" y="720" on="1"/>
        <pt x="616" y="720" on="0"/>
        <pt x="647" y="707" on="0"/>
        <pt x="664" y="684" on="0"/>
        <pt x="670" y="653" on="0"/>
        <pt x="670" y="636" on="1"/>
        <pt x="670" y="437" on="1"/>
        <pt x="670" y="297" on="0"/>
        <pt x="586" y="118" on="0"/>
        <pt x="498" y="70" on="1"/>
        <pt x="951" y="70" on="1"/>
        <pt x="951" y="48" on="0"/>
        <pt x="939" y="21" on="0"/>
        <pt x="919" y="6" on="0"/>
        <pt x="894" y="0" on="0"/>
        <pt x="881" y="0" on="1"/>
        <pt x="300" y="0" on="1"/>
        <pt x="278" y="-8" on="0"/>
        <pt x="230" y="-20" on="0"/>
        <pt x="204" y="-20" on="1"/>
        <pt x="188" y="-20" on="0"/>
        <pt x="156" y="-13" on="0"/>
        <pt x="131" y="7" on="0"/>
        <pt x="115" y="42" on="0"/>
        <pt x="115" y="70" on="1"/>
        <pt x="205" y="70" on="1"/>
        <pt x="305" y="70" on="0"/>
        <pt x="447" y="113" on="0"/>
        <pt x="538" y="202" on="0"/>
        <pt x="580" y="341" on="0"/>
        <pt x="580" y="437" on="1"/>
        <pt x="580" y="640" on="1"/>
        <pt x="480" y="640" on="0"/>
        <pt x="338" y="600" on="0"/>
        <pt x="247" y="514" on="0"/>
        <pt x="205" y="378" on="0"/>
      </contour>
    </TTGlyph>
    <TTGlyph name="R" xMin="100" yMin="0" xMax="837" yMax="710">
      <contour>
        <pt x="714" y="0" on="1"/>
        <pt x="631" y="0" on="0"/>
        <pt x="513" y="42" on="0"/>
        <pt x="432" y="112" on="0"/>
        <pt x="385" y="203" on="0"/>
        <pt x="372" y="253" on="1"/>
        <pt x="317" y="225" on="0"/>
        <pt x="260" y="212" on="1"/>
        <pt x="260" y="20" on="1"/>
        <pt x="260" y="12" on="0"/>
        <pt x="248" y="0" on="0"/>
        <pt x="240" y="0" on="1"/>
        <pt x="190" y="0" on="1"/>
        <pt x="182" y="0" on="0"/>
        <pt x="170" y="12" on="0"/>
        <pt x="170" y="20" on="1"/>
        <pt x="170" y="200" on="1"/>
        <pt x="161" y="200" on="1"/>
        <pt x="152" y="200" on="0"/>
        <pt x="136" y="205" on="0"/>
        <pt x="124" y="218" on="0"/>
        <pt x="116" y="241" on="0"/>
        <pt x="116" y="260" on="1"/>
        <pt x="116" y="280" on="1"/>
        <pt x="130" y="280" on="0"/>
        <pt x="156" y="280" on="0"/>
        <pt x="170" y="282" on="1"/>
        <pt x="170" y="580" on="1"/>
        <pt x="199" y="580" on="1"/>
        <pt x="210" y="580" on="0"/>
        <pt x="232" y="575" on="0"/>
        <pt x="249" y="562" on="0"/>
        <pt x="260" y="539" on="0"/>
        <pt x="260" y="520" on="1"/>
        <pt x="260" y="296" on="1"/>
        <pt x="326" y="312" on="0"/>
        <pt x="420" y="368" on="0"/>
        <pt x="482" y="434" on="0"/>
        <pt x="511" y="503" on="0"/>
        <pt x="511" y="532" on="1"/>
        <pt x="511" y="553" on="0"/>
        <pt x="495" y="589" on="0"/>
        <pt x="457" y="615" on="0"/>
        <pt x="395" y="630" on="0"/>
        <pt x="349" y="630" on="1"/>
        <pt x="100" y="630" on="1"/>
        <pt x="100" y="650" on="1"/>
        <pt x="100" y="669" on="0"/>
        <pt x="109" y="692" on="0"/>
        <pt x="123" y="705" on="0"/>
        <pt x="140" y="710" on="0"/>
        <pt x="149" y="710" on="1"/>
        <pt x="349" y="710" on="1"/>
        <pt x="433" y="710" on="0"/>
        <pt x="533" y="669" on="0"/>
        <pt x="585" y="612" on="0"/>
        <pt x="601" y="552" on="0"/>
        <pt x="601" y="532" on="1"/>
        <pt x="601" y="466" on="0"/>
        <pt x="515" y="344" on="0"/>
        <pt x="448" y="298" on="1"/>
        <pt x="451" y="261" on="0"/>
        <pt x="484" y="180" on="0"/>
        <pt x="551" y="113" on="0"/>
        <pt x="655" y="70" on="0"/>
        <pt x="730" y="70" on="1"/>
        <pt x="837" y="70" on="1"/>
        <pt x="837" y="44" on="0"/>
        <pt x="822" y="16" on="0"/>
        <pt x="791" y="3" on="0"/>
        <pt x="745" y="0" on="0"/>
      </contour>
    </TTGlyph>
    <TTGlyph name="S" xMin="90" yMin="0" xMax="897" yMax="720">
      <contour>
        <pt x="535" y="374" on="1"/>
        <pt x="554" y="374" on="0"/>
        <pt x="587" y="369" on="0"/>
        <pt x="611" y="352" on="0"/>
        <pt x="625" y="320" on="0"/>
        <pt x="625" y="294" on="1"/>
        <pt x="625" y="232" on="0"/>
        <pt x="562" y="112" on="0"/>
        <pt x="488" y="70" on="1"/>
        <pt x="897" y="70" on="1"/>
        <pt x="897" y="48" on="0"/>
        <pt x="885" y="21" on="0"/>
        <pt x="865" y="6" on="0"/>
        <pt x="840" y="0" on="0"/>
        <pt x="827" y="0" on="1"/>
        <pt x="150" y="0" on="1"/>
        <pt x="139" y="0" on="0"/>
        <pt x="117" y="5" on="0"/>
        <pt x="100" y="18" on="0"/>
        <pt x="90" y="41" on="0"/>
        <pt x="90" y="60" on="1"/>
        <pt x="90" y="70" on="1"/>
        <pt x="153" y="70" on="1"/>
        <pt x="236" y="70" on="0"/>
        <pt x="358" y="92" on="0"/>
        <pt x="442" y="128" on="0"/>
        <pt x="495" y="175" on="0"/>
        <pt x="525" y="226" on="0"/>
        <pt x="535" y="277" on="0"/>
        <pt x="535" y="299" on="1"/>
        <pt x="180" y="299" on="1"/>
        <pt x="161" y="299" on="0"/>
        <pt x="128" y="306" on="0"/>
        <pt x="104" y="325" on="0"/>
        <pt x="90" y="358" on="0"/>
        <pt x="90" y="384" on="1"/>
        <pt x="90" y="439" on="0"/>
        <pt x="128" y="557" on="0"/>
        <pt x="227" y="656" on="0"/>
        <pt x="400" y="720" on="0"/>
        <pt x="535" y="720" on="1"/>
        <pt x="546" y="720" on="0"/>
        <pt x="568" y="715" on="0"/>
        <pt x="585" y="702" on="0"/>
        <pt x="595" y="679" on="0"/>
        <pt x="595" y="660" on="1"/>
        <pt x="595" y="640" on="1"/>
        <pt x="522" y="640" on="1"/>
        <pt x="441" y="640" on="0"/>
        <pt x="328" y="613" on="0"/>
        <pt x="252" y="568" on="0"/>
        <pt x="208" y="512" on="0"/>
        <pt x="186" y="453" on="0"/>
        <pt x="180" y="396" on="0"/>
        <pt x="180" y="374" on="1"/>
      </contour>
    </TTGlyph>
    <TTGlyph name="Scaron" xMin="90" yMin="0" xMax="897" yMax="962">
      <contour>
        <pt x="535" y="374" on="1"/>
        <pt x="554" y="374" on="0"/>
        <pt x="587" y="369" on="0"/>
        <pt x="611" y="352" on="0"/>
        <pt x="625" y="320" on="0"/>
        <pt x="625" y="294" on="1"/>
        <pt x="625" y="232" on="0"/>
        <pt x="562" y="112" on="0"/>
        <pt x="488" y="70" on="1"/>
        <pt x="897" y="70" on="1"/>
        <pt x="897" y="48" on="0"/>
        <pt x="885" y="21" on="0"/>
        <pt x="865" y="6" on="0"/>
        <pt x="840" y="0" on="0"/>
        <pt x="827" y="0" on="1"/>
        <pt x="150" y="0" on="1"/>
        <pt x="139" y="0" on="0"/>
        <pt x="117" y="5" on="0"/>
        <pt x="100" y="18" on="0"/>
        <pt x="90" y="41" on="0"/>
        <pt x="90" y="60" on="1"/>
        <pt x="90" y="70" on="1"/>
        <pt x="153" y="70" on="1"/>
        <pt x="236" y="70" on="0"/>
        <pt x="358" y="92" on="0"/>
        <pt x="442" y="128" on="0"/>
        <pt x="495" y="175" on="0"/>
        <pt x="525" y="226" on="0"/>
        <pt x="535" y="277" on="0"/>
        <pt x="535" y="299" on="1"/>
        <pt x="180" y="299" on="1"/>
        <pt x="161" y="299" on="0"/>
        <pt x="128" y="306" on="0"/>
        <pt x="104" y="325" on="0"/>
        <pt x="90" y="358" on="0"/>
        <pt x="90" y="384" on="1"/>
        <pt x="90" y="439" on="0"/>
        <pt x="128" y="557" on="0"/>
        <pt x="227" y="656" on="0"/>
        <pt x="400" y="720" on="0"/>
        <pt x="535" y="720" on="1"/>
        <pt x="546" y="720" on="0"/>
        <pt x="568" y="715" on="0"/>
        <pt x="585" y="702" on="0"/>
        <pt x="595" y="679" on="0"/>
        <pt x="595" y="660" on="1"/>
        <pt x="595" y="640" on="1"/>
        <pt x="522" y="640" on="1"/>
        <pt x="441" y="640" on="0"/>
        <pt x="328" y="613" on="0"/>
        <pt x="252" y="568" on="0"/>
        <pt x="208" y="512" on="0"/>
        <pt x="186" y="453" on="0"/>
        <pt x="180" y="396" on="0"/>
        <pt x="180" y="374" on="1"/>
      </contour>
      <contour>
        <pt x="213" y="962" on="1"/>
        <pt x="235" y="957" on="0"/>
        <pt x="278" y="940" on="0"/>
        <pt x="316" y="919" on="0"/>
        <pt x="346" y="897" on="0"/>
        <pt x="354" y="888" on="1"/>
        <pt x="372" y="909" on="0"/>
        <pt x="449" y="952" on="0"/>
        <pt x="495" y="962" on="1"/>
        <pt x="519" y="922" on="1"/>
        <pt x="374" y="791" on="1"/>
        <pt x="334" y="791" on="1"/>
        <pt x="189" y="922" on="1"/>
      </contour>
    </TTGlyph>
    <TTGlyph name="T" xMin="111" yMin="0" xMax="960" yMax="726">
      <contour>
        <pt x="238" y="70" on="1"/>
        <pt x="338" y="70" on="0"/>
        <pt x="468" y="105" on="0"/>
        <pt x="543" y="176" on="0"/>
        <pt x="573" y="284" on="0"/>
        <pt x="573" y="358" on="1"/>
        <pt x="573" y="395" on="0"/>
        <pt x="611" y="418" on="0"/>
        <pt x="634" y="418" on="1"/>
        <pt x="663" y="418" on="1"/>
        <pt x="663" y="358" on="1"/>
        <pt x="663" y="250" on="0"/>
        <pt x="603" y="112" on="0"/>
        <pt x="532" y="70" on="1"/>
        <pt x="960" y="70" on="1"/>
        <pt x="960" y="48" on="0"/>
        <pt x="948" y="21" on="0"/>
        <pt x="928" y="6" on="0"/>
        <pt x="903" y="0" on="0"/>
        <pt x="890" y="0" on="1"/>
        <pt x="227" y="0" on="1"/>
        <pt x="202" y="0" on="0"/>
        <pt x="171" y="13" on="0"/>
        <pt x="154" y="36" on="0"/>
        <pt x="148" y="67" on="0"/>
        <pt x="148" y="84" on="1"/>
        <pt x="148" y="175" on="0"/>
        <pt x="184" y="339" on="0"/>
        <pt x="247" y="478" on="0"/>
        <pt x="333" y="591" on="0"/>
        <pt x="383" y="630" on="1"/>
        <pt x="165" y="630" on="1"/>
        <pt x="131" y="630" on="0"/>
        <pt x="111" y="664" on="0"/>
        <pt x="111" y="684" on="1"/>
        <pt x="111" y="710" on="1"/>
        <pt x="502" y="710" on="1"/>
        <pt x="548" y="726" on="0"/>
        <pt x="597" y="726" on="1"/>
        <pt x="613" y="726" on="0"/>
        <pt x="644" y="717" on="0"/>
        <pt x="670" y="695" on="0"/>
        <pt x="686" y="658" on="0"/>
        <pt x="686" y="630" on="1"/>
        <pt x="605" y="630" on="1"/>
        <pt x="519" y="630" on="0"/>
        <pt x="383" y="542" on="0"/>
        <pt x="288" y="390" on="0"/>
        <pt x="238" y="186" on="0"/>
      </contour>
    </TTGlyph>
    <TTGlyph name="Thorn" xMin="116" yMin="0" xMax="807" yMax="710">
      <contour>
        <pt x="161" y="120" on="1"/>
        <pt x="152" y="120" on="0"/>
        <pt x="136" y="125" on="0"/>
        <pt x="124" y="138" on="0"/>
        <pt x="116" y="161" on="0"/>
        <pt x="116" y="180" on="1"/>
        <pt x="116" y="200" on="1"/>
        <pt x="130" y="200" on="0"/>
        <pt x="156" y="200" on="0"/>
        <pt x="170" y="202" on="1"/>
        <pt x="170" y="690" on="1"/>
        <pt x="170" y="698" on="0"/>
        <pt x="182" y="710" on="0"/>
        <pt x="190" y="710" on="1"/>
        <pt x="239" y="710" on="1"/>
        <pt x="247" y="710" on="0"/>
        <pt x="260" y="698" on="0"/>
        <pt x="260" y="690" on="1"/>
        <pt x="260" y="630" on="1"/>
        <pt x="349" y="630" on="1"/>
        <pt x="433" y="630" on="0"/>
        <pt x="533" y="589" on="0"/>
        <pt x="585" y="532" on="0"/>
        <pt x="601" y="472" on="0"/>
        <pt x="601" y="452" on="1"/>
        <pt x="601" y="398" on="0"/>
        <pt x="542" y="296" on="0"/>
        <pt x="446" y="211" on="0"/>
        <pt x="323" y="147" on="0"/>
        <pt x="260" y="132" on="1"/>
        <pt x="260" y="70" on="1"/>
        <pt x="807" y="70" on="1"/>
        <pt x="807" y="48" on="0"/>
        <pt x="795" y="21" on="0"/>
        <pt x="775" y="6" on="0"/>
        <pt x="750" y="0" on="0"/>
        <pt x="737" y="0" on="1"/>
        <pt x="231" y="0" on="1"/>
        <pt x="220" y="0" on="0"/>
        <pt x="198" y="5" on="0"/>
        <pt x="181" y="18" on="0"/>
        <pt x="170" y="41" on="0"/>
        <pt x="170" y="60" on="1"/>
        <pt x="170" y="120" on="1"/>
      </contour>
      <contour>
        <pt x="260" y="550" on="1"/>
        <pt x="260" y="216" on="1"/>
        <pt x="326" y="232" on="0"/>
        <pt x="420" y="288" on="0"/>
        <pt x="482" y="354" on="0"/>
        <pt x="511" y="423" on="0"/>
        <pt x="511" y="452" on="1"/>
        <pt x="511" y="473" on="0"/>
        <pt x="495" y="509" on="0"/>
        <pt x="457" y="535" on="0"/>
        <pt x="395" y="550" on="0"/>
        <pt x="349" y="550" on="1"/>
      </contour>
    </TTGlyph>
    <TTGlyph name="U" xMin="160" yMin="-10" xMax="1007" yMax="710">
      <contour>
        <pt x="587" y="347" on="1"/>
        <pt x="555" y="275" on="0"/>
        <pt x="472" y="146" on="0"/>
        <pt x="382" y="48" on="0"/>
        <pt x="290" y="-10" on="0"/>
        <pt x="250" y="-10" on="1"/>
        <pt x="224" y="-10" on="0"/>
        <pt x="189" y="4" on="0"/>
        <pt x="168" y="28" on="0"/>
        <pt x="160" y="61" on="0"/>
        <pt x="160" y="80" on="1"/>
        <pt x="160" y="690" on="1"/>
        <pt x="160" y="698" on="0"/>
        <pt x="172" y="710" on="0"/>
        <pt x="180" y="710" on="1"/>
        <pt x="230" y="710" on="1"/>
        <pt x="238" y="710" on="0"/>
        <pt x="250" y="698" on="0"/>
        <pt x="250" y="690" on="1"/>
        <pt x="250" y="70" on="1"/>
        <pt x="271" y="70" on="0"/>
        <pt x="338" y="117" on="0"/>
        <pt x="413" y="198" on="0"/>
        <pt x="488" y="309" on="0"/>
        <pt x="549" y="438" on="0"/>
        <pt x="587" y="577" on="0"/>
        <pt x="587" y="647" on="1"/>
        <pt x="587" y="710" on="1"/>
        <pt x="623" y="710" on="1"/>
        <pt x="698" y="710" on="0"/>
        <pt x="698" y="619" on="1"/>
        <pt x="698" y="592" on="0"/>
        <pt x="686" y="542" on="0"/>
        <pt x="677" y="519" on="1"/>
        <pt x="677" y="70" on="1"/>
        <pt x="1007" y="70" on="1"/>
        <pt x="1007" y="48" on="0"/>
        <pt x="995" y="21" on="0"/>
        <pt x="975" y="6" on="0"/>
        <pt x="950" y="0" on="0"/>
        <pt x="937" y="0" on="1"/>
        <pt x="648" y="0" on="1"/>
        <pt x="637" y="0" on="0"/>
        <pt x="615" y="5" on="0"/>
        <pt x="598" y="18" on="0"/>
        <pt x="587" y="41" on="0"/>
        <pt x="587" y="60" on="1"/>
        <pt x="587" y="347" on="1"/>
      </contour>
    </TTGlyph>
    <TTGlyph name="Uacute" xMin="160" yMin="-10" xMax="1007" yMax="942">
      <contour>
        <pt x="587" y="347" on="1"/>
        <pt x="555" y="275" on="0"/>
        <pt x="472" y="146" on="0"/>
        <pt x="382" y="48" on="0"/>
        <pt x="290" y="-10" on="0"/>
        <pt x="250" y="-10" on="1"/>
        <pt x="224" y="-10" on="0"/>
        <pt x="189" y="4" on="0"/>
        <pt x="168" y="28" on="0"/>
        <pt x="160" y="61" on="0"/>
        <pt x="160" y="80" on="1"/>
        <pt x="160" y="690" on="1"/>
        <pt x="160" y="698" on="0"/>
        <pt x="172" y="710" on="0"/>
        <pt x="180" y="710" on="1"/>
        <pt x="230" y="710" on="1"/>
        <pt x="238" y="710" on="0"/>
        <pt x="250" y="698" on="0"/>
        <pt x="250" y="690" on="1"/>
        <pt x="250" y="70" on="1"/>
        <pt x="271" y="70" on="0"/>
        <pt x="338" y="117" on="0"/>
        <pt x="413" y="198" on="0"/>
        <pt x="488" y="309" on="0"/>
        <pt x="549" y="438" on="0"/>
        <pt x="587" y="577" on="0"/>
        <pt x="587" y="647" on="1"/>
        <pt x="587" y="710" on="1"/>
        <pt x="623" y="710" on="1"/>
        <pt x="698" y="710" on="0"/>
        <pt x="698" y="619" on="1"/>
        <pt x="698" y="592" on="0"/>
        <pt x="686" y="542" on="0"/>
        <pt x="677" y="519" on="1"/>
        <pt x="677" y="70" on="1"/>
        <pt x="1007" y="70" on="1"/>
        <pt x="1007" y="48" on="0"/>
        <pt x="995" y="21" on="0"/>
        <pt x="975" y="6" on="0"/>
        <pt x="950" y="0" on="0"/>
        <pt x="937" y="0" on="1"/>
        <pt x="648" y="0" on="1"/>
        <pt x="637" y="0" on="0"/>
        <pt x="615" y="5" on="0"/>
        <pt x="598" y="18" on="0"/>
        <pt x="587" y="41" on="0"/>
        <pt x="587" y="60" on="1"/>
      </contour>
      <contour>
        <pt x="316" y="811" on="1"/>
        <pt x="526" y="942" on="1"/>
        <pt x="539" y="922" on="1"/>
        <pt x="563" y="885" on="0"/>
        <pt x="563" y="865" on="1"/>
        <pt x="563" y="848" on="0"/>
        <pt x="519" y="819" on="0"/>
        <pt x="452" y="795" on="0"/>
        <pt x="373" y="776" on="0"/>
        <pt x="339" y="770" on="1"/>
      </contour>
    </TTGlyph>
    <TTGlyph name="Ucircumflex" xMin="160" yMin="-10" xMax="1007" yMax="942">
      <contour>
        <pt x="587" y="347" on="1"/>
        <pt x="555" y="275" on="0"/>
        <pt x="472" y="146" on="0"/>
        <pt x="382" y="48" on="0"/>
        <pt x="290" y="-10" on="0"/>
        <pt x="250" y="-10" on="1"/>
        <pt x="224" y="-10" on="0"/>
        <pt x="189" y="4" on="0"/>
        <pt x="168" y="28" on="0"/>
        <pt x="160" y="61" on="0"/>
        <pt x="160" y="80" on="1"/>
        <pt x="160" y="690" on="1"/>
        <pt x="160" y="698" on="0"/>
        <pt x="172" y="710" on="0"/>
        <pt x="180" y="710" on="1"/>
        <pt x="230" y="710" on="1"/>
        <pt x="238" y="710" on="0"/>
        <pt x="250" y="698" on="0"/>
        <pt x="250" y="690" on="1"/>
        <pt x="250" y="70" on="1"/>
        <pt x="271" y="70" on="0"/>
        <pt x="338" y="117" on="0"/>
        <pt x="413" y="198" on="0"/>
        <pt x="488" y="309" on="0"/>
        <pt x="549" y="438" on="0"/>
        <pt x="587" y="577" on="0"/>
        <pt x="587" y="647" on="1"/>
        <pt x="587" y="710" on="1"/>
        <pt x="623" y="710" on="1"/>
        <pt x="698" y="710" on="0"/>
        <pt x="698" y="619" on="1"/>
        <pt x="698" y="592" on="0"/>
        <pt x="686" y="542" on="0"/>
        <pt x="677" y="519" on="1"/>
        <pt x="677" y="70" on="1"/>
        <pt x="1007" y="70" on="1"/>
        <pt x="1007" y="48" on="0"/>
        <pt x="995" y="21" on="0"/>
        <pt x="975" y="6" on="0"/>
        <pt x="950" y="0" on="0"/>
        <pt x="937" y="0" on="1"/>
        <pt x="648" y="0" on="1"/>
        <pt x="637" y="0" on="0"/>
        <pt x="615" y="5" on="0"/>
        <pt x="598" y="18" on="0"/>
        <pt x="587" y="41" on="0"/>
        <pt x="587" y="60" on="1"/>
      </contour>
      <contour>
        <pt x="558" y="771" on="1"/>
        <pt x="536" y="775" on="0"/>
        <pt x="493" y="793" on="0"/>
        <pt x="455" y="814" on="0"/>
        <pt x="425" y="836" on="0"/>
        <pt x="417" y="845" on="1"/>
        <pt x="399" y="824" on="0"/>
        <pt x="322" y="781" on="0"/>
        <pt x="276" y="771" on="1"/>
        <pt x="252" y="811" on="1"/>
        <pt x="397" y="942" on="1"/>
        <pt x="437" y="942" on="1"/>
        <pt x="582" y="811" on="1"/>
      </contour>
    </TTGlyph>
    <TTGlyph name="Udieresis" xMin="160" yMin="-10" xMax="1007" yMax="916">
      <contour>
        <pt x="587" y="347" on="1"/>
        <pt x="555" y="275" on="0"/>
        <pt x="472" y="146" on="0"/>
        <pt x="382" y="48" on="0"/>
        <pt x="290" y="-10" on="0"/>
        <pt x="250" y="-10" on="1"/>
        <pt x="224" y="-10" on="0"/>
        <pt x="189" y="4" on="0"/>
        <pt x="168" y="28" on="0"/>
        <pt x="160" y="61" on="0"/>
        <pt x="160" y="80" on="1"/>
        <pt x="160" y="690" on="1"/>
        <pt x="160" y="698" on="0"/>
        <pt x="172" y="710" on="0"/>
        <pt x="180" y="710" on="1"/>
        <pt x="230" y="710" on="1"/>
        <pt x="238" y="710" on="0"/>
        <pt x="250" y="698" on="0"/>
        <pt x="250" y="690" on="1"/>
        <pt x="250" y="70" on="1"/>
        <pt x="271" y="70" on="0"/>
        <pt x="338" y="117" on="0"/>
        <pt x="413" y="198" on="0"/>
        <pt x="488" y="309" on="0"/>
        <pt x="549" y="438" on="0"/>
        <pt x="587" y="577" on="0"/>
        <pt x="587" y="647" on="1"/>
        <pt x="587" y="710" on="1"/>
        <pt x="623" y="710" on="1"/>
        <pt x="698" y="710" on="0"/>
        <pt x="698" y="619" on="1"/>
        <pt x="698" y="592" on="0"/>
        <pt x="686" y="542" on="0"/>
        <pt x="677" y="519" on="1"/>
        <pt x="677" y="70" on="1"/>
        <pt x="1007" y="70" on="1"/>
        <pt x="1007" y="48" on="0"/>
        <pt x="995" y="21" on="0"/>
        <pt x="975" y="6" on="0"/>
        <pt x="950" y="0" on="0"/>
        <pt x="937" y="0" on="1"/>
        <pt x="648" y="0" on="1"/>
        <pt x="637" y="0" on="0"/>
        <pt x="615" y="5" on="0"/>
        <pt x="598" y="18" on="0"/>
        <pt x="587" y="41" on="0"/>
        <pt x="587" y="60" on="1"/>
      </contour>
      <contour>
        <pt x="256" y="854" on="1"/>
        <pt x="256" y="879" on="0"/>
        <pt x="286" y="916" on="0"/>
        <pt x="317" y="916" on="1"/>
        <pt x="347" y="916" on="0"/>
        <pt x="379" y="879" on="0"/>
        <pt x="379" y="854" on="1"/>
        <pt x="379" y="828" on="0"/>
        <pt x="347" y="793" on="0"/>
        <pt x="317" y="793" on="1"/>
        <pt x="286" y="793" on="0"/>
        <pt x="256" y="828" on="0"/>
      </contour>
      <contour>
        <pt x="478" y="854" on="1"/>
        <pt x="478" y="879" on="0"/>
        <pt x="508" y="916" on="0"/>
        <pt x="539" y="916" on="1"/>
        <pt x="569" y="916" on="0"/>
        <pt x="601" y="879" on="0"/>
        <pt x="601" y="854" on="1"/>
        <pt x="601" y="828" on="0"/>
        <pt x="569" y="793" on="0"/>
        <pt x="539" y="793" on="1"/>
        <pt x="508" y="793" on="0"/>
        <pt x="478" y="828" on="0"/>
      </contour>
    </TTGlyph>
    <TTGlyph name="Ugrave" xMin="160" yMin="-10" xMax="1007" yMax="942">
      <contour>
        <pt x="587" y="347" on="1"/>
        <pt x="555" y="275" on="0"/>
        <pt x="472" y="146" on="0"/>
        <pt x="382" y="48" on="0"/>
        <pt x="290" y="-10" on="0"/>
        <pt x="250" y="-10" on="1"/>
        <pt x="224" y="-10" on="0"/>
        <pt x="189" y="4" on="0"/>
        <pt x="168" y="28" on="0"/>
        <pt x="160" y="61" on="0"/>
        <pt x="160" y="80" on="1"/>
        <pt x="160" y="690" on="1"/>
        <pt x="160" y="698" on="0"/>
        <pt x="172" y="710" on="0"/>
        <pt x="180" y="710" on="1"/>
        <pt x="230" y="710" on="1"/>
        <pt x="238" y="710" on="0"/>
        <pt x="250" y="698" on="0"/>
        <pt x="250" y="690" on="1"/>
        <pt x="250" y="70" on="1"/>
        <pt x="271" y="70" on="0"/>
        <pt x="338" y="117" on="0"/>
        <pt x="413" y="198" on="0"/>
        <pt x="488" y="309" on="0"/>
        <pt x="549" y="438" on="0"/>
        <pt x="587" y="577" on="0"/>
        <pt x="587" y="647" on="1"/>
        <pt x="587" y="710" on="1"/>
        <pt x="623" y="710" on="1"/>
        <pt x="698" y="710" on="0"/>
        <pt x="698" y="619" on="1"/>
        <pt x="698" y="592" on="0"/>
        <pt x="686" y="542" on="0"/>
        <pt x="677" y="519" on="1"/>
        <pt x="677" y="70" on="1"/>
        <pt x="1007" y="70" on="1"/>
        <pt x="1007" y="48" on="0"/>
        <pt x="995" y="21" on="0"/>
        <pt x="975" y="6" on="0"/>
        <pt x="950" y="0" on="0"/>
        <pt x="937" y="0" on="1"/>
        <pt x="648" y="0" on="1"/>
        <pt x="637" y="0" on="0"/>
        <pt x="615" y="5" on="0"/>
        <pt x="598" y="18" on="0"/>
        <pt x="587" y="41" on="0"/>
        <pt x="587" y="60" on="1"/>
      </contour>
      <contour>
        <pt x="523" y="770" on="1"/>
        <pt x="488" y="776" on="0"/>
        <pt x="410" y="795" on="0"/>
        <pt x="342" y="819" on="0"/>
        <pt x="298" y="848" on="0"/>
        <pt x="298" y="865" on="1"/>
        <pt x="298" y="884" on="0"/>
        <pt x="323" y="922" on="1"/>
        <pt x="336" y="942" on="1"/>
        <pt x="545" y="811" on="1"/>
      </contour>
    </TTGlyph>
    <TTGlyph name="V" xMin="160" yMin="0" xMax="927" yMax="710">
      <contour>
        <pt x="671" y="638" on="1"/>
        <pt x="670" y="518" on="0"/>
        <pt x="635" y="333" on="0"/>
        <pt x="577" y="195" on="0"/>
        <pt x="501" y="100" on="0"/>
        <pt x="458" y="70" on="1"/>
        <pt x="927" y="70" on="1"/>
        <pt x="927" y="48" on="0"/>
        <pt x="915" y="21" on="0"/>
        <pt x="895" y="6" on="0"/>
        <pt x="870" y="0" on="0"/>
        <pt x="857" y="0" on="1"/>
        <pt x="250" y="0" on="1"/>
        <pt x="224" y="0" on="0"/>
        <pt x="189" y="14" on="0"/>
        <pt x="168" y="38" on="0"/>
        <pt x="160" y="71" on="0"/>
        <pt x="160" y="90" on="1"/>
        <pt x="160" y="690" on="1"/>
        <pt x="160" y="698" on="0"/>
        <pt x="172" y="710" on="0"/>
        <pt x="180" y="710" on="1"/>
        <pt x="230" y="710" on="1"/>
        <pt x="238" y="710" on="0"/>
        <pt x="250" y="698" on="0"/>
        <pt x="250" y="690" on="1"/>
        <pt x="250" y="80" on="1"/>
        <pt x="299" y="80" on="0"/>
        <pt x="392" y="112" on="0"/>
        <pt x="472" y="187" on="0"/>
        <pt x="537" y="309" on="0"/>
        <pt x="557" y="400" on="1"/>
        <pt x="557" y="710" on="1"/>
        <pt x="584" y="710" on="1"/>
        <pt x="633" y="710" on="0"/>
        <pt x="671" y="687" on="0"/>
        <pt x="671" y="647" on="1"/>
      </contour>
    </TTGlyph>
    <TTGlyph name="W" xMin="160" yMin="-10" xMax="1328" yMax="710">
      <contour>
        <pt x="1072" y="640" on="1"/>
        <pt x="1072" y="519" on="0"/>
        <pt x="1038" y="333" on="0"/>
        <pt x="982" y="195" on="0"/>
        <pt x="907" y="100" on="0"/>
        <pt x="865" y="70" on="1"/>
        <pt x="1328" y="70" on="1"/>
        <pt x="1328" y="48" on="0"/>
        <pt x="1316" y="21" on="0"/>
        <pt x="1296" y="6" on="0"/>
        <pt x="1271" y="0" on="0"/>
        <pt x="1258" y="0" on="1"/>
        <pt x="661" y="0" on="1"/>
        <pt x="635" y="0" on="0"/>
        <pt x="600" y="14" on="0"/>
        <pt x="579" y="38" on="0"/>
        <pt x="571" y="71" on="0"/>
        <pt x="571" y="90" on="1"/>
        <pt x="571" y="337" on="1"/>
        <pt x="540" y="267" on="0"/>
        <pt x="462" y="141" on="0"/>
        <pt x="377" y="46" on="0"/>
        <pt x="290" y="-10" on="0"/>
        <pt x="250" y="-10" on="1"/>
        <pt x="224" y="-10" on="0"/>
        <pt x="189" y="4" on="0"/>
        <pt x="168" y="28" on="0"/>
        <pt x="160" y="61" on="0"/>
        <pt x="160" y="80" on="1"/>
        <pt x="160" y="690" on="1"/>
        <pt x="160" y="698" on="0"/>
        <pt x="172" y="710" on="0"/>
        <pt x="180" y="710" on="1"/>
        <pt x="230" y="710" on="1"/>
        <pt x="238" y="710" on="0"/>
        <pt x="250" y="698" on="0"/>
        <pt x="250" y="690" on="1"/>
        <pt x="250" y="70" on="1"/>
        <pt x="271" y="70" on="0"/>
        <pt x="335" y="117" on="0"/>
        <pt x="407" y="198" on="0"/>
        <pt x="478" y="309" on="0"/>
        <pt x="535" y="438" on="0"/>
        <pt x="571" y="577" on="0"/>
        <pt x="571" y="647" on="1"/>
        <pt x="571" y="710" on="1"/>
        <pt x="601" y="710" on="1"/>
        <pt x="643" y="710" on="0"/>
        <pt x="682" y="667" on="0"/>
        <pt x="682" y="619" on="1"/>
        <pt x="682" y="592" on="0"/>
        <pt x="670" y="542" on="0"/>
        <pt x="661" y="519" on="1"/>
        <pt x="661" y="80" on="1"/>
        <pt x="708" y="80" on="0"/>
        <pt x="797" y="111" on="0"/>
        <pt x="875" y="182" on="0"/>
        <pt x="938" y="300" on="0"/>
        <pt x="958" y="387" on="1"/>
        <pt x="958" y="710" on="1"/>
        <pt x="985" y="710" on="1"/>
        <pt x="1034" y="710" on="0"/>
        <pt x="1072" y="687" on="0"/>
        <pt x="1072" y="647" on="1"/>
      </contour>
    </TTGlyph>
    <TTGlyph name="X" xMin="45" yMin="0" xMax="903" yMax="720">
      <contour>
        <pt x="99" y="720" on="1"/>
        <pt x="128" y="720" on="0"/>
        <pt x="175" y="712" on="0"/>
        <pt x="218" y="684" on="0"/>
        <pt x="263" y="628" on="0"/>
        <pt x="291" y="580" on="1"/>
        <pt x="370" y="444" on="1"/>
        <pt x="447" y="580" on="1"/>
        <pt x="474" y="628" on="0"/>
        <pt x="519" y="684" on="0"/>
        <pt x="562" y="713" on="0"/>
        <pt x="607" y="720" on="0"/>
        <pt x="636" y="720" on="1"/>
        <pt x="670" y="720" on="0"/>
        <pt x="690" y="686" on="0"/>
        <pt x="690" y="666" on="1"/>
        <pt x="690" y="640" on="1"/>
        <pt x="649" y="640" on="1"/>
        <pt x="627" y="640" on="0"/>
        <pt x="594" y="632" on="0"/>
        <pt x="561" y="605" on="0"/>
        <pt x="524" y="552" on="0"/>
        <pt x="498" y="506" on="1"/>
        <pt x="417" y="363" on="1"/>
        <pt x="510" y="204" on="1"/>
        <pt x="536" y="159" on="0"/>
        <pt x="573" y="105" on="0"/>
        <pt x="604" y="78" on="0"/>
        <pt x="633" y="70" on="0"/>
        <pt x="651" y="70" on="1"/>
        <pt x="903" y="70" on="1"/>
        <pt x="903" y="48" on="0"/>
        <pt x="891" y="21" on="0"/>
        <pt x="871" y="6" on="0"/>
        <pt x="846" y="0" on="0"/>
        <pt x="833" y="0" on="1"/>
        <pt x="622" y="0" on="1"/>
        <pt x="606" y="0" on="0"/>
        <pt x="569" y="5" on="0"/>
        <pt x="525" y="32" on="0"/>
        <pt x="475" y="89" on="0"/>
        <pt x="446" y="140" on="1"/>
        <pt x="367" y="276" on="1"/>
        <pt x="290" y="140" on="1"/>
        <pt x="261" y="89" on="0"/>
        <pt x="211" y="32" on="0"/>
        <pt x="167" y="5" on="0"/>
        <pt x="130" y="0" on="0"/>
        <pt x="114" y="0" on="1"/>
        <pt x="93" y="0" on="0"/>
        <pt x="67" y="5" on="0"/>
        <pt x="51" y="18" on="0"/>
        <pt x="45" y="41" on="0"/>
        <pt x="45" y="59" on="1"/>
        <pt x="45" y="70" on="1"/>
        <pt x="88" y="70" on="1"/>
        <pt x="106" y="70" on="0"/>
        <pt x="136" y="78" on="0"/>
        <pt x="168" y="105" on="0"/>
        <pt x="206" y="158" on="0"/>
        <pt x="232" y="204" on="1"/>
        <pt x="320" y="357" on="1"/>
        <pt x="234" y="506" on="1"/>
        <pt x="208" y="551" on="0"/>
        <pt x="171" y="605" on="0"/>
        <pt x="140" y="632" on="0"/>
        <pt x="108" y="640" on="0"/>
        <pt x="86" y="640" on="1"/>
        <pt x="45" y="640" on="1"/>
        <pt x="45" y="666" on="1"/>
        <pt x="45" y="686" on="0"/>
        <pt x="65" y="720" on="0"/>
      </contour>
    </TTGlyph>
    <TTGlyph name="Y" xMin="160" yMin="-310" xMax="1007" yMax="710">
      <contour>
        <pt x="587" y="347" on="1"/>
        <pt x="555" y="275" on="0"/>
        <pt x="472" y="146" on="0"/>
        <pt x="382" y="48" on="0"/>
        <pt x="290" y="-10" on="0"/>
        <pt x="250" y="-10" on="1"/>
        <pt x="224" y="-10" on="0"/>
        <pt x="189" y="4" on="0"/>
        <pt x="168" y="28" on="0"/>
        <pt x="160" y="61" on="0"/>
        <pt x="160" y="80" on="1"/>
        <pt x="160" y="690" on="1"/>
        <pt x="160" y="698" on="0"/>
        <pt x="172" y="710" on="0"/>
        <pt x="180" y="710" on="1"/>
        <pt x="230" y="710" on="1"/>
        <pt x="238" y="710" on="0"/>
        <pt x="250" y="698" on="0"/>
        <pt x="250" y="690" on="1"/>
        <pt x="250" y="70" on="1"/>
        <pt x="271" y="70" on="0"/>
        <pt x="338" y="117" on="0"/>
        <pt x="413" y="198" on="0"/>
        <pt x="488" y="309" on="0"/>
        <pt x="549" y="438" on="0"/>
        <pt x="587" y="577" on="0"/>
        <pt x="587" y="647" on="1"/>
        <pt x="587" y="710" on="1"/>
        <pt x="623" y="710" on="1"/>
        <pt x="698" y="710" on="0"/>
        <pt x="698" y="619" on="1"/>
        <pt x="698" y="592" on="0"/>
        <pt x="686" y="542" on="0"/>
        <pt x="677" y="519" on="1"/>
        <pt x="677" y="70" on="1"/>
        <pt x="1007" y="70" on="1"/>
        <pt x="1007" y="48" on="0"/>
        <pt x="995" y="21" on="0"/>
        <pt x="975" y="6" on="0"/>
        <pt x="950" y="0" on="0"/>
        <pt x="937" y="0" on="1"/>
        <pt x="676" y="0" on="1"/>
        <pt x="674" y="-92" on="0"/>
        <pt x="641" y="-212" on="0"/>
        <pt x="577" y="-282" on="0"/>
        <pt x="478" y="-310" on="0"/>
        <pt x="410" y="-310" on="1"/>
        <pt x="378" y="-310" on="0"/>
        <pt x="354" y="-278" on="0"/>
        <pt x="354" y="-241" on="1"/>
        <pt x="354" y="-230" on="1"/>
        <pt x="410" y="-230" on="1"/>
        <pt x="457" y="-230" on="0"/>
        <pt x="524" y="-215" on="0"/>
        <pt x="567" y="-162" on="0"/>
        <pt x="587" y="-59" on="0"/>
        <pt x="587" y="30" on="1"/>
        <pt x="587" y="347" on="1"/>
      </contour>
    </TTGlyph>
    <TTGlyph name="Yacute" xMin="160" yMin="-310" xMax="1007" yMax="942">
      <contour>
        <pt x="587" y="347" on="1"/>
        <pt x="555" y="275" on="0"/>
        <pt x="472" y="146" on="0"/>
        <pt x="382" y="48" on="0"/>
        <pt x="290" y="-10" on="0"/>
        <pt x="250" y="-10" on="1"/>
        <pt x="224" y="-10" on="0"/>
        <pt x="189" y="4" on="0"/>
        <pt x="168" y="28" on="0"/>
        <pt x="160" y="61" on="0"/>
        <pt x="160" y="80" on="1"/>
        <pt x="160" y="690" on="1"/>
        <pt x="160" y="698" on="0"/>
        <pt x="172" y="710" on="0"/>
        <pt x="180" y="710" on="1"/>
        <pt x="230" y="710" on="1"/>
        <pt x="238" y="710" on="0"/>
        <pt x="250" y="698" on="0"/>
        <pt x="250" y="690" on="1"/>
        <pt x="250" y="70" on="1"/>
        <pt x="271" y="70" on="0"/>
        <pt x="338" y="117" on="0"/>
        <pt x="413" y="198" on="0"/>
        <pt x="488" y="309" on="0"/>
        <pt x="549" y="438" on="0"/>
        <pt x="587" y="577" on="0"/>
        <pt x="587" y="647" on="1"/>
        <pt x="587" y="710" on="1"/>
        <pt x="623" y="710" on="1"/>
        <pt x="698" y="710" on="0"/>
        <pt x="698" y="619" on="1"/>
        <pt x="698" y="592" on="0"/>
        <pt x="686" y="542" on="0"/>
        <pt x="677" y="519" on="1"/>
        <pt x="677" y="70" on="1"/>
        <pt x="1007" y="70" on="1"/>
        <pt x="1007" y="48" on="0"/>
        <pt x="995" y="21" on="0"/>
        <pt x="975" y="6" on="0"/>
        <pt x="950" y="0" on="0"/>
        <pt x="937" y="0" on="1"/>
        <pt x="676" y="0" on="1"/>
        <pt x="674" y="-92" on="0"/>
        <pt x="641" y="-212" on="0"/>
        <pt x="577" y="-282" on="0"/>
        <pt x="478" y="-310" on="0"/>
        <pt x="410" y="-310" on="1"/>
        <pt x="378" y="-310" on="0"/>
        <pt x="354" y="-278" on="0"/>
        <pt x="354" y="-241" on="1"/>
        <pt x="354" y="-230" on="1"/>
        <pt x="410" y="-230" on="1"/>
        <pt x="457" y="-230" on="0"/>
        <pt x="524" y="-215" on="0"/>
        <pt x="567" y="-162" on="0"/>
        <pt x="587" y="-59" on="0"/>
        <pt x="587" y="30" on="1"/>
      </contour>
      <contour>
        <pt x="321" y="811" on="1"/>
        <pt x="531" y="942" on="1"/>
        <pt x="544" y="922" on="1"/>
        <pt x="568" y="885" on="0"/>
        <pt x="568" y="865" on="1"/>
        <pt x="568" y="848" on="0"/>
        <pt x="524" y="819" on="0"/>
        <pt x="457" y="795" on="0"/>
        <pt x="378" y="776" on="0"/>
        <pt x="344" y="770" on="1"/>
      </contour>
    </TTGlyph>
    <TTGlyph name="Ydieresis" xMin="160" yMin="-310" xMax="1007" yMax="916">
      <contour>
        <pt x="587" y="347" on="1"/>
        <pt x="555" y="275" on="0"/>
        <pt x="472" y="146" on="0"/>
        <pt x="382" y="48" on="0"/>
        <pt x="290" y="-10" on="0"/>
        <pt x="250" y="-10" on="1"/>
        <pt x="224" y="-10" on="0"/>
        <pt x="189" y="4" on="0"/>
        <pt x="168" y="28" on="0"/>
        <pt x="160" y="61" on="0"/>
        <pt x="160" y="80" on="1"/>
        <pt x="160" y="690" on="1"/>
        <pt x="160" y="698" on="0"/>
        <pt x="172" y="710" on="0"/>
        <pt x="180" y="710" on="1"/>
        <pt x="230" y="710" on="1"/>
        <pt x="238" y="710" on="0"/>
        <pt x="250" y="698" on="0"/>
        <pt x="250" y="690" on="1"/>
        <pt x="250" y="70" on="1"/>
        <pt x="271" y="70" on="0"/>
        <pt x="338" y="117" on="0"/>
        <pt x="413" y="198" on="0"/>
        <pt x="488" y="309" on="0"/>
        <pt x="549" y="438" on="0"/>
        <pt x="587" y="577" on="0"/>
        <pt x="587" y="647" on="1"/>
        <pt x="587" y="710" on="1"/>
        <pt x="623" y="710" on="1"/>
        <pt x="698" y="710" on="0"/>
        <pt x="698" y="619" on="1"/>
        <pt x="698" y="592" on="0"/>
        <pt x="686" y="542" on="0"/>
        <pt x="677" y="519" on="1"/>
        <pt x="677" y="70" on="1"/>
        <pt x="1007" y="70" on="1"/>
        <pt x="1007" y="48" on="0"/>
        <pt x="995" y="21" on="0"/>
        <pt x="975" y="6" on="0"/>
        <pt x="950" y="0" on="0"/>
        <pt x="937" y="0" on="1"/>
        <pt x="676" y="0" on="1"/>
        <pt x="674" y="-92" on="0"/>
        <pt x="641" y="-212" on="0"/>
        <pt x="577" y="-282" on="0"/>
        <pt x="478" y="-310" on="0"/>
        <pt x="410" y="-310" on="1"/>
        <pt x="378" y="-310" on="0"/>
        <pt x="354" y="-278" on="0"/>
        <pt x="354" y="-241" on="1"/>
        <pt x="354" y="-230" on="1"/>
        <pt x="410" y="-230" on="1"/>
        <pt x="457" y="-230" on="0"/>
        <pt x="524" y="-215" on="0"/>
        <pt x="567" y="-162" on="0"/>
        <pt x="587" y="-59" on="0"/>
        <pt x="587" y="30" on="1"/>
      </contour>
      <contour>
        <pt x="245" y="854" on="1"/>
        <pt x="245" y="879" on="0"/>
        <pt x="275" y="916" on="0"/>
        <pt x="306" y="916" on="1"/>
        <pt x="336" y="916" on="0"/>
        <pt x="368" y="879" on="0"/>
        <pt x="368" y="854" on="1"/>
        <pt x="368" y="828" on="0"/>
        <pt x="336" y="793" on="0"/>
        <pt x="306" y="793" on="1"/>
        <pt x="275" y="793" on="0"/>
        <pt x="245" y="828" on="0"/>
      </contour>
      <contour>
        <pt x="467" y="854" on="1"/>
        <pt x="467" y="879" on="0"/>
        <pt x="497" y="916" on="0"/>
        <pt x="528" y="916" on="1"/>
        <pt x="558" y="916" on="0"/>
        <pt x="590" y="879" on="0"/>
        <pt x="590" y="854" on="1"/>
        <pt x="590" y="828" on="0"/>
        <pt x="558" y="793" on="0"/>
        <pt x="528" y="793" on="1"/>
        <pt x="497" y="793" on="0"/>
        <pt x="467" y="828" on="0"/>
      </contour>
    </TTGlyph>
    <TTGlyph name="Z" xMin="-40" yMin="-20" xMax="800" yMax="710">
      <contour>
        <pt x="433" y="299" on="1"/>
        <pt x="395" y="225" on="0"/>
        <pt x="293" y="109" on="0"/>
        <pt x="235" y="70" on="1"/>
        <pt x="800" y="70" on="1"/>
        <pt x="800" y="48" on="0"/>
        <pt x="788" y="21" on="0"/>
        <pt x="768" y="6" on="0"/>
        <pt x="743" y="0" on="0"/>
        <pt x="730" y="0" on="1"/>
        <pt x="145" y="0" on="1"/>
        <pt x="123" y="-8" on="0"/>
        <pt x="75" y="-20" on="0"/>
        <pt x="49" y="-20" on="1"/>
        <pt x="33" y="-20" on="0"/>
        <pt x="1" y="-13" on="0"/>
        <pt x="-24" y="7" on="0"/>
        <pt x="-40" y="42" on="0"/>
        <pt x="-40" y="70" on="1"/>
        <pt x="20" y="70" on="1"/>
        <pt x="68" y="70" on="0"/>
        <pt x="158" y="105" on="0"/>
        <pt x="237" y="166" on="0"/>
        <pt x="306" y="250" on="0"/>
        <pt x="333" y="299" on="1"/>
        <pt x="169" y="299" on="1"/>
        <pt x="169" y="321" on="0"/>
        <pt x="181" y="350" on="0"/>
        <pt x="201" y="367" on="0"/>
        <pt x="226" y="374" on="0"/>
        <pt x="239" y="374" on="1"/>
        <pt x="369" y="374" on="1"/>
        <pt x="395" y="437" on="0"/>
        <pt x="423" y="567" on="0"/>
        <pt x="423" y="630" on="1"/>
        <pt x="133" y="630" on="1"/>
        <pt x="99" y="630" on="0"/>
        <pt x="79" y="664" on="0"/>
        <pt x="79" y="684" on="1"/>
        <pt x="79" y="710" on="1"/>
        <pt x="423" y="710" on="1"/>
        <pt x="442" y="710" on="0"/>
        <pt x="475" y="705" on="0"/>
        <pt x="499" y="688" on="0"/>
        <pt x="513" y="656" on="0"/>
        <pt x="513" y="630" on="1"/>
        <pt x="513" y="560" on="0"/>
        <pt x="489" y="432" on="0"/>
        <pt x="467" y="374" on="1"/>
        <pt x="610" y="374" on="1"/>
        <pt x="610" y="352" on="0"/>
        <pt x="598" y="323" on="0"/>
        <pt x="578" y="306" on="0"/>
        <pt x="553" y="299" on="0"/>
        <pt x="540" y="299" on="1"/>
      </contour>
    </TTGlyph>
    <TTGlyph name="Zcaron" xMin="-40" yMin="-20" xMax="800" yMax="962">
      <contour>
        <pt x="433" y="299" on="1"/>
        <pt x="395" y="225" on="0"/>
        <pt x="293" y="109" on="0"/>
        <pt x="235" y="70" on="1"/>
        <pt x="800" y="70" on="1"/>
        <pt x="800" y="48" on="0"/>
        <pt x="788" y="21" on="0"/>
        <pt x="768" y="6" on="0"/>
        <pt x="743" y="0" on="0"/>
        <pt x="730" y="0" on="1"/>
        <pt x="145" y="0" on="1"/>
        <pt x="123" y="-8" on="0"/>
        <pt x="75" y="-20" on="0"/>
        <pt x="49" y="-20" on="1"/>
        <pt x="33" y="-20" on="0"/>
        <pt x="1" y="-13" on="0"/>
        <pt x="-24" y="7" on="0"/>
        <pt x="-40" y="42" on="0"/>
        <pt x="-40" y="70" on="1"/>
        <pt x="20" y="70" on="1"/>
        <pt x="68" y="70" on="0"/>
        <pt x="158" y="105" on="0"/>
        <pt x="237" y="166" on="0"/>
        <pt x="306" y="250" on="0"/>
        <pt x="333" y="299" on="1"/>
        <pt x="169" y="299" on="1"/>
        <pt x="169" y="321" on="0"/>
        <pt x="181" y="350" on="0"/>
        <pt x="201" y="367" on="0"/>
        <pt x="226" y="374" on="0"/>
        <pt x="239" y="374" on="1"/>
        <pt x="369" y="374" on="1"/>
        <pt x="395" y="437" on="0"/>
        <pt x="423" y="567" on="0"/>
        <pt x="423" y="630" on="1"/>
        <pt x="133" y="630" on="1"/>
        <pt x="99" y="630" on="0"/>
        <pt x="79" y="664" on="0"/>
        <pt x="79" y="684" on="1"/>
        <pt x="79" y="710" on="1"/>
        <pt x="423" y="710" on="1"/>
        <pt x="442" y="710" on="0"/>
        <pt x="475" y="705" on="0"/>
        <pt x="499" y="688" on="0"/>
        <pt x="513" y="656" on="0"/>
        <pt x="513" y="630" on="1"/>
        <pt x="513" y="560" on="0"/>
        <pt x="489" y="432" on="0"/>
        <pt x="467" y="374" on="1"/>
        <pt x="610" y="374" on="1"/>
        <pt x="610" y="352" on="0"/>
        <pt x="598" y="323" on="0"/>
        <pt x="578" y="306" on="0"/>
        <pt x="553" y="299" on="0"/>
        <pt x="540" y="299" on="1"/>
      </contour>
      <contour>
        <pt x="164" y="962" on="1"/>
        <pt x="186" y="957" on="0"/>
        <pt x="229" y="940" on="0"/>
        <pt x="267" y="919" on="0"/>
        <pt x="297" y="897" on="0"/>
        <pt x="305" y="888" on="1"/>
        <pt x="323" y="909" on="0"/>
        <pt x="400" y="952" on="0"/>
        <pt x="446" y="962" on="1"/>
        <pt x="470" y="922" on="1"/>
        <pt x="325" y="791" on="1"/>
        <pt x="285" y="791" on="1"/>
        <pt x="140" y="922" on="1"/>
      </contour>
    </TTGlyph>
    <TTGlyph name="a" xMin="190" yMin="-5" xMax="967" yMax="550">
      <contour>
        <pt x="280" y="75" on="1"/>
        <pt x="304" y="75" on="0"/>
        <pt x="363" y="96" on="0"/>
        <pt x="424" y="139" on="0"/>
        <pt x="483" y="204" on="0"/>
        <pt x="528" y="293" on="0"/>
        <pt x="556" y="407" on="0"/>
        <pt x="556" y="477" on="1"/>
        <pt x="556" y="540" on="1"/>
        <pt x="592" y="540" on="1"/>
        <pt x="667" y="540" on="0"/>
        <pt x="667" y="449" on="1"/>
        <pt x="667" y="422" on="0"/>
        <pt x="655" y="372" on="0"/>
        <pt x="646" y="349" on="1"/>
        <pt x="646" y="70" on="1"/>
        <pt x="967" y="70" on="1"/>
        <pt x="967" y="48" on="0"/>
        <pt x="955" y="21" on="0"/>
        <pt x="935" y="6" on="0"/>
        <pt x="910" y="0" on="0"/>
        <pt x="897" y="0" on="1"/>
        <pt x="617" y="0" on="1"/>
        <pt x="606" y="0" on="0"/>
        <pt x="584" y="5" on="0"/>
        <pt x="567" y="18" on="0"/>
        <pt x="556" y="41" on="0"/>
        <pt x="556" y="60" on="1"/>
        <pt x="556" y="198" on="1"/>
        <pt x="529" y="151" on="0"/>
        <pt x="463" y="76" on="0"/>
        <pt x="391" y="24" on="0"/>
        <pt x="316" y="-5" on="0"/>
        <pt x="280" y="-5" on="1"/>
        <pt x="254" y="-5" on="0"/>
        <pt x="219" y="9" on="0"/>
        <pt x="198" y="33" on="0"/>
        <pt x="190" y="66" on="0"/>
        <pt x="190" y="85" on="1"/>
        <pt x="190" y="331" on="1"/>
        <pt x="190" y="387" on="0"/>
        <pt x="214" y="470" on="0"/>
        <pt x="268" y="524" on="0"/>
        <pt x="355" y="550" on="0"/>
        <pt x="417" y="550" on="1"/>
        <pt x="460" y="550" on="0"/>
        <pt x="506" y="518" on="0"/>
        <pt x="506" y="480" on="1"/>
        <pt x="506" y="470" on="1"/>
        <pt x="417" y="470" on="1"/>
        <pt x="381" y="470" on="0"/>
        <pt x="330" y="459" on="0"/>
        <pt x="296" y="428" on="0"/>
        <pt x="280" y="374" on="0"/>
        <pt x="280" y="331" on="1"/>
      </contour>
    </TTGlyph>
    <TTGlyph name="aacute" xMin="190" yMin="-5" xMax="967" yMax="792">
      <contour>
        <pt x="280" y="75" on="1"/>
        <pt x="304" y="75" on="0"/>
        <pt x="363" y="96" on="0"/>
        <pt x="424" y="139" on="0"/>
        <pt x="483" y="204" on="0"/>
        <pt x="528" y="293" on="0"/>
        <pt x="556" y="407" on="0"/>
        <pt x="556" y="477" on="1"/>
        <pt x="556" y="540" on="1"/>
        <pt x="592" y="540" on="1"/>
        <pt x="667" y="540" on="0"/>
        <pt x="667" y="449" on="1"/>
        <pt x="667" y="422" on="0"/>
        <pt x="655" y="372" on="0"/>
        <pt x="646" y="349" on="1"/>
        <pt x="646" y="70" on="1"/>
        <pt x="967" y="70" on="1"/>
        <pt x="967" y="48" on="0"/>
        <pt x="955" y="21" on="0"/>
        <pt x="935" y="6" on="0"/>
        <pt x="910" y="0" on="0"/>
        <pt x="897" y="0" on="1"/>
        <pt x="617" y="0" on="1"/>
        <pt x="606" y="0" on="0"/>
        <pt x="584" y="5" on="0"/>
        <pt x="567" y="18" on="0"/>
        <pt x="556" y="41" on="0"/>
        <pt x="556" y="60" on="1"/>
        <pt x="556" y="198" on="1"/>
        <pt x="529" y="151" on="0"/>
        <pt x="463" y="76" on="0"/>
        <pt x="391" y="24" on="0"/>
        <pt x="316" y="-5" on="0"/>
        <pt x="280" y="-5" on="1"/>
        <pt x="254" y="-5" on="0"/>
        <pt x="219" y="9" on="0"/>
        <pt x="198" y="33" on="0"/>
        <pt x="190" y="66" on="0"/>
        <pt x="190" y="85" on="1"/>
        <pt x="190" y="331" on="1"/>
        <pt x="190" y="387" on="0"/>
        <pt x="214" y="470" on="0"/>
        <pt x="268" y="524" on="0"/>
        <pt x="355" y="550" on="0"/>
        <pt x="417" y="550" on="1"/>
        <pt x="460" y="550" on="0"/>
        <pt x="506" y="518" on="0"/>
        <pt x="506" y="480" on="1"/>
        <pt x="506" y="470" on="1"/>
        <pt x="417" y="470" on="1"/>
        <pt x="381" y="470" on="0"/>
        <pt x="330" y="459" on="0"/>
        <pt x="296" y="428" on="0"/>
        <pt x="280" y="374" on="0"/>
        <pt x="280" y="331" on="1"/>
      </contour>
      <contour>
        <pt x="329" y="661" on="1"/>
        <pt x="539" y="792" on="1"/>
        <pt x="552" y="772" on="1"/>
        <pt x="576" y="735" on="0"/>
        <pt x="576" y="715" on="1"/>
        <pt x="576" y="698" on="0"/>
        <pt x="532" y="669" on="0"/>
        <pt x="465" y="645" on="0"/>
        <pt x="386" y="626" on="0"/>
        <pt x="352" y="620" on="1"/>
      </contour>
    </TTGlyph>
    <TTGlyph name="acircumflex" xMin="190" yMin="-5" xMax="967" yMax="792">
      <contour>
        <pt x="280" y="75" on="1"/>
        <pt x="304" y="75" on="0"/>
        <pt x="363" y="96" on="0"/>
        <pt x="424" y="139" on="0"/>
        <pt x="483" y="204" on="0"/>
        <pt x="528" y="293" on="0"/>
        <pt x="556" y="407" on="0"/>
        <pt x="556" y="477" on="1"/>
        <pt x="556" y="540" on="1"/>
        <pt x="592" y="540" on="1"/>
        <pt x="667" y="540" on="0"/>
        <pt x="667" y="449" on="1"/>
        <pt x="667" y="422" on="0"/>
        <pt x="655" y="372" on="0"/>
        <pt x="646" y="349" on="1"/>
        <pt x="646" y="70" on="1"/>
        <pt x="967" y="70" on="1"/>
        <pt x="967" y="48" on="0"/>
        <pt x="955" y="21" on="0"/>
        <pt x="935" y="6" on="0"/>
        <pt x="910" y="0" on="0"/>
        <pt x="897" y="0" on="1"/>
        <pt x="617" y="0" on="1"/>
        <pt x="606" y="0" on="0"/>
        <pt x="584" y="5" on="0"/>
        <pt x="567" y="18" on="0"/>
        <pt x="556" y="41" on="0"/>
        <pt x="556" y="60" on="1"/>
        <pt x="556" y="198" on="1"/>
        <pt x="529" y="151" on="0"/>
        <pt x="463" y="76" on="0"/>
        <pt x="391" y="24" on="0"/>
        <pt x="316" y="-5" on="0"/>
        <pt x="280" y="-5" on="1"/>
        <pt x="254" y="-5" on="0"/>
        <pt x="219" y="9" on="0"/>
        <pt x="198" y="33" on="0"/>
        <pt x="190" y="66" on="0"/>
        <pt x="190" y="85" on="1"/>
        <pt x="190" y="331" on="1"/>
        <pt x="190" y="387" on="0"/>
        <pt x="214" y="470" on="0"/>
        <pt x="268" y="524" on="0"/>
        <pt x="355" y="550" on="0"/>
        <pt x="417" y="550" on="1"/>
        <pt x="460" y="550" on="0"/>
        <pt x="506" y="518" on="0"/>
        <pt x="506" y="480" on="1"/>
        <pt x="506" y="470" on="1"/>
        <pt x="417" y="470" on="1"/>
        <pt x="381" y="470" on="0"/>
        <pt x="330" y="459" on="0"/>
        <pt x="296" y="428" on="0"/>
        <pt x="280" y="374" on="0"/>
        <pt x="280" y="331" on="1"/>
      </contour>
      <contour>
        <pt x="579" y="621" on="1"/>
        <pt x="557" y="625" on="0"/>
        <pt x="514" y="643" on="0"/>
        <pt x="476" y="664" on="0"/>
        <pt x="446" y="686" on="0"/>
        <pt x="438" y="695" on="1"/>
        <pt x="420" y="674" on="0"/>
        <pt x="343" y="631" on="0"/>
        <pt x="297" y="621" on="1"/>
        <pt x="273" y="661" on="1"/>
        <pt x="418" y="792" on="1"/>
        <pt x="458" y="792" on="1"/>
        <pt x="603" y="661" on="1"/>
      </contour>
    </TTGlyph>
    <TTGlyph name="acute" xMin="163" yMin="620" xMax="410" yMax="792">
      <contour>
        <pt x="163" y="661" on="1"/>
        <pt x="373" y="792" on="1"/>
        <pt x="386" y="772" on="1"/>
        <pt x="410" y="735" on="0"/>
        <pt x="410" y="715" on="1"/>
        <pt x="410" y="698" on="0"/>
        <pt x="366" y="669" on="0"/>
        <pt x="299" y="645" on="0"/>
        <pt x="220" y="626" on="0"/>
        <pt x="186" y="620" on="1"/>
      </contour>
    </TTGlyph>
    <TTGlyph name="acute.case" xMin="163" yMin="770" xMax="410" yMax="942">
      <contour>
        <pt x="163" y="811" on="1"/>
        <pt x="373" y="942" on="1"/>
        <pt x="386" y="922" on="1"/>
        <pt x="410" y="885" on="0"/>
        <pt x="410" y="865" on="1"/>
        <pt x="410" y="848" on="0"/>
        <pt x="366" y="819" on="0"/>
        <pt x="299" y="795" on="0"/>
        <pt x="220" y="776" on="0"/>
        <pt x="186" y="770" on="1"/>
      </contour>
    </TTGlyph>
    <TTGlyph name="adieresis" xMin="190" yMin="-5" xMax="967" yMax="766">
      <contour>
        <pt x="280" y="75" on="1"/>
        <pt x="304" y="75" on="0"/>
        <pt x="363" y="96" on="0"/>
        <pt x="424" y="139" on="0"/>
        <pt x="483" y="204" on="0"/>
        <pt x="528" y="293" on="0"/>
        <pt x="556" y="407" on="0"/>
        <pt x="556" y="477" on="1"/>
        <pt x="556" y="540" on="1"/>
        <pt x="592" y="540" on="1"/>
        <pt x="667" y="540" on="0"/>
        <pt x="667" y="449" on="1"/>
        <pt x="667" y="422" on="0"/>
        <pt x="655" y="372" on="0"/>
        <pt x="646" y="349" on="1"/>
        <pt x="646" y="70" on="1"/>
        <pt x="967" y="70" on="1"/>
        <pt x="967" y="48" on="0"/>
        <pt x="955" y="21" on="0"/>
        <pt x="935" y="6" on="0"/>
        <pt x="910" y="0" on="0"/>
        <pt x="897" y="0" on="1"/>
        <pt x="617" y="0" on="1"/>
        <pt x="606" y="0" on="0"/>
        <pt x="584" y="5" on="0"/>
        <pt x="567" y="18" on="0"/>
        <pt x="556" y="41" on="0"/>
        <pt x="556" y="60" on="1"/>
        <pt x="556" y="198" on="1"/>
        <pt x="529" y="151" on="0"/>
        <pt x="463" y="76" on="0"/>
        <pt x="391" y="24" on="0"/>
        <pt x="316" y="-5" on="0"/>
        <pt x="280" y="-5" on="1"/>
        <pt x="254" y="-5" on="0"/>
        <pt x="219" y="9" on="0"/>
        <pt x="198" y="33" on="0"/>
        <pt x="190" y="66" on="0"/>
        <pt x="190" y="85" on="1"/>
        <pt x="190" y="331" on="1"/>
        <pt x="190" y="387" on="0"/>
        <pt x="214" y="470" on="0"/>
        <pt x="268" y="524" on="0"/>
        <pt x="355" y="550" on="0"/>
        <pt x="417" y="550" on="1"/>
        <pt x="460" y="550" on="0"/>
        <pt x="506" y="518" on="0"/>
        <pt x="506" y="480" on="1"/>
        <pt x="506" y="470" on="1"/>
        <pt x="417" y="470" on="1"/>
        <pt x="381" y="470" on="0"/>
        <pt x="330" y="459" on="0"/>
        <pt x="296" y="428" on="0"/>
        <pt x="280" y="374" on="0"/>
        <pt x="280" y="331" on="1"/>
      </contour>
      <contour>
        <pt x="284" y="704" on="1"/>
        <pt x="284" y="729" on="0"/>
        <pt x="314" y="766" on="0"/>
        <pt x="345" y="766" on="1"/>
        <pt x="375" y="766" on="0"/>
        <pt x="407" y="729" on="0"/>
        <pt x="407" y="704" on="1"/>
        <pt x="407" y="678" on="0"/>
        <pt x="375" y="643" on="0"/>
        <pt x="345" y="643" on="1"/>
        <pt x="314" y="643" on="0"/>
        <pt x="284" y="678" on="0"/>
      </contour>
      <contour>
        <pt x="506" y="704" on="1"/>
        <pt x="506" y="729" on="0"/>
        <pt x="536" y="766" on="0"/>
        <pt x="567" y="766" on="1"/>
        <pt x="597" y="766" on="0"/>
        <pt x="629" y="729" on="0"/>
        <pt x="629" y="704" on="1"/>
        <pt x="629" y="678" on="0"/>
        <pt x="597" y="643" on="0"/>
        <pt x="567" y="643" on="1"/>
        <pt x="536" y="643" on="0"/>
        <pt x="506" y="678" on="0"/>
      </contour>
    </TTGlyph>
    <TTGlyph name="ae" xMin="190" yMin="-5" xMax="1235" yMax="550">
      <contour>
        <pt x="787" y="275" on="1"/>
        <pt x="824" y="276" on="0"/>
        <pt x="876" y="289" on="0"/>
        <pt x="909" y="328" on="0"/>
        <pt x="924" y="404" on="0"/>
        <pt x="924" y="470" on="1"/>
        <pt x="833" y="470" on="0"/>
        <pt x="724" y="456" on="0"/>
        <pt x="665" y="408" on="0"/>
        <pt x="647" y="317" on="0"/>
        <pt x="647" y="240" on="1"/>
        <pt x="647" y="200" on="1"/>
        <pt x="647" y="156" on="0"/>
        <pt x="654" y="104" on="0"/>
        <pt x="682" y="77" on="0"/>
        <pt x="739" y="70" on="0"/>
        <pt x="789" y="70" on="1"/>
        <pt x="1235" y="70" on="1"/>
        <pt x="1235" y="48" on="0"/>
        <pt x="1223" y="21" on="0"/>
        <pt x="1203" y="6" on="0"/>
        <pt x="1178" y="0" on="0"/>
        <pt x="1165" y="0" on="1"/>
        <pt x="789" y="0" on="1"/>
        <pt x="707" y="0" on="0"/>
        <pt x="614" y="17" on="0"/>
        <pt x="567" y="61" on="0"/>
        <pt x="556" y="138" on="0"/>
        <pt x="556" y="198" on="1"/>
        <pt x="529" y="151" on="0"/>
        <pt x="463" y="76" on="0"/>
        <pt x="391" y="24" on="0"/>
        <pt x="316" y="-5" on="0"/>
        <pt x="280" y="-5" on="1"/>
        <pt x="254" y="-5" on="0"/>
        <pt x="219" y="9" on="0"/>
        <pt x="198" y="33" on="0"/>
        <pt x="190" y="66" on="0"/>
        <pt x="190" y="85" on="1"/>
        <pt x="190" y="331" on="1"/>
        <pt x="190" y="387" on="0"/>
        <pt x="214" y="470" on="0"/>
        <pt x="268" y="524" on="0"/>
        <pt x="355" y="550" on="0"/>
        <pt x="417" y="550" on="1"/>
        <pt x="460" y="550" on="0"/>
        <pt x="506" y="518" on="0"/>
        <pt x="506" y="480" on="1"/>
        <pt x="506" y="470" on="1"/>
        <pt x="417" y="470" on="1"/>
        <pt x="381" y="470" on="0"/>
        <pt x="330" y="459" on="0"/>
        <pt x="296" y="428" on="0"/>
        <pt x="280" y="374" on="0"/>
        <pt x="280" y="331" on="1"/>
        <pt x="280" y="75" on="1"/>
        <pt x="304" y="75" on="0"/>
        <pt x="363" y="96" on="0"/>
        <pt x="424" y="139" on="0"/>
        <pt x="483" y="204" on="0"/>
        <pt x="528" y="293" on="0"/>
        <pt x="556" y="407" on="0"/>
        <pt x="556" y="477" on="1"/>
        <pt x="556" y="540" on="1"/>
        <pt x="585" y="540" on="1"/>
        <pt x="604" y="540" on="0"/>
        <pt x="637" y="525" on="0"/>
        <pt x="643" y="502" on="1"/>
        <pt x="685" y="528" on="0"/>
        <pt x="819" y="550" on="0"/>
        <pt x="924" y="550" on="1"/>
        <pt x="976" y="550" on="0"/>
        <pt x="1014" y="498" on="0"/>
        <pt x="1014" y="461" on="1"/>
        <pt x="1014" y="384" on="0"/>
        <pt x="985" y="283" on="0"/>
        <pt x="923" y="223" on="0"/>
        <pt x="826" y="199" on="0"/>
        <pt x="758" y="199" on="1"/>
        <pt x="731" y="199" on="0"/>
        <pt x="708" y="220" on="0"/>
        <pt x="708" y="251" on="1"/>
        <pt x="708" y="272" on="1"/>
      </contour>
    </TTGlyph>
    <TTGlyph name="agrave" xMin="190" yMin="-5" xMax="967" yMax="792">
      <contour>
        <pt x="280" y="75" on="1"/>
        <pt x="304" y="75" on="0"/>
        <pt x="363" y="96" on="0"/>
        <pt x="424" y="139" on="0"/>
        <pt x="483" y="204" on="0"/>
        <pt x="528" y="293" on="0"/>
        <pt x="556" y="407" on="0"/>
        <pt x="556" y="477" on="1"/>
        <pt x="556" y="540" on="1"/>
        <pt x="592" y="540" on="1"/>
        <pt x="667" y="540" on="0"/>
        <pt x="667" y="449" on="1"/>
        <pt x="667" y="422" on="0"/>
        <pt x="655" y="372" on="0"/>
        <pt x="646" y="349" on="1"/>
        <pt x="646" y="70" on="1"/>
        <pt x="967" y="70" on="1"/>
        <pt x="967" y="48" on="0"/>
        <pt x="955" y="21" on="0"/>
        <pt x="935" y="6" on="0"/>
        <pt x="910" y="0" on="0"/>
        <pt x="897" y="0" on="1"/>
        <pt x="617" y="0" on="1"/>
        <pt x="606" y="0" on="0"/>
        <pt x="584" y="5" on="0"/>
        <pt x="567" y="18" on="0"/>
        <pt x="556" y="41" on="0"/>
        <pt x="556" y="60" on="1"/>
        <pt x="556" y="198" on="1"/>
        <pt x="529" y="151" on="0"/>
        <pt x="463" y="76" on="0"/>
        <pt x="391" y="24" on="0"/>
        <pt x="316" y="-5" on="0"/>
        <pt x="280" y="-5" on="1"/>
        <pt x="254" y="-5" on="0"/>
        <pt x="219" y="9" on="0"/>
        <pt x="198" y="33" on="0"/>
        <pt x="190" y="66" on="0"/>
        <pt x="190" y="85" on="1"/>
        <pt x="190" y="331" on="1"/>
        <pt x="190" y="387" on="0"/>
        <pt x="214" y="470" on="0"/>
        <pt x="268" y="524" on="0"/>
        <pt x="355" y="550" on="0"/>
        <pt x="417" y="550" on="1"/>
        <pt x="460" y="550" on="0"/>
        <pt x="506" y="518" on="0"/>
        <pt x="506" y="480" on="1"/>
        <pt x="506" y="470" on="1"/>
        <pt x="417" y="470" on="1"/>
        <pt x="381" y="470" on="0"/>
        <pt x="330" y="459" on="0"/>
        <pt x="296" y="428" on="0"/>
        <pt x="280" y="374" on="0"/>
        <pt x="280" y="331" on="1"/>
      </contour>
      <contour>
        <pt x="519" y="620" on="1"/>
        <pt x="484" y="626" on="0"/>
        <pt x="406" y="645" on="0"/>
        <pt x="338" y="669" on="0"/>
        <pt x="294" y="698" on="0"/>
        <pt x="294" y="715" on="1"/>
        <pt x="294" y="734" on="0"/>
        <pt x="319" y="772" on="1"/>
        <pt x="332" y="792" on="1"/>
        <pt x="541" y="661" on="1"/>
      </contour>
    </TTGlyph>
    <TTGlyph name="ampersand" xMin="153" yMin="0" xMax="883" yMax="720">
      <contour>
        <pt x="883" y="70" on="1"/>
        <pt x="883" y="48" on="0"/>
        <pt x="871" y="21" on="0"/>
        <pt x="851" y="6" on="0"/>
        <pt x="826" y="0" on="0"/>
        <pt x="813" y="0" on="1"/>
        <pt x="243" y="0" on="1"/>
        <pt x="224" y="0" on="0"/>
        <pt x="191" y="5" on="0"/>
        <pt x="167" y="22" on="0"/>
        <pt x="153" y="54" on="0"/>
        <pt x="153" y="80" on="1"/>
        <pt x="153" y="117" on="0"/>
        <pt x="174" y="198" on="0"/>
        <pt x="212" y="278" on="0"/>
        <pt x="266" y="351" on="0"/>
        <pt x="299" y="380" on="1"/>
        <pt x="288" y="427" on="0"/>
        <pt x="288" y="465" on="1"/>
        <pt x="288" y="516" on="0"/>
        <pt x="325" y="609" on="0"/>
        <pt x="403" y="679" on="0"/>
        <pt x="525" y="720" on="0"/>
        <pt x="610" y="720" on="1"/>
        <pt x="644" y="720" on="0"/>
        <pt x="664" y="686" on="0"/>
        <pt x="664" y="666" on="1"/>
        <pt x="664" y="640" on="1"/>
        <pt x="610" y="640" on="1"/>
        <pt x="544" y="640" on="0"/>
        <pt x="453" y="612" on="0"/>
        <pt x="396" y="566" on="0"/>
        <pt x="370" y="503" on="0"/>
        <pt x="370" y="469" on="1"/>
        <pt x="370" y="431" on="0"/>
        <pt x="393" y="342" on="0"/>
        <pt x="440" y="253" on="0"/>
        <pt x="511" y="171" on="0"/>
        <pt x="605" y="108" on="0"/>
        <pt x="722" y="70" on="0"/>
        <pt x="793" y="70" on="1"/>
      </contour>
      <contour>
        <pt x="528" y="70" on="1"/>
        <pt x="457" y="108" on="0"/>
        <pt x="355" y="231" on="0"/>
        <pt x="326" y="298" on="1"/>
        <pt x="280" y="250" on="0"/>
        <pt x="233" y="127" on="0"/>
        <pt x="233" y="70" on="1"/>
      </contour>
    </TTGlyph>
    <TTGlyph name="apple" xMin="120" yMin="-114" xMax="843" yMax="608">
      <contour>
        <pt x="576" y="-89" on="1"/>
        <pt x="562" y="-93" on="0"/>
        <pt x="541" y="-112" on="0"/>
        <pt x="528" y="-112" on="1"/>
        <pt x="517" y="-112" on="0"/>
        <pt x="493" y="-102" on="0"/>
        <pt x="482" y="-102" on="1"/>
        <pt x="470" y="-102" on="0"/>
        <pt x="447" y="-114" on="0"/>
        <pt x="436" y="-114" on="1"/>
        <pt x="428" y="-114" on="0"/>
        <pt x="416" y="-106" on="0"/>
        <pt x="404" y="-97" on="0"/>
        <pt x="390" y="-89" on="0"/>
        <pt x="381" y="-89" on="1"/>
        <pt x="375" y="-89" on="0"/>
        <pt x="362" y="-91" on="0"/>
        <pt x="357" y="-91" on="1"/>
        <pt x="347" y="-91" on="0"/>
        <pt x="333" y="-82" on="0"/>
        <pt x="321" y="-70" on="0"/>
        <pt x="311" y="-58" on="0"/>
        <pt x="306" y="-55" on="1"/>
        <pt x="297" y="-51" on="0"/>
        <pt x="285" y="-48" on="0"/>
        <pt x="275" y="-47" on="0"/>
        <pt x="266" y="-46" on="0"/>
        <pt x="260" y="-42" on="1"/>
        <pt x="253" y="-38" on="0"/>
        <pt x="246" y="-26" on="0"/>
        <pt x="240" y="-12" on="0"/>
        <pt x="235" y="0" on="0"/>
        <pt x="230" y="4" on="1"/>
        <pt x="220" y="12" on="0"/>
        <pt x="199" y="16" on="0"/>
        <pt x="191" y="28" on="1"/>
        <pt x="183" y="42" on="0"/>
        <pt x="184" y="61" on="0"/>
        <pt x="176" y="75" on="1"/>
        <pt x="173" y="79" on="0"/>
        <pt x="162" y="89" on="0"/>
        <pt x="150" y="100" on="0"/>
        <pt x="142" y="114" on="0"/>
        <pt x="142" y="124" on="1"/>
        <pt x="142" y="131" on="0"/>
        <pt x="145" y="143" on="0"/>
        <pt x="145" y="149" on="1"/>
        <pt x="145" y="156" on="0"/>
        <pt x="137" y="169" on="0"/>
        <pt x="128" y="182" on="0"/>
        <pt x="120" y="196" on="0"/>
        <pt x="120" y="204" on="1"/>
        <pt x="120" y="215" on="0"/>
        <pt x="132" y="237" on="0"/>
        <pt x="132" y="248" on="1"/>
        <pt x="132" y="261" on="0"/>
        <pt x="120" y="279" on="0"/>
        <pt x="120" y="290" on="1"/>
        <pt x="120" y="298" on="0"/>
        <pt x="128" y="314" on="0"/>
        <pt x="137" y="329" on="0"/>
        <pt x="145" y="344" on="0"/>
        <pt x="145" y="351" on="1"/>
        <pt x="145" y="357" on="0"/>
        <pt x="144" y="370" on="0"/>
        <pt x="144" y="376" on="1"/>
        <pt x="144" y="385" on="0"/>
        <pt x="152" y="398" on="0"/>
        <pt x="163" y="408" on="0"/>
        <pt x="175" y="418" on="0"/>
        <pt x="179" y="424" on="1"/>
        <pt x="184" y="432" on="0"/>
        <pt x="185" y="459" on="0"/>
        <pt x="190" y="467" on="1"/>
        <pt x="196" y="477" on="0"/>
        <pt x="222" y="483" on="0"/>
        <pt x="230" y="491" on="1"/>
        <pt x="238" y="499" on="0"/>
        <pt x="247" y="524" on="0"/>
        <pt x="255" y="532" on="1"/>
        <pt x="265" y="540" on="0"/>
        <pt x="294" y="543" on="0"/>
        <pt x="306" y="549" on="1"/>
        <pt x="312" y="552" on="0"/>
        <pt x="322" y="565" on="0"/>
        <pt x="333" y="577" on="0"/>
        <pt x="346" y="587" on="0"/>
        <pt x="355" y="587" on="1"/>
        <pt x="361" y="587" on="0"/>
        <pt x="374" y="585" on="0"/>
        <pt x="381" y="585" on="1"/>
        <pt x="390" y="585" on="0"/>
        <pt x="404" y="592" on="0"/>
        <pt x="416" y="601" on="0"/>
        <pt x="428" y="608" on="0"/>
        <pt x="436" y="608" on="1"/>
        <pt x="446" y="608" on="0"/>
        <pt x="470" y="596" on="0"/>
        <pt x="480" y="596" on="1"/>
        <pt x="491" y="596" on="0"/>
        <pt x="514" y="608" on="0"/>
        <pt x="525" y="608" on="1"/>
        <pt x="535" y="608" on="0"/>
        <pt x="548" y="600" on="0"/>
        <pt x="560" y="591" on="0"/>
        <pt x="573" y="583" on="0"/>
        <pt x="582" y="583" on="1"/>
        <pt x="588" y="583" on="0"/>
        <pt x="602" y="586" on="0"/>
        <pt x="610" y="586" on="1"/>
        <pt x="620" y="586" on="0"/>
        <pt x="632" y="578" on="0"/>
        <pt x="642" y="566" on="0"/>
        <pt x="651" y="554" on="0"/>
        <pt x="658" y="550" on="1"/>
        <pt x="669" y="544" on="0"/>
        <pt x="692" y="543" on="0"/>
        <pt x="703" y="535" on="1"/>
        <pt x="713" y="528" on="0"/>
        <pt x="717" y="505" on="0"/>
        <pt x="726" y="496" on="1"/>
        <pt x="737" y="486" on="0"/>
        <pt x="769" y="474" on="0"/>
        <pt x="777" y="460" on="1"/>
        <pt x="782" y="452" on="0"/>
        <pt x="779" y="426" on="0"/>
        <pt x="784" y="418" on="1"/>
        <pt x="788" y="411" on="0"/>
        <pt x="800" y="402" on="0"/>
        <pt x="812" y="392" on="0"/>
        <pt x="820" y="379" on="0"/>
        <pt x="820" y="369" on="1"/>
        <pt x="820" y="362" on="0"/>
        <pt x="819" y="350" on="0"/>
        <pt x="819" y="344" on="1"/>
        <pt x="819" y="335" on="0"/>
        <pt x="826" y="319" on="0"/>
        <pt x="835" y="305" on="0"/>
        <pt x="843" y="291" on="0"/>
        <pt x="843" y="283" on="1"/>
        <pt x="843" y="272" on="0"/>
        <pt x="832" y="254" on="0"/>
        <pt x="832" y="244" on="1"/>
        <pt x="832" y="233" on="0"/>
        <pt x="843" y="211" on="0"/>
        <pt x="843" y="200" on="1"/>
        <pt x="842" y="192" on="0"/>
        <pt x="834" y="183" on="0"/>
        <pt x="825" y="173" on="0"/>
        <pt x="818" y="161" on="0"/>
        <pt x="818" y="152" on="1"/>
        <pt x="818" y="144" on="0"/>
        <pt x="820" y="128" on="0"/>
        <pt x="820" y="120" on="1"/>
        <pt x="820" y="109" on="0"/>
        <pt x="812" y="97" on="0"/>
        <pt x="801" y="88" on="0"/>
        <pt x="790" y="80" on="0"/>
        <pt x="786" y="74" on="1"/>
        <pt x="780" y="63" on="0"/>
        <pt x="776" y="33" on="0"/>
        <pt x="768" y="23" on="1"/>
        <pt x="761" y="15" on="0"/>
        <pt x="741" y="9" on="0"/>
        <pt x="733" y="1" on="1"/>
        <pt x="724" y="-8" on="0"/>
        <pt x="713" y="-35" on="0"/>
        <pt x="703" y="-42" on="1"/>
        <pt x="693" y="-49" on="0"/>
        <pt x="665" y="-54" on="0"/>
        <pt x="654" y="-60" on="1"/>
        <pt x="648" y="-64" on="0"/>
        <pt x="639" y="-74" on="0"/>
        <pt x="630" y="-83" on="0"/>
        <pt x="619" y="-89" on="0"/>
        <pt x="609" y="-89" on="1"/>
        <pt x="603" y="-89" on="0"/>
        <pt x="592" y="-88" on="0"/>
        <pt x="586" y="-88" on="1"/>
        <pt x="579" y="-88" on="0"/>
      </contour>
      <contour>
        <pt x="550" y="3" on="1"/>
        <pt x="553" y="4" on="0"/>
        <pt x="559" y="4" on="1"/>
        <pt x="563" y="4" on="0"/>
        <pt x="570" y="3" on="0"/>
        <pt x="574" y="3" on="1"/>
        <pt x="589" y="3" on="0"/>
        <pt x="598" y="20" on="0"/>
        <pt x="607" y="24" on="1"/>
        <pt x="615" y="29" on="0"/>
        <pt x="635" y="33" on="0"/>
        <pt x="642" y="38" on="1"/>
        <pt x="650" y="43" on="0"/>
        <pt x="658" y="62" on="0"/>
        <pt x="664" y="68" on="1"/>
        <pt x="669" y="74" on="0"/>
        <pt x="685" y="78" on="0"/>
        <pt x="690" y="84" on="1"/>
        <pt x="695" y="92" on="0"/>
        <pt x="698" y="114" on="0"/>
        <pt x="703" y="122" on="1"/>
        <pt x="706" y="127" on="0"/>
        <pt x="714" y="133" on="0"/>
        <pt x="722" y="139" on="0"/>
        <pt x="727" y="148" on="0"/>
        <pt x="727" y="157" on="1"/>
        <pt x="727" y="162" on="0"/>
        <pt x="726" y="172" on="0"/>
        <pt x="726" y="177" on="1"/>
        <pt x="726" y="184" on="0"/>
        <pt x="731" y="193" on="0"/>
        <pt x="737" y="201" on="0"/>
        <pt x="743" y="208" on="0"/>
        <pt x="744" y="213" on="1"/>
        <pt x="744" y="221" on="0"/>
        <pt x="736" y="237" on="0"/>
        <pt x="736" y="245" on="1"/>
        <pt x="736" y="252" on="0"/>
        <pt x="744" y="266" on="0"/>
        <pt x="744" y="273" on="1"/>
        <pt x="744" y="285" on="0"/>
        <pt x="726" y="304" on="0"/>
        <pt x="726" y="318" on="1"/>
        <pt x="726" y="322" on="0"/>
        <pt x="727" y="330" on="0"/>
        <pt x="727" y="335" on="1"/>
        <pt x="727" y="343" on="0"/>
        <pt x="721" y="352" on="0"/>
        <pt x="713" y="359" on="0"/>
        <pt x="704" y="366" on="0"/>
        <pt x="701" y="371" on="1"/>
        <pt x="698" y="377" on="0"/>
        <pt x="699" y="396" on="0"/>
        <pt x="696" y="402" on="1"/>
        <pt x="690" y="412" on="0"/>
        <pt x="667" y="420" on="0"/>
        <pt x="659" y="428" on="1"/>
        <pt x="652" y="434" on="0"/>
        <pt x="650" y="451" on="0"/>
        <pt x="642" y="456" on="1"/>
        <pt x="634" y="462" on="0"/>
        <pt x="618" y="462" on="0"/>
        <pt x="609" y="467" on="1"/>
        <pt x="604" y="470" on="0"/>
        <pt x="598" y="478" on="0"/>
        <pt x="591" y="487" on="0"/>
        <pt x="582" y="493" on="0"/>
        <pt x="575" y="493" on="1"/>
        <pt x="570" y="493" on="0"/>
        <pt x="560" y="491" on="0"/>
        <pt x="555" y="491" on="1"/>
        <pt x="548" y="491" on="0"/>
        <pt x="539" y="497" on="0"/>
        <pt x="530" y="503" on="0"/>
        <pt x="521" y="509" on="0"/>
        <pt x="514" y="509" on="1"/>
        <pt x="506" y="509" on="0"/>
        <pt x="489" y="500" on="0"/>
        <pt x="481" y="500" on="1"/>
        <pt x="473" y="500" on="0"/>
        <pt x="457" y="509" on="0"/>
        <pt x="449" y="509" on="1"/>
        <pt x="437" y="509" on="0"/>
        <pt x="421" y="492" on="0"/>
        <pt x="407" y="492" on="1"/>
        <pt x="402" y="492" on="0"/>
        <pt x="395" y="493" on="0"/>
        <pt x="390" y="493" on="1"/>
        <pt x="376" y="493" on="0"/>
        <pt x="364" y="471" on="0"/>
        <pt x="354" y="466" on="1"/>
        <pt x="346" y="461" on="0"/>
        <pt x="325" y="460" on="0"/>
        <pt x="318" y="454" on="1"/>
        <pt x="311" y="449" on="0"/>
        <pt x="305" y="430" on="0"/>
        <pt x="299" y="424" on="1"/>
        <pt x="293" y="418" on="0"/>
        <pt x="275" y="414" on="0"/>
        <pt x="270" y="407" on="1"/>
        <pt x="266" y="401" on="0"/>
        <pt x="266" y="382" on="0"/>
        <pt x="262" y="376" on="1"/>
        <pt x="259" y="371" on="0"/>
        <pt x="251" y="364" on="0"/>
        <pt x="242" y="356" on="0"/>
        <pt x="236" y="347" on="0"/>
        <pt x="236" y="340" on="1"/>
        <pt x="236" y="336" on="0"/>
        <pt x="237" y="328" on="0"/>
        <pt x="237" y="324" on="1"/>
        <pt x="237" y="312" on="0"/>
        <pt x="220" y="290" on="0"/>
        <pt x="220" y="278" on="1"/>
        <pt x="220" y="270" on="0"/>
        <pt x="228" y="257" on="0"/>
        <pt x="228" y="248" on="1"/>
        <pt x="228" y="240" on="0"/>
        <pt x="220" y="223" on="0"/>
        <pt x="220" y="215" on="1"/>
        <pt x="220" y="204" on="0"/>
        <pt x="237" y="185" on="0"/>
        <pt x="237" y="174" on="1"/>
        <pt x="237" y="170" on="0"/>
        <pt x="235" y="162" on="0"/>
        <pt x="235" y="158" on="1"/>
        <pt x="235" y="144" on="0"/>
        <pt x="256" y="130" on="0"/>
        <pt x="260" y="123" on="1"/>
        <pt x="266" y="113" on="0"/>
        <pt x="265" y="98" on="0"/>
        <pt x="271" y="88" on="1"/>
        <pt x="276" y="80" on="0"/>
        <pt x="292" y="77" on="0"/>
        <pt x="299" y="71" on="1"/>
        <pt x="307" y="65" on="0"/>
        <pt x="311" y="43" on="0"/>
        <pt x="321" y="37" on="1"/>
        <pt x="325" y="34" on="0"/>
        <pt x="332" y="33" on="0"/>
        <pt x="339" y="33" on="0"/>
        <pt x="348" y="31" on="0"/>
        <pt x="354" y="28" on="1"/>
        <pt x="362" y="24" on="0"/>
        <pt x="377" y="2" on="0"/>
        <pt x="391" y="2" on="1"/>
        <pt x="395" y="2" on="0"/>
        <pt x="402" y="3" on="0"/>
        <pt x="406" y="3" on="1"/>
        <pt x="420" y="3" on="0"/>
        <pt x="435" y="-13" on="0"/>
        <pt x="446" y="-15" on="1"/>
        <pt x="455" y="-15" on="0"/>
        <pt x="473" y="-6" on="0"/>
        <pt x="482" y="-6" on="1"/>
        <pt x="490" y="-6" on="0"/>
        <pt x="507" y="-13" on="0"/>
        <pt x="515" y="-13" on="1"/>
        <pt x="524" y="-13" on="0"/>
        <pt x="540" y="1" on="0"/>
      </contour>
      <contour>
        <pt x="482" y="417" on="1"/>
        <pt x="517" y="417" on="0"/>
        <pt x="579" y="390" on="0"/>
        <pt x="625" y="344" on="0"/>
        <pt x="652" y="282" on="0"/>
        <pt x="652" y="247" on="1"/>
        <pt x="652" y="212" on="0"/>
        <pt x="625" y="150" on="0"/>
        <pt x="579" y="104" on="0"/>
        <pt x="517" y="77" on="0"/>
        <pt x="482" y="77" on="1"/>
        <pt x="447" y="77" on="0"/>
        <pt x="385" y="104" on="0"/>
        <pt x="339" y="150" on="0"/>
        <pt x="312" y="212" on="0"/>
        <pt x="312" y="247" on="1"/>
        <pt x="312" y="282" on="0"/>
        <pt x="339" y="344" on="0"/>
        <pt x="385" y="390" on="0"/>
        <pt x="447" y="417" on="0"/>
      </contour>
      <contour>
        <pt x="577" y="292" on="1"/>
        <pt x="577" y="360" on="1"/>
        <pt x="386" y="360" on="1"/>
        <pt x="386" y="292" on="1"/>
        <pt x="439" y="292" on="1"/>
        <pt x="439" y="117" on="1"/>
        <pt x="524" y="117" on="1"/>
        <pt x="524" y="292" on="1"/>
      </contour>
    </TTGlyph>
    <TTGlyph name="approxequal" xMin="130" yMin="183" xMax="490" yMax="490">
      <contour>
        <pt x="490" y="394" on="1"/>
        <pt x="470" y="405" on="0"/>
        <pt x="433" y="413" on="0"/>
        <pt x="413" y="413" on="1"/>
        <pt x="387" y="413" on="0"/>
        <pt x="334" y="401" on="0"/>
        <pt x="282" y="386" on="0"/>
        <pt x="229" y="374" on="0"/>
        <pt x="202" y="374" on="1"/>
        <pt x="178" y="374" on="0"/>
        <pt x="150" y="383" on="0"/>
        <pt x="135" y="399" on="0"/>
        <pt x="130" y="423" on="0"/>
        <pt x="130" y="438" on="1"/>
        <pt x="130" y="470" on="1"/>
        <pt x="150" y="459" on="0"/>
        <pt x="187" y="451" on="0"/>
        <pt x="207" y="451" on="1"/>
        <pt x="233" y="451" on="0"/>
        <pt x="285" y="463" on="0"/>
        <pt x="338" y="478" on="0"/>
        <pt x="391" y="490" on="0"/>
        <pt x="418" y="490" on="1"/>
        <pt x="442" y="490" on="0"/>
        <pt x="470" y="481" on="0"/>
        <pt x="485" y="465" on="0"/>
        <pt x="490" y="441" on="0"/>
        <pt x="490" y="426" on="1"/>
      </contour>
      <contour>
        <pt x="490" y="203" on="1"/>
        <pt x="470" y="214" on="0"/>
        <pt x="433" y="222" on="0"/>
        <pt x="413" y="222" on="1"/>
        <pt x="387" y="222" on="0"/>
        <pt x="334" y="210" on="0"/>
        <pt x="282" y="195" on="0"/>
        <pt x="229" y="183" on="0"/>
        <pt x="202" y="183" on="1"/>
        <pt x="178" y="183" on="0"/>
        <pt x="150" y="192" on="0"/>
        <pt x="135" y="208" on="0"/>
        <pt x="130" y="232" on="0"/>
        <pt x="130" y="247" on="1"/>
        <pt x="130" y="279" on="1"/>
        <pt x="150" y="268" on="0"/>
        <pt x="187" y="260" on="0"/>
        <pt x="207" y="260" on="1"/>
        <pt x="233" y="260" on="0"/>
        <pt x="285" y="272" on="0"/>
        <pt x="338" y="287" on="0"/>
        <pt x="391" y="299" on="0"/>
        <pt x="418" y="299" on="1"/>
        <pt x="442" y="299" on="0"/>
        <pt x="470" y="290" on="0"/>
        <pt x="485" y="274" on="0"/>
        <pt x="490" y="250" on="0"/>
        <pt x="490" y="235" on="1"/>
      </contour>
    </TTGlyph>
    <TTGlyph name="aring" xMin="190" yMin="-5" xMax="967" yMax="824">
      <contour>
        <pt x="280" y="75" on="1"/>
        <pt x="304" y="75" on="0"/>
        <pt x="363" y="96" on="0"/>
        <pt x="424" y="139" on="0"/>
        <pt x="483" y="204" on="0"/>
        <pt x="528" y="293" on="0"/>
        <pt x="556" y="407" on="0"/>
        <pt x="556" y="477" on="1"/>
        <pt x="556" y="540" on="1"/>
        <pt x="592" y="540" on="1"/>
        <pt x="667" y="540" on="0"/>
        <pt x="667" y="449" on="1"/>
        <pt x="667" y="422" on="0"/>
        <pt x="655" y="372" on="0"/>
        <pt x="646" y="349" on="1"/>
        <pt x="646" y="70" on="1"/>
        <pt x="967" y="70" on="1"/>
        <pt x="967" y="48" on="0"/>
        <pt x="955" y="21" on="0"/>
        <pt x="935" y="6" on="0"/>
        <pt x="910" y="0" on="0"/>
        <pt x="897" y="0" on="1"/>
        <pt x="617" y="0" on="1"/>
        <pt x="606" y="0" on="0"/>
        <pt x="584" y="5" on="0"/>
        <pt x="567" y="18" on="0"/>
        <pt x="556" y="41" on="0"/>
        <pt x="556" y="60" on="1"/>
        <pt x="556" y="198" on="1"/>
        <pt x="529" y="151" on="0"/>
        <pt x="463" y="76" on="0"/>
        <pt x="391" y="24" on="0"/>
        <pt x="316" y="-5" on="0"/>
        <pt x="280" y="-5" on="1"/>
        <pt x="254" y="-5" on="0"/>
        <pt x="219" y="9" on="0"/>
        <pt x="198" y="33" on="0"/>
        <pt x="190" y="66" on="0"/>
        <pt x="190" y="85" on="1"/>
        <pt x="190" y="331" on="1"/>
        <pt x="190" y="387" on="0"/>
        <pt x="214" y="470" on="0"/>
        <pt x="268" y="524" on="0"/>
        <pt x="355" y="550" on="0"/>
        <pt x="417" y="550" on="1"/>
        <pt x="460" y="550" on="0"/>
        <pt x="506" y="518" on="0"/>
        <pt x="506" y="480" on="1"/>
        <pt x="506" y="470" on="1"/>
        <pt x="417" y="470" on="1"/>
        <pt x="381" y="470" on="0"/>
        <pt x="330" y="459" on="0"/>
        <pt x="296" y="428" on="0"/>
        <pt x="280" y="374" on="0"/>
        <pt x="280" y="331" on="1"/>
      </contour>
      <contour>
        <pt x="436" y="591" on="1"/>
        <pt x="375" y="591" on="0"/>
        <pt x="317" y="657" on="0"/>
        <pt x="317" y="707" on="1"/>
        <pt x="317" y="758" on="0"/>
        <pt x="375" y="824" on="0"/>
        <pt x="436" y="824" on="1"/>
        <pt x="497" y="824" on="0"/>
        <pt x="555" y="758" on="0"/>
        <pt x="555" y="707" on="1"/>
        <pt x="555" y="657" on="0"/>
        <pt x="497" y="591" on="0"/>
      </contour>
      <contour>
        <pt x="436" y="655" on="1"/>
        <pt x="464" y="655" on="0"/>
        <pt x="490" y="684" on="0"/>
        <pt x="490" y="707" on="1"/>
        <pt x="490" y="730" on="0"/>
        <pt x="464" y="760" on="0"/>
        <pt x="436" y="760" on="1"/>
        <pt x="408" y="760" on="0"/>
        <pt x="382" y="730" on="0"/>
        <pt x="382" y="707" on="1"/>
        <pt x="382" y="684" on="0"/>
        <pt x="408" y="655" on="0"/>
      </contour>
    </TTGlyph>
    <TTGlyph name="asciicircum" xMin="147" yMin="463" xMax="475" yMax="720">
      <contour>
        <pt x="233" y="481" on="1"/>
        <pt x="228" y="473" on="0"/>
        <pt x="213" y="463" on="0"/>
        <pt x="202" y="463" on="1"/>
        <pt x="183" y="463" on="0"/>
        <pt x="147" y="479" on="1"/>
        <pt x="265" y="691" on="1"/>
        <pt x="273" y="704" on="0"/>
        <pt x="294" y="720" on="0"/>
        <pt x="311" y="720" on="1"/>
        <pt x="328" y="720" on="0"/>
        <pt x="349" y="704" on="0"/>
        <pt x="357" y="691" on="1"/>
        <pt x="475" y="479" on="1"/>
        <pt x="439" y="463" on="0"/>
        <pt x="420" y="463" on="1"/>
        <pt x="409" y="463" on="0"/>
        <pt x="394" y="473" on="0"/>
        <pt x="389" y="481" on="1"/>
        <pt x="311" y="617" on="1"/>
      </contour>
    </TTGlyph>
    <TTGlyph name="asciitilde" xMin="130" yMin="278" xMax="490" yMax="394">
      <contour>
        <pt x="490" y="298" on="1"/>
        <pt x="470" y="309" on="0"/>
        <pt x="433" y="317" on="0"/>
        <pt x="413" y="317" on="1"/>
        <pt x="387" y="317" on="0"/>
        <pt x="334" y="305" on="0"/>
        <pt x="282" y="290" on="0"/>
        <pt x="229" y="278" on="0"/>
        <pt x="202" y="278" on="1"/>
        <pt x="178" y="278" on="0"/>
        <pt x="150" y="287" on="0"/>
        <pt x="135" y="303" on="0"/>
        <pt x="130" y="327" on="0"/>
        <pt x="130" y="342" on="1"/>
        <pt x="130" y="374" on="1"/>
        <pt x="150" y="363" on="0"/>
        <pt x="187" y="355" on="0"/>
        <pt x="207" y="355" on="1"/>
        <pt x="233" y="355" on="0"/>
        <pt x="285" y="367" on="0"/>
        <pt x="338" y="382" on="0"/>
        <pt x="391" y="394" on="0"/>
        <pt x="418" y="394" on="1"/>
        <pt x="442" y="394" on="0"/>
        <pt x="470" y="385" on="0"/>
        <pt x="485" y="369" on="0"/>
        <pt x="490" y="345" on="0"/>
        <pt x="490" y="330" on="1"/>
      </contour>
    </TTGlyph>
    <TTGlyph name="asterisk" xMin="290" yMin="361" xMax="698" yMax="756">
      <contour>
        <pt x="632" y="713" on="1"/>
        <pt x="632" y="666" on="0"/>
        <pt x="578" y="595" on="0"/>
        <pt x="543" y="572" on="1"/>
        <pt x="562" y="564" on="0"/>
        <pt x="586" y="564" on="1"/>
        <pt x="606" y="564" on="0"/>
        <pt x="654" y="574" on="0"/>
        <pt x="683" y="583" on="1"/>
        <pt x="693" y="547" on="0"/>
        <pt x="698" y="527" on="0"/>
        <pt x="698" y="522" on="1"/>
        <pt x="698" y="499" on="0"/>
        <pt x="654" y="479" on="0"/>
        <pt x="625" y="479" on="1"/>
        <pt x="590" y="479" on="0"/>
        <pt x="532" y="505" on="0"/>
        <pt x="506" y="529" on="1"/>
        <pt x="506" y="521" on="1"/>
        <pt x="506" y="492" on="0"/>
        <pt x="535" y="433" on="0"/>
        <pt x="561" y="398" on="1"/>
        <pt x="525" y="372" on="1"/>
        <pt x="509" y="361" on="0"/>
        <pt x="496" y="361" on="1"/>
        <pt x="481" y="361" on="0"/>
        <pt x="459" y="383" on="0"/>
        <pt x="444" y="415" on="0"/>
        <pt x="437" y="451" on="0"/>
        <pt x="437" y="465" on="1"/>
        <pt x="437" y="507" on="0"/>
        <pt x="453" y="547" on="1"/>
        <pt x="424" y="539" on="0"/>
        <pt x="373" y="493" on="0"/>
        <pt x="347" y="455" on="1"/>
        <pt x="310" y="481" on="1"/>
        <pt x="290" y="495" on="0"/>
        <pt x="290" y="516" on="1"/>
        <pt x="290" y="537" on="0"/>
        <pt x="323" y="570" on="0"/>
        <pt x="369" y="592" on="0"/>
        <pt x="420" y="604" on="0"/>
        <pt x="438" y="604" on="1"/>
        <pt x="455" y="604" on="1"/>
        <pt x="440" y="630" on="0"/>
        <pt x="379" y="662" on="0"/>
        <pt x="334" y="676" on="1"/>
        <pt x="348" y="719" on="1"/>
        <pt x="359" y="752" on="0"/>
        <pt x="386" y="752" on="1"/>
        <pt x="410" y="752" on="0"/>
        <pt x="451" y="726" on="0"/>
        <pt x="483" y="686" on="0"/>
        <pt x="505" y="640" on="0"/>
        <pt x="510" y="620" on="1"/>
        <pt x="530" y="643" on="0"/>
        <pt x="543" y="709" on="0"/>
        <pt x="543" y="756" on="1"/>
        <pt x="586" y="756" on="1"/>
        <pt x="608" y="756" on="0"/>
        <pt x="632" y="736" on="0"/>
      </contour>
    </TTGlyph>
    <TTGlyph name="at" xMin="190" yMin="0" xMax="1190" yMax="749">
      <contour>
        <pt x="713" y="223" on="1"/>
        <pt x="731" y="223" on="0"/>
        <pt x="768" y="228" on="0"/>
        <pt x="799" y="255" on="0"/>
        <pt x="819" y="311" on="0"/>
        <pt x="819" y="361" on="1"/>
        <pt x="819" y="674" on="1"/>
        <pt x="704" y="674" on="0"/>
        <pt x="535" y="667" on="0"/>
        <pt x="415" y="644" on="0"/>
        <pt x="339" y="598" on="0"/>
        <pt x="296" y="521" on="0"/>
        <pt x="280" y="408" on="0"/>
        <pt x="280" y="328" on="1"/>
        <pt x="280" y="70" on="1"/>
        <pt x="1190" y="70" on="1"/>
        <pt x="1190" y="48" on="0"/>
        <pt x="1178" y="21" on="0"/>
        <pt x="1158" y="6" on="0"/>
        <pt x="1133" y="0" on="0"/>
        <pt x="1120" y="0" on="1"/>
        <pt x="265" y="0" on="1"/>
        <pt x="228" y="0" on="0"/>
        <pt x="190" y="33" on="0"/>
        <pt x="190" y="75" on="1"/>
        <pt x="190" y="328" on="1"/>
        <pt x="190" y="421" on="0"/>
        <pt x="214" y="555" on="0"/>
        <pt x="271" y="649" on="0"/>
        <pt x="366" y="706" on="0"/>
        <pt x="509" y="738" on="0"/>
        <pt x="705" y="749" on="0"/>
        <pt x="834" y="749" on="1"/>
        <pt x="871" y="749" on="0"/>
        <pt x="909" y="716" on="0"/>
        <pt x="909" y="674" on="1"/>
        <pt x="909" y="361" on="1"/>
        <pt x="909" y="300" on="0"/>
        <pt x="874" y="220" on="0"/>
        <pt x="818" y="172" on="0"/>
        <pt x="748" y="152" on="0"/>
        <pt x="713" y="152" on="1"/>
        <pt x="686" y="152" on="1"/>
        <pt x="676" y="152" on="0"/>
        <pt x="657" y="156" on="0"/>
        <pt x="642" y="168" on="0"/>
        <pt x="633" y="189" on="0"/>
        <pt x="633" y="206" on="1"/>
        <pt x="633" y="274" on="1"/>
        <pt x="593" y="214" on="0"/>
        <pt x="488" y="148" on="0"/>
        <pt x="441" y="148" on="1"/>
        <pt x="397" y="148" on="0"/>
        <pt x="366" y="191" on="0"/>
        <pt x="366" y="223" on="1"/>
        <pt x="366" y="413" on="1"/>
        <pt x="366" y="456" on="0"/>
        <pt x="384" y="519" on="0"/>
        <pt x="425" y="560" on="0"/>
        <pt x="491" y="580" on="0"/>
        <pt x="538" y="580" on="1"/>
        <pt x="565" y="580" on="0"/>
        <pt x="585" y="551" on="0"/>
        <pt x="585" y="518" on="1"/>
        <pt x="585" y="501" on="1"/>
        <pt x="533" y="501" on="1"/>
        <pt x="510" y="501" on="0"/>
        <pt x="478" y="494" on="0"/>
        <pt x="456" y="475" on="0"/>
        <pt x="446" y="440" on="0"/>
        <pt x="446" y="413" on="1"/>
        <pt x="446" y="223" on="1"/>
        <pt x="471" y="227" on="0"/>
        <pt x="536" y="258" on="0"/>
        <pt x="594" y="320" on="0"/>
        <pt x="633" y="415" on="0"/>
        <pt x="633" y="483" on="1"/>
        <pt x="633" y="573" on="1"/>
        <pt x="664" y="573" on="1"/>
        <pt x="728" y="573" on="0"/>
        <pt x="728" y="496" on="1"/>
        <pt x="728" y="478" on="0"/>
        <pt x="720" y="440" on="0"/>
        <pt x="713" y="424" on="1"/>
      </contour>
    </TTGlyph>
    <TTGlyph name="atilde" xMin="190" yMin="-5" xMax="967" yMax="763">
      <contour>
        <pt x="280" y="75" on="1"/>
        <pt x="304" y="75" on="0"/>
        <pt x="363" y="96" on="0"/>
        <pt x="424" y="139" on="0"/>
        <pt x="483" y="204" on="0"/>
        <pt x="528" y="293" on="0"/>
        <pt x="556" y="407" on="0"/>
        <pt x="556" y="477" on="1"/>
        <pt x="556" y="540" on="1"/>
        <pt x="592" y="540" on="1"/>
        <pt x="667" y="540" on="0"/>
        <pt x="667" y="449" on="1"/>
        <pt x="667" y="422" on="0"/>
        <pt x="655" y="372" on="0"/>
        <pt x="646" y="349" on="1"/>
        <pt x="646" y="70" on="1"/>
        <pt x="967" y="70" on="1"/>
        <pt x="967" y="48" on="0"/>
        <pt x="955" y="21" on="0"/>
        <pt x="935" y="6" on="0"/>
        <pt x="910" y="0" on="0"/>
        <pt x="897" y="0" on="1"/>
        <pt x="617" y="0" on="1"/>
        <pt x="606" y="0" on="0"/>
        <pt x="584" y="5" on="0"/>
        <pt x="567" y="18" on="0"/>
        <pt x="556" y="41" on="0"/>
        <pt x="556" y="60" on="1"/>
        <pt x="556" y="198" on="1"/>
        <pt x="529" y="151" on="0"/>
        <pt x="463" y="76" on="0"/>
        <pt x="391" y="24" on="0"/>
        <pt x="316" y="-5" on="0"/>
        <pt x="280" y="-5" on="1"/>
        <pt x="254" y="-5" on="0"/>
        <pt x="219" y="9" on="0"/>
        <pt x="198" y="33" on="0"/>
        <pt x="190" y="66" on="0"/>
        <pt x="190" y="85" on="1"/>
        <pt x="190" y="331" on="1"/>
        <pt x="190" y="387" on="0"/>
        <pt x="214" y="470" on="0"/>
        <pt x="268" y="524" on="0"/>
        <pt x="355" y="550" on="0"/>
        <pt x="417" y="550" on="1"/>
        <pt x="460" y="550" on="0"/>
        <pt x="506" y="518" on="0"/>
        <pt x="506" y="480" on="1"/>
        <pt x="506" y="470" on="1"/>
        <pt x="417" y="470" on="1"/>
        <pt x="381" y="470" on="0"/>
        <pt x="330" y="459" on="0"/>
        <pt x="296" y="428" on="0"/>
        <pt x="280" y="374" on="0"/>
        <pt x="280" y="331" on="1"/>
      </contour>
      <contour>
        <pt x="330" y="735" on="1"/>
        <pt x="339" y="727" on="0"/>
        <pt x="358" y="716" on="0"/>
        <pt x="372" y="716" on="1"/>
        <pt x="390" y="716" on="0"/>
        <pt x="432" y="734" on="1"/>
        <pt x="466" y="749" on="1"/>
        <pt x="497" y="763" on="0"/>
        <pt x="528" y="763" on="1"/>
        <pt x="566" y="763" on="0"/>
        <pt x="616" y="720" on="0"/>
        <pt x="616" y="687" on="1"/>
        <pt x="616" y="677" on="0"/>
        <pt x="609" y="652" on="0"/>
        <pt x="595" y="636" on="1"/>
        <pt x="569" y="661" on="1"/>
        <pt x="560" y="669" on="0"/>
        <pt x="541" y="680" on="0"/>
        <pt x="527" y="680" on="1"/>
        <pt x="509" y="680" on="0"/>
        <pt x="467" y="662" on="1"/>
        <pt x="433" y="647" on="1"/>
        <pt x="402" y="633" on="0"/>
        <pt x="371" y="633" on="1"/>
        <pt x="333" y="633" on="0"/>
        <pt x="283" y="676" on="0"/>
        <pt x="283" y="709" on="1"/>
        <pt x="283" y="719" on="0"/>
        <pt x="290" y="744" on="0"/>
        <pt x="304" y="760" on="1"/>
      </contour>
    </TTGlyph>
    <TTGlyph name="b" xMin="169" yMin="0" xMax="976" yMax="760">
      <contour>
        <pt x="250" y="0" on="1"/>
        <pt x="208" y="0" on="0"/>
        <pt x="169" y="43" on="0"/>
        <pt x="169" y="91" on="1"/>
        <pt x="169" y="118" on="0"/>
        <pt x="180" y="168" on="0"/>
        <pt x="190" y="191" on="1"/>
        <pt x="190" y="740" on="1"/>
        <pt x="190" y="748" on="0"/>
        <pt x="202" y="760" on="0"/>
        <pt x="210" y="760" on="1"/>
        <pt x="260" y="760" on="1"/>
        <pt x="268" y="760" on="0"/>
        <pt x="280" y="748" on="0"/>
        <pt x="280" y="740" on="1"/>
        <pt x="280" y="346" on="1"/>
        <pt x="308" y="394" on="0"/>
        <pt x="379" y="473" on="0"/>
        <pt x="457" y="529" on="0"/>
        <pt x="538" y="560" on="0"/>
        <pt x="577" y="560" on="1"/>
        <pt x="603" y="560" on="0"/>
        <pt x="638" y="546" on="0"/>
        <pt x="659" y="522" on="0"/>
        <pt x="667" y="489" on="0"/>
        <pt x="667" y="470" on="1"/>
        <pt x="667" y="219" on="1"/>
        <pt x="667" y="177" on="0"/>
        <pt x="635" y="97" on="0"/>
        <pt x="590" y="70" on="1"/>
        <pt x="976" y="70" on="1"/>
        <pt x="976" y="48" on="0"/>
        <pt x="964" y="21" on="0"/>
        <pt x="944" y="6" on="0"/>
        <pt x="919" y="0" on="0"/>
        <pt x="906" y="0" on="1"/>
        <pt x="402" y="0" on="1"/>
        <pt x="391" y="0" on="0"/>
        <pt x="369" y="5" on="0"/>
        <pt x="352" y="18" on="0"/>
        <pt x="342" y="41" on="0"/>
        <pt x="342" y="60" on="1"/>
        <pt x="342" y="70" on="1"/>
        <pt x="440" y="70" on="1"/>
        <pt x="477" y="70" on="0"/>
        <pt x="529" y="101" on="0"/>
        <pt x="562" y="147" on="0"/>
        <pt x="577" y="199" on="0"/>
        <pt x="577" y="219" on="1"/>
        <pt x="577" y="480" on="1"/>
        <pt x="541" y="480" on="0"/>
        <pt x="440" y="428" on="0"/>
        <pt x="346" y="324" on="0"/>
        <pt x="280" y="168" on="0"/>
        <pt x="280" y="63" on="1"/>
        <pt x="280" y="0" on="1"/>
      </contour>
    </TTGlyph>
    <TTGlyph name="backslash" xMin="100" yMin="0" xMax="393" yMax="760">
      <contour>
        <pt x="100" y="760" on="1"/>
        <pt x="129" y="760" on="1"/>
        <pt x="145" y="760" on="0"/>
        <pt x="169" y="757" on="0"/>
        <pt x="187" y="745" on="0"/>
        <pt x="200" y="721" on="0"/>
        <pt x="206" y="700" on="1"/>
        <pt x="393" y="0" on="1"/>
        <pt x="364" y="0" on="1"/>
        <pt x="327" y="0" on="0"/>
        <pt x="297" y="24" on="0"/>
        <pt x="287" y="60" on="1"/>
      </contour>
    </TTGlyph>
    <TTGlyph name="bar" xMin="250" yMin="-50" xMax="320" yMax="760">
      <contour>
        <pt x="320" y="10" on="1"/>
        <pt x="320" y="-26" on="0"/>
        <pt x="296" y="-50" on="0"/>
        <pt x="259" y="-50" on="1"/>
        <pt x="250" y="-50" on="1"/>
        <pt x="250" y="700" on="1"/>
        <pt x="250" y="721" on="0"/>
        <pt x="257" y="745" on="0"/>
        <pt x="272" y="757" on="0"/>
        <pt x="295" y="760" on="0"/>
        <pt x="311" y="760" on="1"/>
        <pt x="320" y="760" on="1"/>
      </contour>
    </TTGlyph>
    <TTGlyph name="barra" xMin="25" yMin="320" xMax="393" yMax="390">
      <contour>
        <pt x="25" y="320" on="1"/>
        <pt x="25" y="354" on="0"/>
        <pt x="45" y="390" on="0"/>
        <pt x="79" y="390" on="1"/>
        <pt x="393" y="390" on="1"/>
        <pt x="393" y="356" on="0"/>
        <pt x="372" y="320" on="0"/>
        <pt x="339" y="320" on="1"/>
      </contour>
    </TTGlyph>
    <TTGlyph name="braceleft" xMin="-14" yMin="-50" xMax="270" yMax="760">
      <contour>
        <pt x="71" y="351" on="1"/>
        <pt x="105" y="347" on="0"/>
        <pt x="140" y="302" on="0"/>
        <pt x="140" y="279" on="1"/>
        <pt x="140" y="20" on="1"/>
        <pt x="200" y="20" on="1"/>
        <pt x="213" y="20" on="0"/>
        <pt x="238" y="14" on="0"/>
        <pt x="258" y="-1" on="0"/>
        <pt x="270" y="-28" on="0"/>
        <pt x="270" y="-50" on="1"/>
        <pt x="50" y="-50" on="1"/>
        <pt x="50" y="187" on="1"/>
        <pt x="50" y="227" on="0"/>
        <pt x="46" y="278" on="0"/>
        <pt x="36" y="308" on="0"/>
        <pt x="19" y="320" on="0"/>
        <pt x="6" y="320" on="1"/>
        <pt x="-2" y="320" on="0"/>
        <pt x="-14" y="332" on="0"/>
        <pt x="-14" y="340" on="1"/>
        <pt x="-14" y="370" on="1"/>
        <pt x="-14" y="378" on="0"/>
        <pt x="-2" y="390" on="0"/>
        <pt x="6" y="390" on="1"/>
        <pt x="19" y="390" on="0"/>
        <pt x="36" y="402" on="0"/>
        <pt x="46" y="432" on="0"/>
        <pt x="50" y="483" on="0"/>
        <pt x="50" y="523" on="1"/>
        <pt x="50" y="760" on="1"/>
        <pt x="270" y="760" on="1"/>
        <pt x="270" y="738" on="0"/>
        <pt x="258" y="711" on="0"/>
        <pt x="238" y="696" on="0"/>
        <pt x="213" y="690" on="0"/>
        <pt x="200" y="690" on="1"/>
        <pt x="140" y="690" on="1"/>
        <pt x="140" y="431" on="1"/>
        <pt x="140" y="408" on="0"/>
        <pt x="105" y="363" on="0"/>
        <pt x="71" y="359" on="1"/>
      </contour>
    </TTGlyph>
    <TTGlyph name="braceright" xMin="200" yMin="-50" xMax="484" yMax="760">
      <contour>
        <pt x="399" y="359" on="1"/>
        <pt x="365" y="363" on="0"/>
        <pt x="330" y="408" on="0"/>
        <pt x="330" y="431" on="1"/>
        <pt x="330" y="690" on="1"/>
        <pt x="270" y="690" on="1"/>
        <pt x="257" y="690" on="0"/>
        <pt x="232" y="696" on="0"/>
        <pt x="212" y="711" on="0"/>
        <pt x="200" y="738" on="0"/>
        <pt x="200" y="760" on="1"/>
        <pt x="420" y="760" on="1"/>
        <pt x="420" y="523" on="1"/>
        <pt x="420" y="483" on="0"/>
        <pt x="424" y="432" on="0"/>
        <pt x="434" y="402" on="0"/>
        <pt x="451" y="390" on="0"/>
        <pt x="464" y="390" on="1"/>
        <pt x="472" y="390" on="0"/>
        <pt x="484" y="378" on="0"/>
        <pt x="484" y="370" on="1"/>
        <pt x="484" y="340" on="1"/>
        <pt x="484" y="332" on="0"/>
        <pt x="472" y="320" on="0"/>
        <pt x="464" y="320" on="1"/>
        <pt x="451" y="320" on="0"/>
        <pt x="434" y="308" on="0"/>
        <pt x="424" y="278" on="0"/>
        <pt x="420" y="227" on="0"/>
        <pt x="420" y="187" on="1"/>
        <pt x="420" y="-50" on="1"/>
        <pt x="200" y="-50" on="1"/>
        <pt x="200" y="-28" on="0"/>
        <pt x="212" y="-1" on="0"/>
        <pt x="232" y="14" on="0"/>
        <pt x="257" y="20" on="0"/>
        <pt x="270" y="20" on="1"/>
        <pt x="330" y="20" on="1"/>
        <pt x="330" y="279" on="1"/>
        <pt x="330" y="302" on="0"/>
        <pt x="365" y="347" on="0"/>
        <pt x="399" y="351" on="1"/>
      </contour>
    </TTGlyph>
    <TTGlyph name="bracketleft" xMin="50" yMin="-50" xMax="270" yMax="760">
      <contour>
        <pt x="140" y="20" on="1"/>
        <pt x="200" y="20" on="1"/>
        <pt x="213" y="20" on="0"/>
        <pt x="238" y="14" on="0"/>
        <pt x="258" y="-1" on="0"/>
        <pt x="270" y="-28" on="0"/>
        <pt x="270" y="-50" on="1"/>
        <pt x="50" y="-50" on="1"/>
        <pt x="50" y="760" on="1"/>
        <pt x="270" y="760" on="1"/>
        <pt x="270" y="738" on="0"/>
        <pt x="258" y="711" on="0"/>
        <pt x="238" y="696" on="0"/>
        <pt x="213" y="690" on="0"/>
        <pt x="200" y="690" on="1"/>
        <pt x="140" y="690" on="1"/>
      </contour>
    </TTGlyph>
    <TTGlyph name="bracketright" xMin="200" yMin="-50" xMax="420" yMax="760">
      <contour>
        <pt x="330" y="690" on="1"/>
        <pt x="270" y="690" on="1"/>
        <pt x="257" y="690" on="0"/>
        <pt x="232" y="696" on="0"/>
        <pt x="212" y="711" on="0"/>
        <pt x="200" y="738" on="0"/>
        <pt x="200" y="760" on="1"/>
        <pt x="420" y="760" on="1"/>
        <pt x="420" y="-50" on="1"/>
        <pt x="200" y="-50" on="1"/>
        <pt x="200" y="-28" on="0"/>
        <pt x="212" y="-1" on="0"/>
        <pt x="232" y="14" on="0"/>
        <pt x="257" y="20" on="0"/>
        <pt x="270" y="20" on="1"/>
        <pt x="330" y="20" on="1"/>
      </contour>
    </TTGlyph>
    <TTGlyph name="breve" xMin="229" yMin="621" xMax="533" yMax="792">
      <contour>
        <pt x="381" y="699" on="1"/>
        <pt x="493" y="792" on="1"/>
        <pt x="533" y="759" on="1"/>
        <pt x="488" y="684" on="0"/>
        <pt x="419" y="621" on="0"/>
        <pt x="381" y="621" on="1"/>
        <pt x="343" y="621" on="0"/>
        <pt x="274" y="684" on="0"/>
        <pt x="229" y="759" on="1"/>
        <pt x="269" y="792" on="1"/>
      </contour>
    </TTGlyph>
    <TTGlyph name="breve.case" xMin="229" yMin="771" xMax="533" yMax="942">
      <contour>
        <pt x="381" y="849" on="1"/>
        <pt x="493" y="942" on="1"/>
        <pt x="533" y="909" on="1"/>
        <pt x="488" y="834" on="0"/>
        <pt x="419" y="771" on="0"/>
        <pt x="381" y="771" on="1"/>
        <pt x="343" y="771" on="0"/>
        <pt x="274" y="834" on="0"/>
        <pt x="229" y="909" on="1"/>
        <pt x="269" y="942" on="1"/>
      </contour>
    </TTGlyph>
    <TTGlyph name="brokenbar" xMin="250" yMin="-50" xMax="320" yMax="760">
      <contour>
        <pt x="320" y="515" on="1"/>
        <pt x="320" y="479" on="0"/>
        <pt x="296" y="455" on="0"/>
        <pt x="259" y="455" on="1"/>
        <pt x="250" y="455" on="1"/>
        <pt x="250" y="700" on="1"/>
        <pt x="250" y="721" on="0"/>
        <pt x="257" y="745" on="0"/>
        <pt x="272" y="757" on="0"/>
        <pt x="295" y="760" on="0"/>
        <pt x="311" y="760" on="1"/>
        <pt x="320" y="760" on="1"/>
      </contour>
      <contour>
        <pt x="320" y="10" on="1"/>
        <pt x="320" y="-26" on="0"/>
        <pt x="296" y="-50" on="0"/>
        <pt x="259" y="-50" on="1"/>
        <pt x="250" y="-50" on="1"/>
        <pt x="250" y="195" on="1"/>
        <pt x="250" y="216" on="0"/>
        <pt x="257" y="240" on="0"/>
        <pt x="272" y="252" on="0"/>
        <pt x="295" y="255" on="0"/>
        <pt x="311" y="255" on="1"/>
        <pt x="320" y="255" on="1"/>
      </contour>
    </TTGlyph>
    <TTGlyph name="bullet" xMin="185" yMin="261" xMax="374" yMax="450">
      <contour>
        <pt x="185" y="355" on="1"/>
        <pt x="185" y="374" on="0"/>
        <pt x="193" y="409" on="0"/>
        <pt x="214" y="435" on="0"/>
        <pt x="250" y="450" on="0"/>
        <pt x="279" y="450" on="1"/>
        <pt x="306" y="450" on="0"/>
        <pt x="343" y="435" on="0"/>
        <pt x="365" y="409" on="0"/>
        <pt x="374" y="374" on="0"/>
        <pt x="374" y="355" on="1"/>
        <pt x="374" y="335" on="0"/>
        <pt x="365" y="301" on="0"/>
        <pt x="343" y="275" on="0"/>
        <pt x="306" y="261" on="0"/>
        <pt x="279" y="261" on="1"/>
        <pt x="250" y="261" on="0"/>
        <pt x="214" y="275" on="0"/>
        <pt x="193" y="301" on="0"/>
        <pt x="185" y="335" on="0"/>
      </contour>
    </TTGlyph>
</ttFont>
